<mxfile host="65bd71144e">
    <diagram id="rwbc4lNjfXqRiJTDo9lZ" name="第 1 页">
        <mxGraphModel dx="1053" dy="1831" grid="1" gridSize="10" guides="1" tooltips="1" connect="1" arrows="1" fold="1" page="1" pageScale="1" pageWidth="827" pageHeight="1169" math="0" shadow="0">
            <root>
                <mxCell id="0"/>
                <mxCell id="1" parent="0"/>
                <mxCell id="2" style="edgeStyle=none;html=1;fontSize=18;exitX=1.017;exitY=0.341;exitDx=0;exitDy=0;exitPerimeter=0;endSize=14;" parent="1" source="3" edge="1">
                    <mxGeometry relative="1" as="geometry">
                        <mxPoint x="980" as="targetPoint"/>
                    </mxGeometry>
                </mxCell>
                <mxCell id="3" value="" style="rounded=0;whiteSpace=wrap;html=1;" parent="1" vertex="1">
                    <mxGeometry x="60" y="-280" width="120" height="820" as="geometry"/>
                </mxCell>
                <mxCell id="4" value="客户端" style="text;html=1;align=center;verticalAlign=middle;resizable=0;points=[];autosize=1;strokeColor=none;fillColor=none;" parent="1" vertex="1">
                    <mxGeometry x="90" y="-335" width="60" height="30" as="geometry"/>
                </mxCell>
                <mxCell id="5" style="edgeStyle=none;html=1;exitX=-0.033;exitY=0.622;exitDx=0;exitDy=0;entryX=1.003;entryY=0.624;entryDx=0;entryDy=0;entryPerimeter=0;fontSize=18;endSize=14;exitPerimeter=0;" parent="1" source="6" target="3" edge="1">
                    <mxGeometry relative="1" as="geometry"/>
                </mxCell>
                <mxCell id="6" value="" style="rounded=0;whiteSpace=wrap;html=1;" parent="1" vertex="1">
                    <mxGeometry x="990" y="-280" width="120" height="820" as="geometry"/>
                </mxCell>
                <mxCell id="7" value="服务端" style="text;html=1;align=center;verticalAlign=middle;resizable=0;points=[];autosize=1;strokeColor=none;fillColor=none;" parent="1" vertex="1">
                    <mxGeometry x="1020" y="-335" width="60" height="30" as="geometry"/>
                </mxCell>
                <mxCell id="8" value="insertEmp" style="text;html=1;align=center;verticalAlign=middle;resizable=0;points=[];autosize=1;strokeColor=none;fillColor=none;fontSize=20;" parent="1" vertex="1">
                    <mxGeometry x="500" y="-360" width="110" height="40" as="geometry"/>
                </mxCell>
                <mxCell id="9" value="html" style="text;html=1;align=center;verticalAlign=middle;resizable=0;points=[];autosize=1;strokeColor=none;fillColor=none;fontSize=18;" parent="1" vertex="1">
                    <mxGeometry x="525" y="-320" width="60" height="40" as="geometry"/>
                </mxCell>
                <mxCell id="24" value="" style="shape=image;verticalLabelPosition=bottom;labelBackgroundColor=default;verticalAlign=top;aspect=fixed;imageAspect=0;image=data:image/png,iVBORw0KGgoAAAANSUhEUgAAA+UAAAFHCAYAAADHiO1GAAAgAElEQVR4nOzdbWwj15kv+H/3uCfT8WLsRaaUTqeVtmTLHYujXEjyqldKjGtsHIpYSCoRsBfYAJk1oKYCRshCkHDhMu2PsUzjQoJwZzWEpRbgTRbzYW2AXS19oDjJxQw8kSDddDcShfK0FZPuUOnIqvhunBnH43Ri74d6L1YVixKlorr/P0BAN4usOnXqhfWc85zDE7FY7FMAOHHfX+DTTz9FJbfXiIiIiIiIiOig7rP+58SJE3j7iVe0/zEYJyIiIiIiIjpM9zlfeL+4HkY5iIiIiIiIiO45FUH5J3/8QxjlICIiIiIiIrrnnAy7AERERERERET3KgblRERERERERCFhUE5EREREREQUEgblRERERERERCEJLSh/5jvfxAfTX8czzgVPD+ODyyN4+zsPh1EsIiIiIiIioiNTMfv60XgYQw+fBh54CJdf7MF/QAe++5D9HZ/vehIfXH5S+9/7+NtLV/Ciy5q+9+IIvvvQR7i6+Pf4Fr6Ot0c+j/XFv8e31sz3PPOdb+JyFyzveQifdy2XfTvfe3EE38UmHvjehvpCr/bZdy2vEREREREdwDcevx9PPxjgjb/9A779kzuVrz/4GfznDiDz5scofuk0Xm36o/v7AACn8NxT9+H6Dz/CP7gt/tJpvProSeDjP+KVNz9GEUDrY59FEv+O//TWJ/7lNcp3En/zxGl89TMB9glA8e0P8covg72X6G4UUlD+Dr41Cfxg+kk89N/fx0//bhEP6IueHsYHsc/hvev/iEf/7p2a1vrMF4H3PjiNoZFv4gewB+aGtR/hUbfXKzyMn/7oH3H16SfxweVHtICeiIiIiKi+/uEnH7oHyFZfOo1Xm9wWnMTfdNyH39z6EEUA+OXH+PH503juS3cCBbqtj30Wz33xhOWVT/DGD+3lKb7179h84i/wNw/+Ht//rfaaM5CuKN+n+PFPtPc/+Bn858f/DJs/MT9v3X5F5izRPWbfQfn/8Jk/wyN/ddpz+e6//gG7v/P7zfN38K1JNeh+5jvfxAdd9nXZesrf3cQD33sfP5h+EkMPONcDAKcxNDKCIcf/3+4s472uZnxFe3VoZARvfnERT7xRff+Ad/D6GvD62jtqT/vIN/GD3HtBPkhEREREdCRaH/sLfPWjP+DbRoD8Cb5/6xO8+uhpfOOXHr3hDt491Y4e78fvxxfe/hDXjeVVet0BLSC/D38J4KuP34+vOrb7eoDyEd3t9h2UP/e/fAlfa/HOs9n93R/wv/8/hUDrev3v/t68IH16yvUg3sqWvu7RA259z62vj+CDy95lUber9uJffEctg1G+p4fxQaA9IiIiIiIKyJp+XsvnvnQaz/3Vn/DKm45U9V9+hFfu/yyee+IzeMdYpz3Abn3qfjz92z/glQ/9NvAJvv/mh/i+XsbHT+L6LwG49ti7+MJpvPpFdQqr3/3qI3v6O/6AV34JtD4WcF1Ed7F9B+Xv/Obf8bUW7+U//fW/eS/UAm8A+Nn1d/H5rsox3vYx5cDPcot44o2HbcGy6TQe+qL5v2e+801cfvg9XJr8EV5HD/6jZbz6i99bNMaMq2PNT2vrtm79YVxdexcXY0/ig8sdFePZ3/vv73vvGxERERHRIVPTzj/FGz90D+SLb/0erzz2WTz31Ge1NHItwDZ6rj/Fj39xB/jCKbQ+ej9efdRlJZYx7N94RE0//wcA3whayF9/hG+/ZZb31afUNPni2x9aevaJaN9B+Wv/7df4WssDeNglhf3DP/wJ/9c/73h/+I0reABaYL73Izx6Kfh2r77zPoa6nsQHL37ONtnaV3q/jmfe+BFef3oYl7tO4713gf/QC6DzES19/TSGnv46nll7F0PTT2II7+Jv9bi+6et4+/JDeM8Izt/B62+8g9ff0HrZLw8DHhPNEREREREd2Gfuw3NPVXk018djP/gZJL/4KYq/PYmnn7ofT3u9/+M/4pWfAMnH78dzWop661+ehDpu/I/oeuo0vvYre/r6Nx7/LL7wC/vY79bHPounHzwBPH4av/7hR4F36QuPfBavPqgG4r/71Uf49g/NnnK1EeAT/PhXgVdHdNe67xe/+AUAoO3Lf13zh9P/9ZdY+N8uVL7+o1v4t4//FHxFvX4zosPSk/0OXv+7d/B679fx9kgH3nx6A/+kv+mBz+P/fPGbuPzQaeDdTTz6vQ0APXhz5DTe++AjfP4B4Gf/3+fx0neA9x4A8O6/4qf6Fvf+Fe8B+MqXewBsaOnu1hJ8Dt+9PILvav9z9uKDs7ETERER0UFYZjt3ZZ1I7bcf4z/90LnMMeP6l07j1fP6ez/WXjyFr93/CX6DkwDu4JUf3qk+0dqXTiOJP6H4MfD6m5/gmSc+g1/rcfmDJ/FXH38Cr6mZf/2L3+OV36rbfe6p03j1i9rkb5aJ7TjRG9EBZ1//xW9+j//7v+3i//ifzhiv/XPpt/jn0v5GXleMI7ekudus/QiPrvXgTUugDJzGVx6CI0B+H+9+8D7efeezGOoC3v3R3+OJL6rjwn/2LxtA0yPa+zbwT+924CsPncX3YE9xNxgNB94/z0ZEREREdCh++ZFnynfr/Sfwuw+rd4h94/FTwC/uANo4bwB4+P4TgM+48m/c/wkyb32CZ57QAvk3gW88fh++AKD1C3+Gv/zMCTz3+Cf49p7fltUGADU4vx+vVmuAILrHHPgn0axp7B/+4U945b/uf4BIRQ+0G9de9Y9w9frvMdT1OUAPrAEA7+DW2ufw06ZHjJnZv/flzwF4H//0BoDvmGt48V/ex3cf+hz+49MAXGZn/97X9W1+Dt+9/E2c95lYjoiIiIio/txmOz+Jr/0VsLn5SeXbP/rEEviexBc+vIPv/xZ4zvra6U/x6995b/Ef3voYwCn7az/5EP+Ak/ibJ07gdx9/ir8EvBsN9N89B6D+TNqHWu85EelOVn9LdePyNsavbOPS//svtaWtA/hKbARvdqr/fu/6P+KBS4vmX846odrD+MH0CD7QAnL9vX/7rrb4xhU8sPgu3tOC5h/0qi+/+MaGbR3n/0cAH/wrfuosyBu38TMAn2962LFA3e53H9K2mXsfxk+ufcf5XiIiIiKiQ+KSLt762F/gq/gT/tn5+9/3n7C/gE/w/bccs7Q/eAodLp8N4huPn8ZX8Udkbn1qeVVNU7dNBPfLj/DtH36o/v3kT+h4/H68+tT9ePXxUyAi1YF7ygHg3z7+E35622e2dT8fvIv/cgN4qataT/k7+NZaBz748m1LeroWZOvWfoRH17RZ1UdG8Hanc5b2z+GhB4D3rr+L1wHH+JUNPHHJPi7cHFtuTVl/Bw/oE8B1PYkPph/SZnknIiIiIjo8rV/4M/zlR3eM3m/vGdhP4mt/dQK/+41/Z9k3HrkPv7n1YY1p5PpPq32ibvdLlkmfLY0GX8CJit8lt3nwz/HqU38OACi+XVMBiO46dQnK9+MZAO998C5emPwRXu/9Ol5CgDHlb1zBAwCAHrx5uUObVR3Au7+wpZLbfvfcRgu8e7+Oty8/qaajf/Au/osjXV3/qTT4jB9/8XuLeFFLpX/pOw/j9b/zmuKCiIiIiMjHbz9G/qP7q8++jk/x45/cgREYf/QHfPuHeu/3KTz31J+j1XjvJ3jjLZeUdt2Dn0H09B+RqWXkqfZzavjVR/i2vu5f/hHFR80A+3e/+ghFAF+DNqlblV54TvRGBJx45JFHPgXM2dd//PmBUAukpos/iaEH9P9zYjUiIiIiIiK6O4XWU+7tHXxrkr3OREREREREdPery0RvRERERERERFQ7BuVEREREREREIWFQTkRERERERBQSBuVEREREREREIamY6O3kfX8eRjmIiIiIiIiI7jkVQfnnHv6fwygHERERERER0T2nIij/U+Z/DaMcRERERERERPccjiknIiIiIiIiCgmDciIiIiIiIqKQMCgnIiIiIiIiCgmDciIiIiIiIqKQMCgnIiIiIiIiCgmDciIiIiIiIqKQMCgnIiIiIiIiCgmDcgCIz2GjKCNV48dS8jZK+/hcYxpEZn0by1LY5TguJCwXV5GJ13u96nEoFbdROpT1H66UvI2NzGDYxSAiIiIiOjZOnjp1CqdOnQq7HFqAa/4ZwaEk2143l0lYdryu/tUeJIvRTmDlMqbqu0s1EzOrKMn1jooDBtvxGLqRx0K6zpt3cB5n27EOiySjtD4Hsc6r3d/xXELyYhtaWhdRqOlzLo0Exn75Xytux8R6XCqWe9aVhL6OLVxJLjnKtb/jLGZWq2yPiIiIiOj4a4CecjVoTGARLa1txt+ANThU8hivWJbGgPb/8RUF2NQ/L9YYXEtI9APX8kvV3+owJe5ne40p9WwUuJ6DfMjbUeusDQubgLIyUXms6RD4Xyv6MWmZzEPBFhZcrkH9WLW0TiCHKGZdGhvEzBAim2vm9RCfw0ZxCOXJWhsY1IaA2bNX1fISEREREd3Fwg/KpUuICVtYEEOKzKReRDavIpm1vBafw4ZXz6Cz597Ri1etx9/sLVR7EDcyg8b2ZvsFoGPE+Kw1DdjoNXTLBnCUSf+c+pkZxAQgMuqXEu3Ww+m9zZS8jeWMVkeyZOyzmcEgI2UtU8DeYjGzio3MnKVXN9h+WuvTdZkk28pZkW0x2g4IUczWWF4AQFSu3Kbv8VTrJ6PV7bKkl/u4DINYQu66ApxpdvReDyLWBeRes1zH2TH0tPbZr62ApsQ2tIR1TyAiIiIiOkKhB+XieQHQe9cklwAHsAdMdU13HkQmLtgDCUALJsye+YXdKBL6NtOi2aM/mYezH8/oddSWN8W1oD0tomV+C5FRPWV4BE0rE+hJLhnbs/ditqnLtHqZPXvVXO88kDACR20fJtsqPicn+9SeTQUozOvLK4MkMTOEJmf6vu82gUj/OVyZzEPpGMHw7QksbAJN5/Vj1o5EfEfLblhEoWMo8NhooT8KzOu96e0YNs4D7/1Usy2GUDaWTeBa1/P2bXaMoG9N35ctROJzEPUe5PktezZG4GBQQKxL28/JPNB/SQ2sqx1PtCOm9QJHRvWeZAHNBx4/LiA2bWkUGm0/6ApdDCLWJUBxZlVIlxDbvbqvAJyIiIiI6F4WelBuowW8C5uO113T1+tAuoQYbiBXEUjYe10THdaA05+td3k6CkE4h4i+MC1ifEVAoqim6/ckg6XMp3rbbT2updF2S0/lEsq7ajC2vwm23NP3/bcJKEYQX9nDDijIpce0oC2N1U0BzRcCFmdz0Ti+hdsKhLN67fnsZzyGbsEakM4gJji2qVjGy6dFtFwcq0OqvmU/s2XsBQ6sFbMhyJmlcdDyWBotWua36rViCP0zRt12X59wnLuDyMTbUVhjzzYRERERUa3uC7sA8i0Fs11qsHfY45mdUr3tKGTFiu2m5BFENheNHtOUvI3hICuMz+GFfiA32aYGWvE5bEyfq3iboigQztS2z4V578aIKbENUzDT1WEpe1Va+v6AS2Dotc1I5UtHwnc/lTzG6xJokxtlxRmIW2iTBL7EmJyIiIiIqGbh95Sn11AQonjhqH9GKT6H4TNus40PovkMoNwumO/rCLjOC+cgQEFZC3BTz0YhWJdLMma7buCli31Y2K3cZ/mW21hdtcdYT3v3Iyf71JR62zqWUN716un3SN+vYZtVxecw3LGF1ToGbBX7mS1j7yDn0M0dKNaMBgfRGP9dYzk9jufdJvVsFHvZfTaIaENW+DNqRERERHSvCj8oRxoDrYvYM9Jj1XTxvVuWXrlDGFPuPdv4EpLZLTNdd/ocrgWdATp9GTmlHQmtnMO38+as05KM0qhgpDtPido+WycVS19WZ7Z2jKuXk31Y2DTXaw9iHD93Nd2Ja2l7gDT1Wh4w6tcy0Ztn+n61bVZjSSWf7sS1SXOGen2ytUSHmRId7Hj67WcaA5PWfaxx4rTsGK5Y97VeP0vncTz96fs5gohRjw38e+W+jS7WfdEnGwy2L3pDyGy/YF7/df+5QCIiIiKi8J147LHHPgWAhx5WB+C+Vfh5qAU6Elpa+ZWD/pyZJKMU3zmmadODyKzPoDlb758kk7BcHEJ5cn+zbtPxkpK3MXzbJ7WdiIiIiIh8hT6mPBTZMfTUIWBM9bYDu2vHMCAHgCUkLzKQooPRx/kTEREREdH+3JtB+QGkZDX1GoA2uRhntyIiIiIiIqL9uTfT14mIiIiIiIgaQANM9EZERERERER0b2JQTkRERERERBQSBuVEREREREREIWFQTkRERERERBQSBuVEREREREREIWFQTkRERERERBQSBuVEREREREREIWFQTkRERERERBQSBuVEREREREREIWFQTkRERERERBQSBuX3kvgcNooyUtp/U/I2NjKDdd9MSt5Gqaj+LUt1X33tJNkoT0l2L5BaZrNujsLhbnMQmfWA9e84L+pdBrXuV5GJ130DDbJNf9WvB63M63MQj6xUh7zNup1TjXc8D5V2r2qI+6ZNDfcTXxKWD/M4Nmr9Hdo9ts4kufozgSS73DcGkVk/BvvXcALc3+Jz2CgezrNa1XI10PdDGM9oOjGz6vnseCSOy/3joO6V/fRx8s6dO7hz507Y5TC+TI/2xuPtcC7Cej3YOAV70BGjncDKZUwFXq3bl291U2IbWlonkFNq/OBhSYtoaW3D+MrRFijUG3k8hm7ksZCuz+r2ty9LSF5sQ0vrIgr1KUaDbtNfONfDYd1rgqn5XuMppOOpPQjX3hggYbloNsI0yvfZgdX5fnKvqd/1cEgk2Qh49m5FsOzTsJHqbUchOwYZgH6f2chEgN0dILN6RI2L9uss+H3OGgQ3QkNfWN9Xd8v3A91LrB0cR9f4up97jfM+o/0FuDc2TE95qldAbj4PdMWOsLfoXiIh0Q9cyy+FXZCGpAZO4pF+SRzmNlPPRoHrOe3BqZEdcs/ZsaA9mF0cO8LjdZjbPO73GgnL0524NtmGltY2tEzeQPd0kNb7QWTWR9C0MqF+rnUC17pmantw0BoQBxos+D0295OGrL9jcD2kRbS0rqFvtB2R0V6setVhfA7DHVtYNZap95GXMIRYRxTDePkI7mPqdYZ57fpsXQRGg32HiJnn0X1dvz7b0DKvIPZso6VVOGTH0NPahp7kUZ4/jff9EMYzGjUW9RzQr90tROKH3QC433uN3thm/o2vKMBuuer11CBBuYS+MzeQS+dwDZ2IOXfYmn7sbKmw9Wg4eiYcy8zPSVguyki5pTVrn5ntF4COEY8ej9pTe8TMKkrFGcQEIDLq3kprawUy1l25LXVd6kOi+pkRRCAgNq1/3uUBUupFZPMqklnngpjZCmRsQ2sZGm0HhChmHXWUkrexnNHqVpaMctcntdHasmTZj/gcNtbnkMqsuhwTn+NZjfUccT2ejhaviuPgcu5VO4eqbdPzfFf3M+NaB/Z67OvYwhXjS9z/HNI1W9ZrbNN3X+zlWZb043fQ9CNtPZZjmJL18h/WNlFxv3DW10ZGck819D03q+1qlXPW5/7m1Wpc9V5TZZv29VZeg5lq6fgV95pDPp4+KcvOOgpyXMTMkK38YrQTAtrRV/WWEkGzYL3ulpC7rqDpfJBzwTuNVT335tR6sZxnrvcTl3uKsw7s6w/Ss++4n2jngfO+lZIr7xvu54mC8gX3c1Bdh7VMQc+DkOrPdz/16nP57j3gvcbzGnSuN+h3oSSjVOzF6vwWCvNr6PM4Fyp7ONV6fwFXkdvM4wqedzlmlde/sT7Hd2iwsl5CzJq1IfUiAgHd0erXmXxLgdD/vFafg8jE26HcDtZH7fl9D//z1vd4VlF16NNd8f0AVPYsOtZbw/OS1/OJ2/3N/ZnbWk/qstl+wWVHvHjdU/2+B1321aW8rs9oCHBuZrzr8ED3N7fv3vgcNpzneC1Zt4qWcVPlO1s8L7gEuY1zr3GsCIl+IPda9dbixgjKpV40Xc9BxhJy12HfYUlGaVRAbtJscTBacONz2JiOYm/eXGa2JkpYnj6HK63WFg7rl0U7EvEdjGvLCh1D6kmktUqOryjA5qLLevdHTvYZKawFo7x95oNfZhXDt80W3PHrnXghMwi1xWUCOUTV/8fn8EK/ggWtxVBtOVpEAYqljpytiYPIxAXXE0Lo70R5UkuvRRQJCQDSGNBaoqDktTpqQ4tofj7Sfw5XJvNQOkYwfHsCC5sI+PDpR9uu0bIkYNh6QQpRJM5e1Xqv8kD/perHsxrteLfMb7ksHERmfQaxXfM8sLYcq8fUPL/29PJUO4f8tinJKI0CC/p6J/NosrXMtSPWdUPdz4o6UImZITTZHpz8zyFjvXrdWlsgq14P6ufGVxRERodQnlxEAQKaD9TzncZA6yIKHSPqzV6SkTiTx7hR94exTXNf9X1c2NWvB5XQP4LmrH5uwt7D4ntu+u2qz9AK3/ubo9V4Mo8m7ZhVu9f4bTMlbyOBRds1mLB+mQpRxPTlri3VbveacI6nc18WNu3LnA9y+kND5KxgPKin5G3Mnr0a8P5WQFmxBu8SEv0ChLORAKX1T2NV79OLKGjn2fiKYq7X57wVM6tqXbe2Wc4J/VwYRGZ9SLv/6z37z1fcNyvuJ9ky9oRziEAPOAYBDKL5jILyTXW/9/Xdq1HPAf2Ytdu/Axqq/qrtp1bHbt+9B7zXuF+DEpat9wv9+1sMkDaQFo3nhqbzBQy4PvNISPQrlkYns957kgXgzDkg2Re4N1PMrGJW/y5z3o9cAi09WLA+jIuZVZTiO1iwHs9q+zl5A93T2ygVZ9CcDf5s5/l9r/E7b32Ppw/foU93zfcD1ODH+pxlPYf8npfic9iwxAf6c4rt+cTjecn7mbvKuenL755a5XuwyvH0fEZDgHOzX8/8sj7n1+P+5iI7hiub9sA11dsORcu08vvuBVDlWcps8JjtV7AQ5N6GkO41tu0PeXSKVmqAoFxtrdy7pZ58cv6GLYU91dsOZeVl150Ro50QNhfd06ykXkTQjoRRyWpvsvmgpyCX1h8K01jdFNB8IWiZ653aM4hYlwChf8bWMmce+CUkLy5ir38GpelOXJusMYVHuoQYbiDnUodm3S6hvBs8sFaMh7Qtx5f0QdhbS2crHmi3zIswm8M1pV7H00M8hm5hy/vCt13MzvNrf8TzgqVuYe6nsS+W/cyWsVexTa/UsGrnkGU/b+5A0R66q1PML9iANx3A2mrpyPIwWi/TGJjMo2l0W22ksF1r+9tmdfYW7kSH43qw3Gvk/A0oZ5otDxx+5+b++N7f4Gj5nY5CCHzMvKiBlfWBSc7fcJwLVc4Tz3vNIR5P15RlCX0dimfLtO2B1aXBDYggs76tPrQF/OIHlpBMa/tY3Eap2IvyihK4J86XUS9u+1TlvHUwlsVj6BasGVYziAnO+6bb/aSAsnZ+R6Bg72wMIiJoFhSUszjwd6/1+35qbavmByBXh1F/VfcTPtdDne411e7Vtd4T0qJnkKo+WK55PHssIXnR67lEa2y3XUfqM485Nr2yHBXXpzVwhNlg1nJxLPh4bEnWvv/0Bu99ZjW5HGvf89b3eO7PXfX9cHMHSseIS5bFPtjq1ut5ye+Zu8q5icpeVzNDqNo91ft7sNrx9K3bwOdm9ef8mu5vHsOFpl6zDkW2Z1pV/+71e5aydNzNA4mK86WB7jWG4L3kAHBfzeuvt3gM3QIgaCepSkEsDsgHfdjeXKzhgSpsCnKTfVUeSBUoSu3Bpjoxi9jw4wHFzPOIIY/x1jGjZWr2bNil8iJhebQdhXn9hiRhuTgUdqGM1LABz/Nof+dQvcnJPu18VOut7HXuKwoUQbsp1y34dpeSRxCx3DNS8jaGD3eT+xefwwv9QG6yTa23+Bw2ps+FXarq95ojPJ5+UrIaCNkoaq9F4baCRP8Imufb0JMG1IdRYG8tQONjdgw9ji/z5iCfOwC/81bO38AL/eoQpFlA/U60Bl2KNWPBhev9ZAnl3efRDAl9Z9ewcLsXMQloUnbMB5Zj9N17oPqrsp9e18Ph3GvSWN0cQcJ4llKfKeozBncQsS4glz6iYyrJ6vA5G+0Z6ZaC2f4RDK9MGMfCmt3iR+3kmdC+a8bQc0FGKR6DiKUqz0cN+n3v5bh9Pxj3Ta2xKtDzMNSgTYqqQfA0AGxhoTVoZ5nXNgIMgzCeX9xWW+WeCtT5e3D/5+ZB72+esjlck55X47gLvYhsrmFAW+T33VtTjJK+jFz8+YPX4SHda3T6vd77mdwu9J5yvXXIPiDeTGGfWtuC4JEKKudvQPFKU9Za3oL+JJR98hJ17BE8WzP3+3MRXq1USyjvCohJXuvTJxvoQ086j6aKFBKt58It0IrPYfjMPmfNranHtBaSMb7Pur+Rs9YxImrqp/cqvHv/3Y7nvmRzuKZ4pE/Gm9EEPV1T60VwvMX/HHKnjnmznO/SJcSEoPviPUyh+jlUvVy17svBaJNtpfvQM6/4XBv7WbXbLz2ogZdxs43PYdj5xWHhO/GV37lZA9/724VzEKD1TGrlsV8ttWW+mJ8RbKmVqWejEDx7xxx87zWHeDxdfzJIvSfq3yNiZtX2IODXWi/nb0CB5ZpzuwYD/FqInhporw89G6heP/vif96mnrWnQ9oesLJl7AlRI2XTbd1e95PCbaD52V5gLQ35FtDde868dx/wu9e+/XYU1uy9Hg1Tf9X20/N6qOO9xmV74x69PSr3796qpEuI7e43K8nteUm9P0V6tcqTZPu4Xb/eq/QaClDM7I34HIY7FEc2h/d+WnuwxfOVzxh6L6h9nGz173vb/lact6Z6TZp4d30/6NSezoWgmY5+ae++/J65q5ybfqreU72/B32Pp5+azk27A93fAJ+f61tCMqugOzqoTuJt+Q6p3lNu4fcsJV1CTDDPcVVj3Wv09wftJQdCD8q1tALHzcsWmKRFddyKW6pIdkw9safNZcbJkR1Dz/yWZSILZ6VZUkzc0nnTl5GDOclZvTr5uSsAACAASURBVH7aZuq1PGCkzJhjhafECdv2zP00xzUPpNX9emlFQMI2kcISklnrvlp+i/wgXwDZMVzZtKSvBJo8TX9osk8kYr+wCygrqEitm3otr6UwbaNUHEJ5xTmGyFKWihRY7+Opf8naJiuTzQtUXZ9lUjvjPLGkfDvPIW3cjL7N2bM3Ksd9eZ1Dftt0nu+jAnJBhyt43sCCnENV7Ot60FM0rSnqQbYpYbk4giY95SotYmE3itlAD+IBtnlzBwrgSItVryEjnW36HK45x5FZJrpLYLFivJf7uel/Pfiem373t/Rl5BRzm8O38xVpVV73Gr9tTokTyJ2x7OeZgGNS4XevOeTjmS1jD4Bg++UONZVc3//ZrhvIbVas3F12DD3zsB/PGsbJGumQWrqbvT7UBwS4DDvZ37Xif95OvWZNp3cfIgLr/c16TKo0LkU6BPVBML2GvY52QA8yD/jda6aUzqD7+oQjNbKB6q/KfnpfDwe913jIjuHKrv0ZorIO3L97/fkHmdVpx0ywT+I7Jarja/VrLBd43G4aA8a4cP0cCtCrisr722y/4niO0Bqg4QhYA3zf+563nsfT77yt8ix113w/VKaDJ2BJ4/Z9XrpsK0/FPcyH9zO349yM72Dcdc4hN3731Crfg37H00+QZ1GvOjjA/U19j9t3r14Va9jrn0ECtTbmeT1LOSaCju9gvOJ7uXHuNYDeaFXb/p945JFHPgWAti//NQDgrcLPg3/62KqSMnu30FKWrjTgz0gYEy8ETVnx3Zd75Hj6UgPv5myj/RxQI1Lrqvv6ROBJftShFFfdU7ka+Do7MqHWQbDjmZLVMeJH+9NCLozJHA+/rir2OT6HjUAPFuHcTwIdo+NQfwe4HnzvNX5ctmlMzGVZV83fvZKsPgAfYA6dINvc937XnRo8YT74ue933jbOfoXosL4fKs7N2r/b72X7/37QNV59H697TaXwx5TT4XGMb2wI2gyTwn7GkJCPJSQvNsZNsZGJmVXM9gtQVhrnS+SuENa9Rh8P5hwL15DUh/0Ito4koNTTpHHb8pIjrdVbI95PjlH9hXE9XDjnSFHW0uSvm2ny+/ruTYto2fezq/WYNf73vT7etVBDQE4BHNL1oA4/2LG8EkGzAGPiaPJzkO8HNOB37/G613hhUE5HqxEbCuie4TtBCx0/BwoYjloaA61HWdglJNMxbEzPoFSc0V6r5+RfR4315ystYqF3G4niNhL6a9YH5lC+e4/6mB3MlNjWmMeWXMnJlxFbnzEnKgPUBvfjc8qF6ID3t4b77j1e9xov92j6OhEREREREVH4Qp99nYiIiIiIiOhexaCciIiIiIiIKCQMyomIiIiIiIhCwqCciIiIiIiIKCQMyomIiIiIiIhCwqCciIiIiIiIKCQMyomIiIiIiIhCwqCciIiIiIiIKCQMyomIiIiIiIhCwqCciIiIiIiIKCQMyu828TlsFGWkKl7bxkZmMKxS1Y8ko1TcxrIUwrbd6rYarbzqn/ZZ7XiUitsorc9BPJzS1k1KvkvOHSIiIiKiBnTy1KlTOHXqVNjlMIKXRnn4FzOrKMm1Rn6DyKxvW4Kw4xF00WGRsDwqIDfZhpbWNrS0ipgCgOwYelrb0DK/tY91qudYKI0SRERERERUd/eFXQBdqldAbj6P7ngMIpYgh12gAyjMt2EgHXYpLLJj6MmGXYg6SYtoaaS69RNvRhMUrN4tdU9ERERERHXXIOnrEvrO3EAuncM1dCIWdy6Wbb3Ptl5Cayqws6fdscz8nITlooyUdb16r7j2mdl+AegYcV/vPvdxuSgjk1n1XqfPfqbk7co0aLf9nI5CgPvnnL2rKXkbyxnvVGr7NrdRKq4iYzk2Yma14rXqXLIJ9P1x7L+9jqyfc27T53gelE/dqtt1Kav+mekoBLQjUeM55Kx3/bip9T2DmABERt3rwvbZOmZp7N2KWPbVcv7F57CxPoeU33lNRERERESeGiMol3rRdD0HGUvIXQe6o5aHeklGyZYCbOmFjs9hYzqKvXlzWU9ySf8glqfP4UqrvmwRGLUGs+1IxHcwri0rdAypwY2WWjy+ogCbiy7rrc4MmJyBUTtiXTfUbU7mgf5LZnl89jMlbyMBsyzjKwIS+nrjc9iY7sQ1/XOTeSiWskyJbWhpnUDO+qK1rP36ZyeQQxQJSwCYOJPX6kf9fGG+D8kD9vqm5BnEdheNY1KAgtykltadFo19bJnMQ9lctNT7EpIX9c+48TieB+Fbt4PIrA+hbByvCVzret52Dqnv38JCjeeQeszMbTbF1WMtJ/ssx0J/j3lMxMwqhm9PmOfJ9U68UKcAOTJq7uvCZjuGresVohjGy0Z5bec1ERERERH5aoD09UFk4u3Yy6oBi5y/gRckM4U91dsOZWXCNRgUo50QNhfR45bOLPUignZEittIGC8qKMcBZNV/59JjWpp8GqubI+i7ELC862pvpWoLC/pYYY13+rplm9ky9qY70ayVx3s/B9F8RkEuba5Qzt/AC/3nEAGAaCeEzav7DpaVlZe1zy6hvDuD7vODANyDxybHMjnZV4dhBgKaK+pdwrIEvHSxljz1/R5Pb6Jf3cZj6BYECNPbKE2bLxcOuE1ADa5n+6198luIAFXqehCxLgGCMINSccZ8eTMCr+NZC/M8AabWtpDota53C1f0Boe7aagEEREREdERCD8oj8fQLQDC6DZKo/qLCmJxQD7ow/3mIlrEeg9AXkLy4sGDnEanBv5RzBa3MQuodVlDtoCXqbUtJEZHUCqOAACUlQlHo4rWA52uR8B/yJQ8xi+O1bec8Tm80A/kJtvUIDg+h43pc0ELhNzkwbMZiIiIiIjo6ISevq73dhvpuq1tGF8xU9in1rYgeKTDyvkbULzSlG/uQOkYCTZLdXwOwx1bWLUEh/ItBTjTfGQzp3vv5xLKuwJiz5o7kno2CmFzDVN6OTt6tc9JWK4Y97w/qWftwwLcGjdqH1M+iEzcnqLvTOkWM8+jOXvAwNLleBrjv2sYZ+1bt9ky9oRo3dLDDRfOQYCCsrb/qWedx3MJ5V09a8H5uoCY5Ld/+rj8Gn/WzbmOeDsKa8dltj0iIiIiosYWclCuptw6H/DlW4oZoKZFdQy12wRo2TH0zCuITbtMtpUdQ8/8ls/4bsH83HQnrk3aU9CRvowc1J7iWiev8t6mD5/9nBInkDtjTjqXOJPHuB4kp0UsbOqTiQ2hPGkdc60HYfbJwYI0VEy9lkeTdT/qMnnaEpJZ+/Gy1a0kY7ZfsNefsU19UrURRIxjZ20QqHI8UUBZASBoaf9B+NZtGgOTeaB/xnsCPi/6hHSj7YCgnWP6eZK+jJxiTg43fDtfMYZ+6jXrds06mBInbOds5bFWA3pAUIdN1EAwtjeD7usTjfXrAkREREREx9iJxx577FMAeOhhdTDsW4Wfh1qgoyFhuTiEMlN9PaXkbQzfnjB7so1Jzw5SZ+p4/OasZcy9JKM0iopx+bUJdjzFzCpmu27UP+X8OKlLfRMRERERUb2Enr5OjWgQzWccLznSqvcngmZHbr14XgCUHY8Z1etE/5m7ezog1zINGJATERERETWU8Cd6owa0hGQ6ho1p60ze6iRiBwvm0hiY70XJNqnfFhZaDzlQ5ozgANIYaGXOORERERFRo7lH09eJiIiIiIiIwsf0dSIiIiIiIqKQMCgnIiIiIiIiCgmDciIiIiIiIqKQMCgnIiIiIiIiCgmDciIiIiIiIqKQMCgnIiIiIiIiCgmDciIiIiIiIqKQMCgnIiIiIiIiCgmDciIiIiIiIqKQMCgnIiIiIiIiCgmDcmoYYmYVJVkKuxgBSVguriITD7scRERERER0nJ28c+cO7ty5E3Y5AElGqbiNjcxg2CUBsP8AMSU3zj7ca1LyNkpF829ZAtTgeRul9TmI+hsl2f7/Y0XbH9s+BjGIzLqlfo5N44c7MbNq7kstx1K7zzRUPXiUybaPxW2UijJSR1CcfdWtcx9qPj/rzaXRzHHdu98vDte+z1vAXsfH9v5FREREbhqmpzzVKyA3nwe6YnzYoBqpAWfiTB7jrW1o0f4G0vpyBQqiSDRA/HUwg8isjwDz+j4uAqPBeutT8gxiu4tG3Sxg5Pg2HkkyZrtuGMd6/HonZgMF1xKWR4EF4xyZQO7MUKjZDmJmFSVbmdrQIqbNN2xajtlmO4YP+5jtt27Toll+7dwsQEH55uEWd7/EzCoSWLSVeSBd/XMHsu/z1uU8uTgG+ZCLS0REREenQYJyCX1nbiCXzuEaOhFzPiQ7emFsPRrxOWxYltkCDccy83MSlosyUtb16g9H2mdm+wWgY8R9vfvk7PmyrjMlb2M5YymvoyfE2atT0nuB4nPYsPagOf7vt82K3lNHb5z9s5W9dOry2lK4K3v/nD1UzZYyBewZjMfQLWxhwedB9Vo2j6beWqNye6+0aw9VVPY5R7TPuzx4V9RDkIdz6RJiyGNBDx6kXkQgoDta7dwcRPMZBbnXzKhjam0LwtlI9W1qbOefpQ7EzCo2MnOWeqrlPHHWb5BzaRCZeDsKWf1YDyLWJQAdvQHOlQLKSjsSel1LlxATFJSzVT9o2Q+X/YzPYWN9DhnZ65z2IiHRL6AwL2IqWBGwd2vJpUyNULd2YmYIkc2rSIZWt/4iZ4WAZWqEuh1ErAvITQY/T4iIiOh4aYygXOpF0/UcZCwhdx32IEOSURoVkJt06dGIz2FjOoq9eXNZT1J/aJWwPH0OV1qtvYrWgKEdifiO1muxiEKH1mOWHUNPaxvGVxRbL5W53v2Tk322nqS9/ku2B7JIfyeuTWo9eJaeXTGzaukFnkBOAQrzfYEeeP22ae89VXu2jAc/Scbs2avmZ+dhBjP1qoP5LSgrE/Yeqo4omrM19gxeOAdB2UHB7z03c7hWc69oGgPWXlXFGfgLiHVp59BkHnAcTy9iZtXeY7aimAtd04DVh37xvADsliFr6yjFd7CwogQIrpdQ3rUG72qAgDPNgbJSxMwqhm9PGMdt/HonXrAcF6E/avTeB+/NlbBctPf6m8fPrbFIb7iIoFnQe2AlLBdn0JxdRAECmqse2yUkL6pZAqXiNkrxHYy3Bgx0ql0PQhQxved1fguReID04ngzmrCF1bS+Ly4NP5aGwQQWA/bmhlG39u0n+mFrBPJ/+yHUbRVT4iIKWt3W1uAaQt3GY+gWFCC66lgnERER3S3uC7sAeoCwl1WDXjl/Ay9IMYhYggwg1dsOZWXCNQAVo50QNhfR4/bsJ/UignZEittIGC8qKMcBZNV/59J6gJXG6uYI+i4ELO/6DGJGR8sWFmp4sC+NtltesJYHUFZe1vZzCeXdGXSfHwTg3hjQ5LOslm3aCWjW6iDV2w50tKNUHLF8dAciYASlcrJv/ymU8Tls9K6hR3Tsw6YZeBRuK0icjUDfTzGzqmYwaArzagONeF4AsFNlg0tIZi+h9KwErNVe3JT8PJDucxxnyzmULWNvulN9wDbqNo2BVufJqfaQmT1mDmkRLR6xjBjVy6IGaC0X0xAzq4HKPyUuoq84g1JxRi33yhZwthzg+KnlFQT9s5pN87j4HTPA4zyRehFR8hh33dclJC96ndtaMHJhDhtFtRErmVXT0qvTrt3dRbS0ppGStzFblBEJcP1Wvx62sKCnnd/cgSKcQ0Rf5rgGlZUJl0Y+7VyRZJSsQdrmopHOnpK3UZJhS29vnLo16b3kAwF7yQ+/bt3o16Z6TpSKM8b9RNdYdduObkygpXXJKPOylD78lHsiIiI6EuEH5fEYugVAGN1GyXhAURCLA3LAhzpPlgfa+vF78PIjYXm03fLgJ2G5OBTok3L+Bl7oj2K2uI1ZQN2vQA+e/tucWttCYnTEeBhWViZsDRzOh9T60bMYxmr6lFcjgHxLwWy/5UHdS/oycuvBerOt1J7il9Fz0PMxiIpGFABQkJvsQ/KWgtn+EQyvTBjHP3JWgHLbN0dAY28gEDOr6A70Ocv2j2L/AVQ2fGk2F9EiFlBWRhAbPYeFVq2RJN6MJihYrVY+Y5iDWg9T4gSa12fQJwEIcJ7v+3rwamhxbcjxNrW2hUS82dYwVrtDqltdfA4v9AO5ydoqqu5162XX2RCl3c8lGaX4HMT0QcZqH2bdbuGKcc+v3mhLREREx0vo6et6b7d1wp3xFTOFfWptC4JHWrCcvwGlwyMl+eYOlI6RYOMP43MY7tDTSLV131ICp/cGoj2A6RMfiZkhBB3Rm3rWnqJf2dCgp0AOIiNFYTwT+m5zEJm4fViAtYepcFtBZNR/TPd+xpQDQEoeQrme4yPTl5GzjhX2tITcdQHDcedTs5526rK/8Tm8cPbqPocvaOu1jUNfQnkXiOjj2yXZ1vtfOWFWG1patYA4vYYCFFzLLxllG+6w/F9dYeVs806SjNl+xfKQr9LH9dqvGTX1PSYdIGVYS8m3rffmDhRBnz9CncDOPDfVNPOKehDTUI+hAmyuGedP6tkoBMv/vfcFgC1dOILmiqHF7vUX5HqoXRqrm8HrNtXbXhlUNlTd6u/3Gkt+lHVbQFmpHLLh1YClZts4i9sgdZvN4ZrSrjYeqQVDX8V1T0RERMdZyEG5lsq7Zg8y5VuKGYinRYyvCEi4TQyWHUPPvILYtMtEZtkx9MxvITLqNUmXYH5uuhPXnEFi+jJyUHunax13KPTPVE4ClB3DlU1zm7NnbyCnVF0VAGDqtTyaRt3GKTrXq49ThMsy5zaXkMza6866n3KyDwub7bZ6r9dkd4kOwf2Y7dsSkhcnkDszYtsXt6BBTl7FnuB8AFcDZVSM75SwPB2F0GFdby3Bg7ZewT55oXU8a2kUyK0EPBGQxsDkDXTbztuAPdjWseoeY6nlW2o51KER1vJO2K6FmifburkDBZaGCADIjuGlFRjnbff1vP+cANZyJvvMceHaWOtAGTEV94sRNDnnNEABZQWAliJt2+YhXA9TYhsWdi11O+oIvDuq7Gej1C1gNBJ5jyU/yrpdQvLiIvaMe7E6bEFtXKsc+z3bdQPjzokiG6Zul5BMW78DRoCAc4oQERHR8XDikUce+RQA2r781wCAtwo/D7VAR0NN4y4faUru/qXkbQzftoyVjM9ho5aAzJWaatmctaSNSrL2szv34Cy/h7TvxqRuPjPDi5lVdaKrug+1qJU5iVV9hy0EWW/jXJNBjlnjYN0enuNVt0RERHR8hZ6+TtUMovmM46UL5yAg+E85uatM3RXPC0C1WczvOlpKbd0DcnW9s/2K70+1NQr1J8/qH5Cr6bhuPdINSP85xGMSNLJuD8+xqlsiIiI69sKf6I2qWEIyHcPGtHX2a3XirYMFkGkMzPeiZJtgbwsLrY3/wFxfbjOkN/J6D8eU2HYo2REHmqH/qGXHjmYyvzph3R6eY1W3REREdOzdo+nrREREREREROFj+joRERERERFRSBiUExEREREREYWEQTkRERERERFRSBiUExEREREREYWEQTkRERERERFRSBiUExEREREREYWEQTkRERERERFRSBiUExEREREREYWEQTkRERERERFRSBiUExEREREREYWEQflhkGSUittYlsIuyCAy641QjoDic9gobqNU3EZpfQ6i23sapm6JiIiIiIgOrmGC8pSsBWPaX0MHXZLsHTTS/mXH0NPahpb5rbBLQkREREREdCTuO3XqVMhFGERmfQYx5DHeOgY55NLURVpESzrsQtylWLdERERERHQXCb+nPB5Dt7CFhYteAbmagl1ySWsWM6vYyMxh2ehhl5Ey1juHjfU5ZGSv3nfJ8rltbGQG7ZvV0qTtn9U+M9oOCFHM6stlfcXWsq4iE3fuqyU927HNlLyN5Yxf+ra27gP00IuZVdftutWt9f1edZuyLK+oPy+OOgi+P951K2ZWK9aTkoPvJxERERERUVjCD8ovnIOg7KDgulDtRe++PoGW1ja0tLZhYTeKWdmMroX+KDCvLdtsx7A1OBSiiGFR/ez8FiJxPRgbRGZ9COXJNm29E7jW9bwZ6EkySqMCcsbyNgykASCNAT29WsljXFvWIupdt0tIXmxDS+ti5f7E57Ax3YlrxjoXsdc/Y2soiPTryyeQQxSJOqbwi5lVzHbdwHhrG3qSS8Zrw7fNuh2/3okX9PqTZMyevWosa5kHEpZ6hxBFQl8+mQf6L5lBux89Rd1yPIPtp3fdysmrKAidiBmBuoS+DgXX8gH2k4iIiIiIKEShB+XiecFnaQTNwhauaEEkAEytbQFnms2ezs1FLWAGCrcVCGcjls9vYUEPmG/uQBHOIQJovfMCYtN67+kMYoKA5gvqW1O97VBWXkYyW5ddVF04B2HzqmWdaaxuAk3nzeDQ3OYSyrv2ZUZQ6plR4C0yuq0G2LbPDiLWJUDonzF6kGf7BaP+Ur3tQMeI2bs82m6vd2vdZnO4pghotjZqeGYh2DMUEh3O/dyPNBZWgO6o3qDQi4hR1/77SUREREREFKb7wi6AfEvBbL8aLB/peHIlj/F9BLjHUWF+AuX4DDYyBaOXXKUgN9nn2fhQmG8zGjxq4jPuOyWPILK5aGQXpORtDO9jE05y/gZekGIQsYRIbzsKa9YEdf/9JCIiIiIiCkvoPeVIX0ZOabenRhsKKCvWlPRBZOLtUK7nDhZMZ8vYE6KeKcxTa1sQ/NKxrb3uQd3cgdIxZKbIx+cwbEmxru4gY8qXkLzoTJdfQnlXQExyX1/htoLIqBwsJV26hBhuIFc16B1E8xlAua0loMfnMNwRcBeqyY7hym4nYnEJfWfyWDAaBfz3k4iIiIiIKEzhB+VYQvLiBHJnRlA5sZoZTBpp5ruLjt7e/UhjYDIPWFKabROZpUWMrwhIeP1EW3YMVzbbzeVGg4Kemj2CCPT0eG1SsuwYeuYVM2V+Ooq9+aPsvVX3uWnULO+UqI5dn3XZTznZhwXrPlakoVuWjcJnoj6rJSSzW2Yq+fQ5XFtRzMV62rt1Ij2jEcKnbjVTawpi0yNA1l4Wv/0kIiIiIiIK04nHHnvsUwB46GF1QPVbhZ+HWiA6BuJz2Jg+hyutIqbCLgsREREREdEx1gA95URERERERET3JgblRERERERERCEJffZ1OoayY+jhTOZEREREREQHxp5yIiIiIiIiopAwKCciIiIiIiIKCYNyIiIiIiIiopAwKCciIiIiIiIKCYNyIiIiIiIiopAwKCciIiIiIiIKCYNyIiIiIiIiopAwKCciIiIiIiIKCYNyIiIiIiIiopAwKCciIiIiIiIKCYPyWsXnsFHcRqm4jdL6HMSwtxmfw0ZRRuooykFERERERER1FX5QLskVgWZK3sZGZrAeK8dycRWZeB1WpcuOoae1DS3zW3VcaQNuE3A9NoE/pzciFLdRkiXb4pTstWwQmXXLMuexszZO1Pu4EhERERERheDknTt3cOfOnbDLQXcNCcujwEJrG1pa29DSOoHcmSEjgBYzq0hgUVvWhgWMGA0wYuZ5dF+fMJa1zCuIPSuZ653uxLVJbdnkDXRPM0OAiIiIiIiOt/B7yqty9J669Kq79ayqr48gAgGxaX25I4jTenSX7R25B+PoJXau215eS3lsvcC1p8Y3Z1bdt+lYrz0DwdkzrZdHwnJxG6XRdkCIYtajx1vMrLr0WBdQVtqR0N8rXUJMUFDOqutN9AO519J6ZaGvAxC6YhAByLcUCP3Pa+sbRCbeDuV2QdvWECKbV5HMatuOdkJAO/rqeeyIiIiIiIiOWGME5dbAr7iNRIe+YBCZ9Rlb7+nCbhSzesAXn8PwmTzGjV7ZPiNomxLb0NK6iAIU5PTe1VYRU4e5H5KMkrWXeDKPplF7Q0HCVl5LefQUdct+JgIHnO2Inb2q9S5vIRLXAvr4HDasvcuti9jrnzGDdukSYrtmr7VZnjQG9HR5xVJeMe1VAIslJC+qPeCl4jZK8R2M6+uNN6MJWoAen8NGcQjl+TwU4RwiAJAWtR7wbZSKM2jOtqEnuQQAiJwVjAA9JW9j9uxVLGwCTefrMcyBiIiIiIgoHI0RlFsDv9Y2LGzqCyJoFrZwRQvMAGBqbQs406wGndky9oQoZvc7vjgtoqW1DQNBYs0AxPMClJXLlkA7h2uKgOYLgNorrCCXHoPs+mmtd9rSMBE84NzCgh4w39wxg9wL5yBYepeBNFatgezNHSgdI5UZBAHJyT5bQ4hK7X3XU9QXdqOYdctQmD6HK619SN50vq41Ikzm0TTq7NmPILO+jeHbEwEbCIiIiIiIiBpbYwTl+6b16La+DEju6eLHRUoeQWRz0aVh4hAZvfNr6KvX5GnxGLoFs5FgSpxATtHSzLNl7KEdCWvv+YVzEJQdFACketuhrLysBvnZMfTMbxmp7YXbCoT+EUvv+SCazwB7t5a8SkJERERERNTwGjwoV8cnDxu9pdo44+s5R2+zmjI9vqI4epcLKBs91S7qPKZcHRN9yewVli4hJmxhNQ2ovdSCZeIyKzXA1NOzEZ/DcIfL22p1cwdKhznJmrpeBdfyzkBWbdxY2HTUlbXX3YX7mHIAENBsvBZBs2BuZ3UTluNXeTyFs+bWxPPGByHnb0CBXpdw1C0REREREdHxdF/YBfC3hOTFCJaLMygVZ9SXNhfRoqezS7I6GZlOyWP84pL989lLKI1uozQKAFtYOOi4cts22zFb3Masksf4xTHIaRHj51cxW9xGQi0QcpN9xvamxAk0r8+gVBzRXtHLo5dT388t5FYUdAfZpl9Zs2PouSCjNL2N0rT6UmG+zZwsLbOK2X4z8MXmIlrS9s9feXYbCX1/Nherp427bFNZmUBP2lkHM+Yy7Xi614+2j/p6jbqtw7EkIiIiIiIK2YlHHnnkUwBo+/JfAwDeKvw81AIRERERERER3SsaPH2diIiIiIiI6O7FoJyIiIiIiIgoJAzKiYiIiIiIiELCoJyIR2ri6wAAIABJREFUiIiIiIgoJAzKiYiIiIiIiELCoJyIiIiIiIgoJAzKiYiIiIiIiELCoJyIiIiIiIgoJAzKiYiIiIiIiELCoJyIiIiIiIgoJAzKiYiIiIiIiELCoJyIiIiIiIgoJAzKiYiIiIiIiEJyfIJySUapuK39yUgd4aZT8jY2MoMVr3mXYxCZ9W2jvLbPxuew4XytRmJmFSVZ2vfn7bSyrs9BrNMaj56E5eIqMvGwy0FERERERFSbBgjKJSwXty0Bt1uwK2F5VEBusg0trW1oaRUxVWWtYmbVvh4tqF+uVyzru+3nEdtd1Mrahp7k0uFv1IvWCGDU7TENvtVGkMq/ozienmx1W9koYCtzjY0o6vl7hPtXpdHLb1+8l9kbp9zqyI/neg9yTvseM/u9qLaGM/Oz9mPmrIODlNf8rN/9TT93nH8HaQgkIiIiosNz8tSpUzh16lSIRUhjoLUNLa2LKEDRAm9H0B1vRhMUlLO1rbmwCfRpD8ipXvX/9TIlejcORM4KUG4X3D+YHUPPkQXqEpanO3HNaMxoQ8vFMci29ywhedHt9cai1ncbWibzULCFBW1/BtJhlWgQGcms2/EVICaZwZaYWUUCZsPMAkZqCIoGEetSsDC/hUjvUUTlEpZHYdTpwmY7EpYg2HdfJNmybBGFjhFLUKqdW62WOno22P74blO7htRlE8ghikSg1fods0Fk1kfQtDJhrPda10ywRpH4HDaKQyhPLsLjqkdh3u8a9CDJKPlcv173NznZZx4P454acuMgEREREXlqgJ5yH3ov0XQUAtqRqKHHJ3JWANbWgF4JgIQ+rGHVbd0e67T20iU6PD7n6PHSP5PoAIT+mYpeR+s63R72bT2DjnVbe79m+4Wq+6+WtRlNfsutvaOO3k8xs4qNzJyl59DZe+roAbSVt1qPo7a8bin4mqjsuk3n8AO34Qi1W0LyYh+SWkORnL8BRTiHCABAQqIfyL2mtxhI6OsAhK5YsB7SeAzdu2uYSq+h0NFrqXcJy0UZKa/jJskoyVLV86xSGgOWBqaptS3gTLNW1ir7khbRIqaN9axuAk3n3evWt7HKppb6i6BZUFC+aX9VvV6cPeF+xyyCZmELV4zAdQm564pjXzyGemTH0NNqrrc+BpGJt0NZedl1vVXvb0RERER0bDR2UK73iDl6R4P3+KSxil6kpF5gLY3Cbe0hOz6HDVsP1CL2+s1esZS8be+ls/aw62Wa36rYmt6bu7AJKEaPmyXYEbWePaWypGJmFcO3J8xexeudeEELHMXMKma7bmDc6HF0WYFH/b20AsSmPca/p0Xf9Qn9UWDe7D0dNgLZQWTWZ2wp+mYP3iAy60MoT7ZZehyfP4Lx3gJiXTtqHU3mgf5LRzrvgBjthLC5ph5ra2aH3os6n7cEgNXXtbeWhhrkthu9oap2JOLafrYuotAxZK/bjhH0rWl1P7+FSLz24Qqp3nYo13Pq8axpXyT0dSi4lrdcn5ZGrMSZPF4Kcu0G2KbZSDWCJo/AtRrbMUMBZcVa1xIS/QKEs0GOWHWR0VobStTGBrUurQ1g1uvY4/5GRERERMdKYwflVTnHa1YGnlOv7WA4voMFa5rzhXMQNq9aHuStPXxqYGH20h2FQcS6BEvvutobrgYE6rJC1jvl1TmG1PrQb6SyzkPNNKhlPOvmopEeXritmAFKPIZuYQsLoksdxWPoFgStIWAbpeIMYoKA5gvWN2lDFtw+v28KcmmtjrJl7EFA81FN/CbJmO1XKutDklGaPocrrX1I3nT/qMvKkOiH0fM7teZMYbfsJ9JY3XTUrZI3z/W0WPOwBDGz6h48V90XPf3bESBbUs3Hr3ditpbzz2ebZoq2mmbuzHxQl/v0XlccsyUk03k0GcFzL8oriqNnfz9DPewp/C3zW4iM1jopobaOyTyczWeu9zciIiIiOlbuC7sAB7OE5EW3nrdBNJ/RUlqzY+jRHswbe4IzBblJtyCies+XnOyrHiSkRbSk1R7uhATIh/kQr+Qx3uBj1OtGklEaBRas8wtky9ibjiIRz2O8VauHC+cgKDueY47N9fUiAgGR6W2Ups2XU0DVyQ0PysjIsB67QPuinlfd1yd8s1jk5FUkir2IAP7nRk31t4Rk9hJKvREAATNo3I4ZYLtXAGrGTPNancdhp9dQGB0K8MYCysqIozFLdxzvb0RERETk5Zj3lO/TzR0o1rTf+ByGjbTbAsqKgO6omTpuG1N+KJZQ3hVsE4XZl8HsLZXk4GPKK0TQvN+PWmVzuKZY09mty8rYE6JG6r27QxpT7sPo5Zdkl+OpZ1zU9lN7YmbVPbjTMi+MFHB9fLDxf2+p3nbL0Adz6ECfW1XF5zDcsYXVOjSwpOTtyoA80L5IWC5WD8gBQMwMIRKkYaKm+tOWOcaqu48p9ztmle9LnMk7eqAP/vOBah3cQK5qur06pj0yerQ//0hERERER68BgnJ9UrARRCB4j3+uE+FsRO1dmlfMFOvpKPbm9V5qNY0VWir57Nmr9jHX+iRbo+2AEMVs4JRwPfCbQUwwx5jqqeZTojqL9KxLGvqUqM5qXSpuoxTfwbjLeHZXtp+5UusY8+aM5Xra+2y/AOjrDxQoLyF5UR2HXznRWxoDk2b9hfG78k5Tr+WhWOpvoWIMvdrwgZpS3tUxx7BMQGidYG5KVNOq9RT+IEGr65hsqEMHzLHhlqEB0524Nln95wGris9huAPm+Vxx/nnvi5gZQgSwDb0wjrdjMsXZs1cDp377b9M6XGMGzdmg80z4HzPbZIo1lNV+D9Ovbb1BwD7Exr3hw52c7MP4imCWdTpaNduiXmPgiYiIiOjonHjsscc+BYCHHlbzJN8q/DzUAhGFwiuluaFIWC4Ooew6zIGIiIiIiI6jBugpJwqT1svZ8AE5ERERERHdjY75RG9EB5XGQCunriYiIiIionAwKCc6NtiAQERERER0t2H6OhEREREREVFIGJQTERERERERhYRBOREREREREVFIGJQTERERERERhYRBOREREREREVFIGJQTERERERERhYRBOREREREREVFIGJQTERERERERhYRBOREREREREVFIGJQTERERERERheT4BOWSjFJxW/uTkQq7PMeChOXiKjLxEIsQn8OG9XjF57BR3MayBIiZVR5LcsfzhIiIiIjuEQ0QlEtYNoJtr6BbwvKogNxkG1pa29DSKmKqylrVB3n1oV41iMy69f9HTJJRsgbIWtCxkRkM/vn1OYiHVsCgPOpRklGSKytXjHYCK5fN45UtY8/6BmUHBf3fWp0Y54Flf/Xjaf+rrM+K19XC2c6xwHXu+KzruWNtLLIdH+d57Tinjc9VBpv2fXUJRj23afms81zxqVvXa9ByLCvr3q2hR1tHDccsJduX2erX7zwhIiIiIrqLnPzo3+/go3+/E2IR0hhobUNL6yIKULTA2xF0x5vRBAXlbI2rVhQ0xRshkFUpmwqao2pAKEbPYW9TCblEh01Coh+4ll9yvK6gfBOQbzn2PzuGnla94WUCOUSR0AI1Odmnva79TeahGOfEIDJSJ65pjTbjK0BM0o/7IDLrI2hamTDWe61rJljjTHwOG8UhlCcXXQNCMbOK0iiwoJfp4hhkbVlKHgHmzfKOrwgY1hoDxMwqSvEdjM9vuVSZjNl+xVznPJBwBrqe29zG7NmrGF9xOa986lalWBq92tAipu2f31y01H8fkrZrUa1jbNr3x/+YAVOiZdn8FiIV16rHeUJEREREdBdpgJ5yH3rv3nQUAtqRqLWnc/cqrux2IuaWvu3oObSuMyVvYzljWe7VG1lDKr14XgBur6F8NgYRg4id3cHqbe/ymNvUeiBH2wEhilmXnky999qr9xRR2XU/YV2/Sy+3uyWUd92XKLcdoavUi8jmVUcAl8aAHtSlRVtQaRdBs6AGZW5Sz0YtPfBLSF40A0U5fwOKcA4RYz1buJLUGwaWkLuuoOl8gHMoO4aeigBUN4hYF5CbdM/aKNxWEBnVzw0JiX4Be7fUMsjJPs/9Fs8LUKyZBek1FIx98d/mlOgSTLvyr9taiZnnEdtdxMCa//vsx8yxjvMCsFu21EnQ84SIiIiI6Hhr7KBc792bzEPBltE72JN09rx6m1pTEHvWEXDG57AxbfastrQuYq/f3nsa6deXO3oVJRmzZ69aeviAROCAtoDc7XOISTE0385h6pYC4WzEvq/a38Kuvk0tk2B+C1DyGK/oyRxEZn0GsV1LT6YtgBEQ69pRPzeZB/ov1WVsbtP5Qdt4cfG84HjHIDJxAbnXggSJJrPBYwRNKy+7B8TxOQx3WANtxzqinRA217Tgr4Cy0o4+4xCpAbJR7/sVj6FbUIDoqmvKt5zsU8+N4jZKxSGUJ9swEKAq5FsKhK6YpWd8CP9/e3f00kj673n8M838B2erj6dR5hf5yTBm5KD+VtG73YsYlrbL3C9Lgx0heCMKS42z7MWy4+RGkQUJ6AjDLuc6XaPsRi/OuUvTMnazOHFoAgk/bPq4Fr+/YfaiqpKqmMQkpi27fb9gYLrLquep50lJf+v7fZ7EZWgodXObN2k/toaSm23K08cWm7eZ2tH3c472bnoZ0HTO6mXz251cAwAAAPgM3e+g/EYNGeJmWevsTyoMPAsHGV8PyghlcLMqnimUPXVqQYubGfaPrc+MhgOUpVFpYKjlOtrGMmk780pDS4MqXgsow+t602PqLJubSmrSOG8T0DgqZL0gPX+hKz/Aqw+QG/R3ERCVPnjlxF9LV2dGIOAN3s4LJfVWhS6XHNRLnt0y82ZVEe0yrrXy79r9HCiTPdbjJX9sZ3Rx5ASy+h18hloa1aR+rJeEDyzW5jtUZr7rKLnZ4X4GWVN7l/WKiO/1VqXQ0o3Wbd6k9dj6S0gC5f+b9XEIl6HvqzS26J3rLxu4eY+H5nMWaHdXSrOZGwAAAB6gL6PuwO0cKDN9U9b8QJn8C50k4jrtU6ul3dZZTzsz27TMNv7E0NWrA0kHejp8/fi6vaj42X4tOF63y1roU38/lvWZQRV/fquF55b0QbXybPfYqEp58xYlx+68VWfikgJzbNlKj51rz2wy75btBcINQWJ+WVOBlwPrdllDr+rl7Dd/hloJl8VfXG5p0nuRkpwwVNqddfuRNbXyVVHbM5akm19+bJgj9f6ndnQyEdzkrFWb3dxDi7H12Mdv9f3cYItzsyqeLbqfTeuFkoYhbZZV3fSPj2q7UlY6+Iy0m7PaZX9SIfWd+8Ko270jAAAAgE/YJ54p71D2la7mnmnS//O793LGnoV27l4Yc5psSHZdeK1wv8xraCCwJju1o4Wxhh959z6wTjogX9CpM1rbRKx73a4p90qsn7zQrF5pI1/Q6cCM0k8C5eupHS0MHGvvVtXI88qlRhvWqXt/1yRLXs9Mt8/amrmi0rfum2rjHiyLn234DAUrHeJPGsv7O2HpcDOhq7xf6XBzm51pNrZ1688TgfL/BsFnJWuGN3ILLLGov7RqPWfhW32hpNHDZo4AAADAJ+4eZMotHVYWa8FmfLOs6ub5jcFVd7LaO3qm7Tm5X7OUX9bU17aqgQxfaXekxYZeYXZmVnG7rHSlrLT3d87Ralfr3EMGhmQq62Yul7ZUrWxJOlfhyKm/RPD6/PJ5oN1aVv1Amem4Div+uXIDo4+9MdbYqLTrFu0X3nyn7TlHhZ/dQ+vPE9Kb1a7bN3NFbc/Vg9fS7oimgsGz9UJJ41x7TUr/03OGJKPpvISue7av2HSnEXn4s6mlsqpLjgprs8rkD5TJJnWyWVZ1qd5ff8lD8znx2rVsd9mDJ10pK12bs2Cb7o7o9c9luzYbx88tgd/2Piftx7bhPgMVG9ev699/p0PYes5CbTrHWhlmMzcAAAA8PF/8KfbnPyTpm/i3kqTfS79F2iF84lI7Otkc1Mu+vlQBAAAAgM/TPciU47PSsH4bAAAAANDaw1hTDgAAAADAPURQDgAAAABARAjKAQAAAACICEE5AAAAAAARISgHAAAAACAiBOUAAAAAAESEoBwAAAAAgIgQlAMAAAAAEBGCcgAAAAAAIkJQDgAAAABARAjKAQAAAACICEE5AAAAAAAR+TyC8tSOTiplVStlVStF5VJRd6h763ZZJ7n5qLvRUtv+Wbaqr3dkBn626s3HoXV3/WvV5n0f2yj0Nibzyr0uh+b6k5ba0UnF1nrU/bjjcf1Yz0MUzz0AAMDn4B4E5ZYOK/V/zHX/D7p55ayErnZHFBseUWx4Vpn8x+prhBoC34aDOvyoLyMszY6d62XmoOnR9ZlRlfLLsr0/b5gjig2vquB8rP5cF0WbfjDVfQDiBWGtXiS1e8lk2aFnpWqHGw8GRo3HAhdpO593p9fxu0lnz4OZGJeOftJGv5tvbCdXbDMXt/GRnvu2v2tai+YZBAAA+PTdg6BckhwV1rygevdc8aVusldxDRmOLt59xO49cGbumeJnr5oHL6kdLYydq5i96159uszcd5p8s+q9RBpRbNdR8rkftFk63BzXqf88rL3V5Kb/PFg6XJL2/POGV1UYeFYLysxcUWnt1667p8WmGdG289nWgTLTI4pN11/AfLospeek0+OoX0xIn9e4AgAAoFv3JCgPePdejgwNBbI/oexfLYPjZ9gXFZeh5GaT7GAo4xjOyK3bZR1awSx9+EVA8za9a77e0XquWDveGPiYuWKPZfTJen8a73NpVDIS2m7Igrr9bBiDSiCIq9haD2ZXr2XsvOu3zOTNKzkhFX5uHnV3n21syBI3ZuQa5iw4tqE56bqiotnYNrtuwwuhhsy03x93jreUNKT4UqulE83H1v6rI2PuO+9n55VLjcr5UPKu+0zxs19q1R5mYlyGRjVrSVJJF86o0v71rBdKGo4u8m5b6bngPFmaHZOMiWRDxrP5fLYbWzPwWb/+GWqsdKmP37XnwJvbQ6uz8Wv5DF7rb/289s9DsNszoXFu36b7HOW8caj/3vCu28HvhJbaPpt9uM+Wevtdc5jznk/bqvWNUnUAAIDbuXdBuZkYl+G8VcEPSnJFLXyoZxVX3ozr+9y8pKyeDo8oNryvUjDTbtaDksPNQb2sZRX3pYYMfHxpRkU/q3g2qoVAwNW8TY+R0IJ+9DKZx9Lci76sSzXmxnWx5mVAlVDaUv0+d88l51grw+H7dEtGG8Zg2AwEyaNKp9575+2rNPasu5cF1gslL68HL95BpeecLsqg55V7vRXKEu9dJrTtByOpHZ1sBpcijGgqcG33Xkdq4/441XmJbfOxdQONYHZ55chQuhakzCuXMgLjWu+PnZmtleqWul06kTW9DHhZ1cqWhvL168afGLUAfd0ua/vJL9o7kx5/NS8/o7qnRTdYSr3Xij/XqSE9lhegp3Z0Unmmi91jOcag4sG2W8xnu7F177VeydJwM95zWB8//zmyM7NaOZKS1o7MwDKTp9mbx6/tM5ja0cJA4FkInHfz8xCY14YXE+2f+1Eln/yilSNH8aVnuljbVyn48tBIKP3kl+5/J2RNb9ya1Hzf+j5b6+V3jSTF5wb1cu1YztiiFj6sBj6bAAAA6NU9Ccrr2Z7tibdaqZVxzis5YciY26pli7bnDBlP4jdcT24mTKNK17JMblYpmIF3AhneDdMPjDppM7AeN7+sqYZ/DLsBR/dr252jH71zDnRx2a9/7DoqZP3xzKp4Zmjo6+Bx7x/iZrNMuJvFLb1qkSXvugw6riEjvJZ549W5NDAkU94LmbN9PW1RCh/K2G4mZDQGnG00H9t5DQ04oeDMPn4bCGQPdHHpfjZ72xirxdhatqp+ifrasR4vNV4/rtzrshsghs51qwz8lwh7lwltN8vsbw7q5fCsMteWdLSez97HNlz50Pis2JlZr5/uy5hWc9t4zbbPYP5CV0ZC272up7ZeKKn6i7+O2lTgc9Ikwy6da8+fq3xBp074d01PbnufbfT6u6b+O/M+7EkAAADwebgnQbmf7dlXyQhkTkPHAv81DSCbONsPn9dxoHyLNj8nqaQmday9prfevqy9/33Z0fdzqs/L2rHuYj8pP4P8g767YfO0zq3PjNaDovyypnbPa2XmpQ+OjLnFQPZ8XkMD0tVfD9z5MOrB34a5qoLjlbbnL3RVq4rwXhJ9PSjDea+S33Cr+bzF2Jq575RUPavaNOMryXGczl6m1c9o8wz62fkfJav7EurGjQk7azMKt7tPAAAAfBruSVDuy2rvyJHGZrzsn5eptHr4qqB37+WMLfbwj9hbtOnpfU15G+/eXy9FrinpwmnMgDfRdFO21mvK158ndNU0eNENZe2tuGuiF2pZYW899ZuCbHlZ6lbl9V8PyvDLs72+Gd003ZQ318/r977+PCGjSfbfzsy6waqX1a+f3y7L2HpsgwGq+VX9Tuzjt3IUmCPrhZJGcM6CGdi4hmqnZlU8U20sG8fWv7em83mLsY0/MaTLC++altJz4TP9zeempn9UYaDxeWw1fp0+g245/8qR03CNNs+DVxJ+/UXT7Z/7mqaZ+Nvo4T6l2nr1rqs82v6uAQAAQL/ds6BcsjM/qhAI3DZMd81jbdOhTrNFXgayvolU598D3HObH1N+WS/PAuX4oUDvQJl88F6DJc2BjaA2x3W61uG607a7qrcra/fLmcObeLnjd6DM9L6uaiXCW0pe7tfXjeeXNbXrBDauCgQU2Z9UcOr3v/DhuJ4BbttmexvmqgoDi7X20gPHWgnuSxDcxGxzXKfZcFC78fOxVLufzl7ENLa5Pedoz1+ykV/W1K7q87wk7fmZ72vjs6jHR/WS8A1zVacT9bGdfLNaH9t289l2bG+4l5/d9cVum890cVRfc27miu69mVlJB8pkr5fqtxq/ts9gw+Z72xNv9UOolLr187D+PCEFXlRcm5een/vR8Jw17qQ+thjqs39df9nA9pxR/5naRn693+ettP1d00rvzyAAAMBD98WfYn/+Q5K+iX8rSfq99FukHUI/WTqsPNPFWvfr29dtd03zVLN1o5btbjLGVzh9MtrOZxfMXFHbT375NJdzpHZ0sjmol11siBbpdQEAAPAgfBl1B3A/bZgjrQOMrKnYJxiTPWRt57Nj7mZozptO8+j3TH5ZU30rKQcAAAD6g6AcQBvu19gl/aXiZ/uKses2AAAA0DeUrwMAAAAAEJF7t9EbAAAAAAAPBUE5AAAAAAARISgHAAAAACAiBOUAAAAAAESEoBwAAAAAgIgQlAMAAAAAEBGCcgAAAAAAIkJQDgAAAABARAjKAQAAAACICEE5AAAAAAARISi/M5YOK0XlUlH346491PsGAAAAgJvdj6A8taOTSllV/7/XOzI/cpPrdqC9SlnViq31Tk+27Dvpo2teudcNfbWtvl3dzBX7er3PDy8VAAAAAHw8X0bdAcnS4ea4TtdGlMnfbcvO0aqmMgd322iPSrsjepqV3CB9S1VbipnZqLsFAAAAALiF6DPlqSE9vuFHQlntxgx1Q5b9JDffl241b9PSYaWs6tKoZCS03TRz3ZDZbuxvwr5lXw+UyR7LGZupZ/YbxuAw2J3GKgS/r97fb88Z0thiiz5599J1VYA3TpWyqpVFxUPHbhifVvOZ2tFJsJoh8GczV9RJbsdt8/WO1nPFa/fS6jMUOrehYsI9Z1FxGUpu9lBRAQAAAAA3iD4ozy/rhyN5Qc/1gMfMFbXwYVWx4RHFhke08mZc3wcDtc2ErnZHase7yXwbc1stA7XmbWb1dHhEsd1zyTnWine8nrF2s9jJy/3aubHpZdn1FpWceO+et3Yszb3oLcDLX+hKhoZSkltpMKiXfnvD+9JSILB8Hh6fWl/zy5oaHtHKkSOd7fc0fs1ZOqwsSrv1/pRqx9zxmXxTH9u9y4S2gy8KepxPY25cF2v7KhkJpZ/8opUjR8YT93VA28+QJGMuUevv3tmoFrxjG6bff0eFNb9PpjZuOUIAAAAA4Is+KJdkZ2bdgGdXSocC5HklJ4xQ8Lw9Z9SDrcS4jLN9r6z7OtPLmDbNIMstX78ePLdvs61UUpPGufZalpU7KmS9dkKBtRTOLneRnbZmFNeoO26VembXv27pg6P4Uq/r0A+UmW58sdBBf5xj7TUdgriGjHO9DATaG6/OpYEhmbp5Pts6+8Vb/uCo8HPwAh3MZ6DN0gens7kGAAAAgD64B2vKA7KmYlk3m5q2JDsrSY4Ka7M9rTe3M7OdB5MhvbfZu6yeDncYjaaG9FiOinlJltxMd4sXAbUxsNyyeTnHWukmyP4sRDGfAAAAAHCze5EpD4tryPD//0AXl4aSVvOssX38Vs7Ysz7vjN2+TUnSu/dyjEFdy6fmCzp16uXPH4elw82EdPSTW0b97r2cscVrVQDXZE23FLuh3/ZfnVqm+roe1pS/ey/HGFcy5Z8fXFNe0kVofOaVS43KeVOQrU7m068AmFfOSsho9WMhHcxnWyVdOIaGvu7pZAAAAABoK/qg3LJDJeZVbz2yX068Ya6qoMCmasEy9PyypnadwCZc/dnorW2bXrsvzwIl47XS8ANlpvd11WKt+m3El8LjU1trnV/W1O554Hi4/D/8dWqL0m7DmujsT6F7vfX4hfYI2NJQflUFxz/YOD7u+vvwvbSYz/yyXp4ZgesG16q3d+N8tnWgTD44vmz0BgAAAKB/vvhT7M9/SNI38W8lSb+Xfou0QwAAAAAAPBTRZ8oBAAAAAHigCMoBAAAAAIgIQTkAAAAAABEhKAcAAAAAICIE5QAAAAAARISgHAAAAACAiBCUAwAAAAAQEYJyAAAAAAAiQlAOAAAAAEBECMoBAAAAAIgIQTkAAAAAABEhKAcAAAAAICIE5QAAAAAARISg/M5YOqwUlUs99D7ckmWrWinr0Iq6IwAAAABwe/cjKE/t6KRSVtX/7/WOzI/c5LodaK9SVrVia73Tky37TvromlfudVlVux6Fun3sDSmAAAAOOUlEQVTvor9o707nEwAAAADqvoy6A5Klw81xna6NKJO/25ado1VNZQ7uttGenKukGa1L2pClWZ2rFHWXopI1FctG3QkAAAAA6I/oM+WpIT2+4UdCWe3GjGZDlv0kN9+XbjVv09Jhpazq0qhkJLTtH7eDtdReZrtVfxN2l32Na8iQiq+kWUuSNSO9ehX+EcsOZf3Dpd1enytlVSuLind0nw330lUW2dJhxVYuV2x+ny2rItx+hvqe2tFJrSIgOK5NSvAbrxuclxvabDufDedSNg8AAACgn6IPyvPL+uFISm42L8k2c0UtfFhVbHhEseERrbwZ1/d+kJfa0clmQle7I7Xj3WS+jbmtpgFp6zazejo8otjuueQca8U7HjP91O28cq+3lLzcr50bm16WXW9RyYn37nlrx9Lci85L0LOvpBlL6zNSMVvShWNoKCU3IF+S9vz21o71eMkPWi0dVhal2vjshzLsbcf2VkaVnHjb/D7zy5oars/X3mVCaUuSsto7chSfqUe9ZmJcxtkrbUiSDpSZvn4PLkuHwc+BPz/+vLRps/18WjrcHNTL4fr4aYllAwAAAAD65x6Ur0t2ZtYNXL2Mb9o51sr0smzNKzlhyDC2VK1s1U84i0s68IK2fU21KGc2c0Vtzxm1P5d2R/Q08LPNy9fbt9lWKqlJ41x7063qqx0Vsl6Qnr/Q1ea4G1jnJT+ArmWya2Pgy2rvQ1Hf60dNScr59/iVIefoRy9wlZQv6NRKaOhrSdaM4s6xVpp2p5P7PFBmupfy/i7uU5LzYV7SgezML0pX/DL9eSUnpEK2x1p1Y1BxyRu/1m22Zc0orlHFK2WlA/d2UbsXAAAAALidexGU12RNxbJutjltSXZWkhwV1mZ7Wm9eC/a71nubvcvq6XCTADQ1pMfOe5UUvJ/+lOhHcZ/r9qLiZ/u1bPS6XdZC7WhWxbOyW6b/LqlJvdUPHfUtq+LZotJLZVWXJP++/BcV7du8QeA8AAAAAOi36MvXr3HXULsOdHFpKGk1X9NsH7+VM/asz1/x1b5NSdK793K8TGxIvqBTZ1QLfVrX3gn7r46MYHm49UJJ41zFrN/PcSVTkltaH8wWd3CfPa0pb2deQwOS88ErQE/taGEs/BMbPx/r8YwlMzGuq/xyZy9VUjtaGAiUnw8HXzTc3GbL+Xz3Xs7YIuvIAQAAAHw00QflDZuUVb010H6Z+Ya5qoICm3AFN9vKL2tq1/HWo/dvo7e2bXrtvjwbVfraxmAHykzv66rFWvX+MtwS9ayplSOj3pclQ4U1080Sh9brb2kov6qC08V99t2BMvnz+lr+zUGdHjnhH8kXdDqwqO2Jt9oLJaj9DesWFZfh3ZO3dj6/rJeX4fuobwbXSZst5jO/rKndc8WX7vbr+gAAAAA8HF/8KfbnPyTpm/i3kqTfS79F2iGga6kdnWwO6uWwGShZLystSs8BAAAA3G/RZ8qB2/p6UEboLxpK1gEAAADgnrpfG70Bvcia2pspKx3cJf1sX7Euvh4PAAAAAKJA+ToAAAAAABGhfB0AAAAAgIgQlAMAAAAAEBGCcgAAAAAAIkJQDgAAAABARAjKAQAAAACICEE5AAAAAAARISgHAAAAACAiBOUAAAAAAESEoBwAAAAAgIgQlAMAAAAAEBGC8jtj6bBSVC71sS5vq1op69D6SNd/yHoe23nlXpdVfb0j82P0CwAAAMAn734E5akdnVTKqvr/3UEQs24H2quUVa3YWu/0ZMu+80Crsb+dB4huYEiwDgAAAAD3z5dRd0CydLg5rtO1EWXyd9uyc7SqqczB3TbaAzNXVFr7ig1nW/9Q1lSszWHcQs9je6DM9P3/fAEAAACIzqNv4t/qm/i30fUgNaTHN/xIKEvcmKFuyLKf5Ob70q3mbVo6rJRVXRqVjIS2/eN2MA3tlSy36m/C7rqv8SdGm6PB9sLl8WauqGplS0lDii81/5m2Y9tr+XVj5UNwfFpWRVg6rNjK5YpeJYA31sEKhoZzu60WaHqfqR2dvN7RutdueF5aj23Tewneq2U3v3+583KS2/Hur8sqDQAAAACflUdX/3qhq3+9iK4H+WX9cCQlN5sHJ2auqIUPq4oNjyg2PKKVN+P63g+aUjs62UzoanekdrybzLcxt9U0UGvdZlZPh0cU2z2XnGOteMdjpp9GnVfu9ZaSl/u1c2PTy7LrLSo58d49b+1YmnvRUTC2Ye6rNLbYIpA/UGZ6RLHhfZUajtiZWcWGV1VwpFJtjGZrFQltx/YW1p+H56Q+PpLyy5oarh/bu0woXYtZR5V88otWjhzFl57pYm1fJRkaSkluRcWgXtbO3ZeWOglm3TmZfLMaanM7GCgbCS3oR/d4aF5aj63bn8B9+p8J/16zpjumR07TXhlzCck7d+9sVAt9epkEAAAA4NNyL9aUu8HjiGK7UjoUIM8rOWGEguftOUPGk7gkyUyMyzjb19MWpcVmIPvZLLPqHK02CZ7bt9lWKqlJ41x7ZqtaZ0eFrNdO/kJXtYBTqmXhm2atvZcBw6s6ndjq04ZundynF5SGXizcrPTBcTPzdrNOhu8zPSY9/soPSB0VfvbG7uyX8HIGa0Zxjbqfj0pZ1cqi4sHxC2amQy8v4hoyzvUy8LJm49W5NDAUGN/A8fyypoZNbXRxvzXGoDr4lHj3V//clj44nX2+AAAAAHx27sGa8oCsqVjWzWymLcnOSpKjwtpsT+vN7cxsV8FkXe9t9i6rp+3WjEuqrVG2bFVTOzKz3QXL132c+6yNuxcoyznWihfYr9uLip/t17Ln63ZZC51eOHDeNXe+pj6r4tmi0ktlVZckfyx7CuYBAAAAPFj3IlMeFtdQbQn1gS4uDSWt5mua7eO3csae9flrxtq3KUl6915Os6xovqBT5+OXIptftVtj3uhAF5fBbHTw72+4z9t+pVfWdEu/a2M1r6EByfngFYOndrQw1uG13r2XM7bYQ4VASRehOZlXLjUq503hdi80UjtaGAgsYRi+65c4AAAAAD4H0QflDWXH1cqitDtSK+3dMFdVUGBTtWDpdn5ZU7uOtx69fxu9tW3Ta/flWaCUulamfaDM9L6uWqxV703DJmWVsrYn3tYyz/VycLec2x2L8KZkGz8fS7U+1Y/deJ996e+itOuXgx8okz+vl8xvDuq0xZrra/LLmto9D2xY1+nYNs6Ju+a/s70H2oxtflkvL8NjFxxbf+nE9pwhefsBNC/nBwAAAPCQfTE5OfmHJD3+hyFJ0u+l3yLtEPBJSO3oZHNQLwPrz9ftsvvVdS33FAAAAACAsOgz5cCn6OtBhRcRNJTmAwAAAEAH7tdGb8CnImtqb6asdKWstP93Z/uKdfGVfAAAAABA+ToAAAAAABGhfB0AAAAAgIgQlAMAAAAAEBGCcgAAAAAAIkJQDgAAAABARB79+us/aSXqXgAAAAAA8AA9+i//8m/0H/8nYTkAAAAAAHftUeFf/q/+9vdPou4HAAAAAAAPzqPkv/tH/d3/+xB1PwAAAAAAeHAe/fe//z/6y3/ajrofAAAAAAA8OI/+8uu/1a+//lPU/QAAAAAA4MF5pP/xv/TPf/s66n48AJYOK0XlUlH34y5YOqyUVa2UdWhF3RcAAAAAuL8e6T/8e/3j3/0t2l6kdnTiBXHVSlnV1zsyP3KT63agvUpZ1Yqt9U5Ptuw76aNrXrnXDcFtakcn3fT3zmX1dHhEseF9aamsk9x86KiZK97ZPAMAAADAffblr//tH/XP/3VO0lBEXbB0uDmu07URZfJ327JztKqpzMHdNvqgZPV0d0bVVFKmDmTLfRmS1r5Wjp5peyLq/gEAAABAtB795S9z+s//O8IepIb0+IYfCWW1G7OrDVn2xqxsr5q36ZVlL41KRkLb/nE7mMZ2M9st+5uw+95XWXYo6x++br2U/Noxy1bVtkL3Gi439+7lFhlt8ysj9OcNc0QxM9vj1QAAAADg8/Io6g4ov6wfjqTkZvMScjNX1MKHVcWGRxQbHtHKm3F97weWqR2dbCZ0tTtSO95N5tuY22oaPLdu0yvL3j2XnGOteMfrQea8cq+3lLzcr50bm16WXW9RyYn37nlrx9Lciz6UoM8rlzJUWGs2BvPKvX6mi9qxVZ1OfBde1z62qNlX3vHdc8VTfSop914UbM9JhWxwDAAAAAAAvi+j7oAk2ZlZN2jzArm0c6yV6WXZmldywpBhbKla2aqfcBaXdCAzMS7jbF9TLRKvZq6o7bl6pra0O6KngZ9tXr7evs22UklNGufam26VCXbqAWr+Qleb4xpKScpLbkZ7UfHaj/pjcJMDXVxuKb1Z1kmi4X5SSU0ahozNsqqb9b8uBff1c46153c3ayoW6vqBMtO3KO8/2ycrDgAAAABt3IugvCZrKpZ1s81pS7KzkuSosDbb03rzWrDftd7b7F1WT4e7CGCd9yp5/7thjmhD/gZqW+FguOPgvs+ypmJ33SYAAAAAfGKiL1+/Jq6hWnL7QBeXhpJW85Jq+/itnLFnff6asfZtSpLevZdjDNaz2r58QafOqBb6tVa81h8pPlNf7L3+PCHj8uJaoG1nZhVbO5YzMOT2PX+hKyNRL/fvWu9rys1ckd3VAQAAAOAG0QflDZuUVSuLUqDMfMNcVUGBTdWCm5HllzW163jr0fu3eVrbNr12X56NKn1to7cDZab3ddVirfqt+jOwWLtmeuBYK7Wy8PBGbtXNcZ3W1nBn9XTtWAr2J+KvUvO/Dm17zqhvlmfzZeYAAAAAHqYvJicn/5Ckx//gfiXa76XfIu0QAAAAAAAPRfSZcgAAAAAAHiiCcgAAAAAAIkJQDgAAAABARAjKAQAAAACIyP8H442JC9CelqUAAAAASUVORK5CYII=;" vertex="1" parent="1">
                    <mxGeometry x="190" y="-274.29" width="789.59" height="258.97" as="geometry"/>
                </mxCell>
                <mxCell id="25" value="" style="shape=image;verticalLabelPosition=bottom;labelBackgroundColor=default;verticalAlign=top;aspect=fixed;imageAspect=0;image=data:image/png,iVBORw0KGgoAAAANSUhEUgAAAYYAAAD0CAYAAACfHYGbAAAgAElEQVR4nO2dXWwjWXqe33EGCRzEmNiT6hUUKT3SWm5DhBaQhKhDIY4XMUBxAkklAuMAMWCkATYFyMIagnSRGs5e7miYABKEODIBsgVMsIEvPAtQJemCImDDwTpUWoYk2Fxy3ZZHmjFlWavy2mn/ZONFNpOL+junWKSK1A/ZrfcBGmiyVFXnnCqe9/u+U+T7xruTM1/80b/6TyCEEEIA4E0A+P6n/7Pd7SCEENIhvAkA/+///rDd7SCEENIh/Fi7G0AIIaSzoDAQQgiRoDAQQgiRoDAQQgiRoDAQQgiR6Ahh+MVf+SW8fBbHH/3Kl5v6+5dfH2vwV1/GN1c8x3xvpqnzEELIfeTNuzvVl/HNla9i+i3r5WefYesn33FfA/jSyFfx8tlXzRcvP8PTpd/CJz5H+uToe/hw5B186Z1ufAPA1+uccetbJbwT/ypePhvCrz3drPt3hBBCXJoShn/0D/4efvqf/Hjd7Rd//UNc/NUV34n4rIRfwxC+Jrx+6xv70p984+txfO0n7Vdj+PazIXzF92Bv42vP4u6xAHzv8HfwM7/+KYBP8cnep/hkb9883rMZIN+4aYQQQpoUhv/wr/8Z/mXfP667/eKvfoh/99/K126ULw0yiFpMMUF+Az/3LeDr39jA12GWoAghhDSmqTWGT//8/zTc/vt/9jctNeIbX4+bawZXrhvYjOHbnr81j/FL+GYYQPj7+M/57+Mr0ThervwCftGz9/cuP22pnYQQch9oShg+/r0/w6d//gPfbX/7wx/hv/zuWest+ayEX/us0R/8BH51xRaDffz3zwBYawzAGH7+HQAvv4etPQB7n+KTb23irae/gy28g2c+4kAIIcSfphefU7/9J8j+20e17//W5/ibv/vRjTTKn3+IL70F4K2fxjfD+9j6ix8A77yNn38PwJ/+BL4EAH/51/jEu8gNAHgHz57FnVdficbxMupuddclCCGENC0Mf/zn/xv/9fcu8O//eZfz3u+e/i/87unLG21YDX/5x/iZvW68jL6N6V8Ywy//lvlk0ld+dgy/+OBL+BKAP/hDcxH7l5d8Jvn3ZvAy+naTaxWEEHL/aOl7DGJJ6W9/+CP8x9/+k+A7vzOEr73TxPthMxv43l98H/hWCVsvYZaQ9j7Dc+v/v/pTPw7gB/jsT+ud9Mv4Zvht879vvYNnz2asEhQhhBAvLX/BbUE/xsLmMZ7+5h82V0Kqt5bwWQlvPd2oeXQV/9QShkvzEdStT38A4G38/Huf4peXNvDW03NAXF+oYQzffmaWlv4gv4Gnh+b+X3sWx7ffC95sQgi5L7T8Bbe/+bsf4ffPm3kK6VOhxLOPr+PL+OaKmSLYj5OafBkPf9L9vxnpu9nAJ7/+G3IZ6L1ufAXA9z79zFMeEtYapPLRb7jrENE4Xv5s7fcoCCHkPnOH33y+CvmLbH+QNyfyT771Dv7oF/4aW8O/hJfx+l+us781/b3D38Fv/tRXzbLUy8/w9KnfeoIlUu/N4GV0CN9+bx8/961b6RQhhLxyvPHu5MwX/+NLk+1uByGEkA6hI35EjxBCSOdAYSCEECJBYSCEECJBYSCEECJBYSCEECLxJgD82Jt/v93tIIQQ0iG8CQBvf/lftLsdhBBCOoQ3AeBH6X/T7nYQQgjpELjGQAghRILCQAghRILCQAghRILCQAghRILCQAghRILCQAghRILCQAghROL+CkNsHfsnOpLtbgchhHQY7REGTcfp83WowltJ/Rj76Slrwj7Gqfff83Wo0LDjt82e4H323dH8m6BGhoHdZ1gW30sXhXM11SGnXfXO588U0s/dtu6np+Q22u3xa5PU1yLSsaYaTAghdem8jCE3j7H+AfT1DyBbAozdRfT1D6Dv8Tx0pDBpbVvYNYDShrmtXxUm+Aqy1t/0ZSoIzfpNmhoSE8BBYdt5J6kfY617yzxuM8TWsX8yjerSBspNdlVNv4/RQ6t/SwVg4n23rZqOtZEjLNj9PRzGmm6rjoadlWEcLFn9XDrC6AqzH0LIzdB5wnCTpPZQhoLeR573tTBCpS3M5dy3ltUB9Kmp5s+Rm8dY/7h0rKDoc+MYm7PEKZfHgWG3dQrp2CDKuXnoMF9HRxRgKIwkADU9LbVfjQxDwSDGm8pWCCHEn/YJgxLBmlDySQzdwjm0MEKooCjN91NIxxTkP25BBG6TWBSjit3WEHoVA9UXgFmmWkVvbsMUuRgQ6lZgnJv5iZ3pZEvAg4dTDU5ACCHBaJ8wGAWnTGKXjW6GQSRswZkFslKZCYD2FFEcId9ChH97aNhZieAy42nrI7tMNYDJGh0LIf38GDPni61lOoQQUoc3292Am6dSKwYCyfAgyjnVKtF0Ahp2TuJARpz8y6gacURne5DtHzf7EuvFAxgo5oByxEBiIo7ezADGUgAwhd4u4HJvu95JCCEkMK/3GoOX2DpmugrIthRg208Q3eAib2wd+zWiAADbyB8aQGnPEbjkkwgU67VeOIIhlsi0p4gq3pIZIYS0xr0ShuSTCHCY980W7EdD1yYUd/1DD7Kaaz+qGkcIQGg2+OOjyScRKM4+8mOp+tw4soi7azDYcEtGuXmMZdC4ZEYIIS3yxruTM198t/yddrfj9omtY3+lB5ucQAkhpCGv4RpDHXLzGOuoBWdCCOlM7lUpiRBCyNVQGAghhEhQGAghhEhQGAghhEhQGAghhEhQGAghhEhQGAghhEhQGAghhEhQGAghhEhQGAghhEhQGAghhEhQGAghhEhQGEgwYuvYv0kvCkJIx9JeYdB0nJ4cYz/dGV7FaroY0INBILaOfcG7OqgXw32jpbElhLSFtgpDMqwgnykAI1Go7WzItakga3lXL+wCUW39Fe8PIeQ+00Zh0DDedYR8Ko8DDCPqjbKtbML+tyMGm54oXco4PNvc/TTsnOhIise1I1hrn7UJBRiK+x83IPrnBqD0IGS9tp3h/I6Z1I+xkxba+1wWlKR+LO0rZSN1+1m7rTZSt1znmo3gjTNA6I/dFzVd9LTdtEHdT08FGlt5jDzlKs990CnZJSGvM+0TBi2MB4d56NhG/hAYjQgfeE3H6ayC/JIZhff1C57IsXXsr0RwmXG3jc1t2ztiZ6UHm/32tg1gVpxoBpGInWHB2lYemjYn2tw8xvoHsLBrAKUNn+MGJxkelLya9blx53h9/Ru4nHgqTXyhiWEcLA2gr38ReUSQsOZqNV1EoqtgtXUReQMoZ8Yxl7u6n8kn8vg4lqDXRYkg0b1lHnOpAFh90ee2UFYEcY9FMapUsDm3ffXYajrW7GP2D6AvAyQcwZpCOibfB61cE0JIc7RJGKaQjg3i8nPzQ64XjqRyUjI8CGP3I2sSlFEjw1BKG65QiGhhhDDoeiGfxBGCgl4nGzGQT81bns8pFEsKeh8FbO/z4/pRrXBOyZsZ8ES83vZA6Oc2qhfAg4f1I2Jn2xX9LJ8bpo903YwghcmWBKOCrOM7nceBYZ8zheyuK+5qZBjYfRbIQjUZHpQyidPZQaCr17oXtlG9UBBdYaZAyF3SHmvPWBSjCqDMmkb2JgaiMUC/rv1maePmImSHbcw9bhSpVpDtV7EcW8f+Shz76bIV2WrYmR1EOWNnPBp2TqYDnVEvHOGDiQjWTo6xBpj9EqPlBv3U58ZN8bNECUYBC49tQbwd9MIRPlgxM4jeEeAgFTyyd8enlmV1AMuwy02rt3R9CSEibckY7KjfLbGYi7Z2xLm8V4HiKbnY6IUjGHYJyMuLMxhDcbneXo/YOmaGKigKc4z+uSFEqy2Qm8dmCVDs7CfWiwcwUH1hblbT087aw1U0LAcF7WdKNUtmwpqHSYtrDNIhniKKI+RtIc/NY7M0iHH9KaIXWzXZXr2xNbObqx+D1efG0bdUgHGd60MICUQbhGEK0REF5T056tM/N1wxSKlY2FWEUomwuJqbx1jGQHTFZ0EyN4+xTMUso/gu6CrufivDOFhS5XJH6hnyMKP0Vhc6l9UNlBVrrSA3j82Se8617iPkjYDH+biAB2I/xIm8YT+9Za84kFEDlXWuRihfzQJZTxayvFdBaGiw5toCqDu2+tw4sqVB6Vq7424J2IlwzVK3m/kQQoA33p2c+eK75e+0ux13gFnGqS6N+65ddBpJ/Rgz54vuYmtsHfsrwzjo5PZruikY/TclRISQdsBvPnckU+jt8rz1qAcKDFQ7VRSsBwqMgIvOhJDOpT2Lz+QKtjGXimJ/ZdVccAUAGMgvjXfkpJvUj5EYQu0COSHkleQelZIIIYQEgaUkQgghEhQGQgghEhQGQgghEhQGQgghEhQGQgghEhQGQgghEhQGQgghEhQGQgghEhQGQgghEhQGQgghEhSGm0bTpZ/6Ng1mdCTtn8O+jgcCeW1J6vZPp5s/NU7HOtJO2iYMtUb3llmL18je11fhDomtY7/GytNsv59RTjI8iHLO9QzQP5cNGIzzsvvCY3R/KnodP79iDKR9Pe2TthX9TY3q4ezrb55jCp23vY364tmv5jp6+lpvP982ufvWTKRXtMd7XvdaesfeO34NzgnPfS2ds/Fxy+fyfWLb3hLSDtqaMRi7i4KLm/Ub/pZ5fF//ALIl4W9u2ZryRvBxhQMAGGcoW57OEilV6P8Gyo4z3TbmHg94HO4M4KJqjYGGnVkg64zTIBL2JBRbx/6sgvySte/SEUZXrnZIA6xJOHaGhUzFd3tSP8bayBEWalzl5Pb09S8i3+W67CX1Y6x1b5l9qDnmKqIXrptfFnF3wtV0rE0Y7nEzQMIRFg07J6vozS36mx/VHVt339FD9/5zrUXlsV/YBaJPNGm/eudU00XT89unL2r6fel8fRlDOK7FRRU6yqgGNHMi5LZ4BUtJHlevhtGyT2RnbQ9k/wkAuSoufTe4lp02amQY8PoRpFRH1JbVAdd4x4ttA+rrt6AhMQHkP7ZnrxQmBTOc5b2Ka5v5qAdKSbDWzOVxYCjoDZA16HPjDQRYw/hQpca1zaSMqiGIk/YUUcXty7I6UMeneQq9XYbQL8vWtds0IlUfKrK/Q2pPsClNYbK/vle0hHdstTBCpY3610Ig1K0IWV6jc3qvkYbxIdfm1XQofN8SJ8u7Qsge9blxa4xMYQrUL0JuibYKgzKx2qBMUA/zw+lGdApm7InfEy0v7BpAwAngipaiN2ZF1LoGXyMdaEhMGNhs8lxO6WElgss6FpxqehqhUq2PsnOM8CCMw7w5Yb84gzEUdsdSe4qooqD3UVPNqkULI2ScoVf3E1xzMssibm6LnWEhkIvbNqoXiuP1bU+YtsjpnxuufzZsz+xgIgfUH9tkeBDGea8QYHjKRUI5M9FVwIdBrqkoPrF17J9Mo5opwLCFLKVa2dsxTk9W0ZtrECQQ0mY6r5R0JXKtdm1CcSJMX7zm8VaJIXhE5qb2IRgod4Xr1N6nESrtNW2ks6y65Q7M+mUy3kjUe96iPHnl5vGh6JcdPkPeELMbT8bVzNqNEkHvntveSzECfn7slFGyFxGsBRT6ZXUDl06A8D5wWHFLZinVOpbZ1g9whHITLnaNxlaZ6EFRLOtowjgI5cyFw2GsNTNGmo7TlR5s9o9j7oX3/WEcLA2gb8n08+YCM+lUXrlSkpp+H1EUnDq3VLe2yibRFVs0jDqlj1bQMN69h+yhgnENgDRBTSE6Un/yDkYK2V0DDx7Kk0VSj9fNFtR00az5e/qoz427gqtW0auIbZUzrqbWbowCsk4Xy6gaViYSi2JUqSBrlYuW1UXkjUFrnK7ut9ueceShSCUWd3IfwFgBeGCcodzgaPXO4R1bqUT14syN7D3oc1tC+aoBuSouMYiEmC096oFitTcZHoSx+5F5HXPzGMtUpGyIkE7ilROGULciLcImJhR3o/ZUWsj0zUKaXWOwyh29T8LAXgp64QgPwk/RK5zWPG/9Uk8wzL5IT6PE1jEzZPgKjrMQ3HBin0L6eRwPbsKHObWHsjKMqF1yscTAXWgXSzwheXyCYi02+5fjNOysRHCZa0Xo5bFd3pMnZTUyDKVOtqempxEKJEYpFEtwS3r2OoLzGlJmqz5sZYAIuRvaZu3p+AQ7VJD1TORJ/Rgz54tyLTa2jv2VCMyPlYH8roFo9561cDeF9PNVRJUGx9V0nM4OopwJXk4y22ofxzoHCtakbL7uzTW/YCiPgenpLIpLUrfKM96FW2kMXMw+yWPQTD/tsZEwCq74SNs97fXsa+y6101NF7E24WltyeqXuJ94LvOg2DmJW9G6d3z8rrXb30Bja28Xz+sd25I4/o3P6d0ujkHtvrX3OyGdwuvl+azp5sKnM7mYH8bRw8XbW+irOSchhLzavNnuBtwkZnp+JrxjljRu9ctCKRV9fLSQEPIa8VoJgz73EaLPV7F2cow16z1jdxFjnLgJISQwr5UwmM/T89lwQgi5Dq/cU0mEEEJuFwoDIYQQCQoDIYQQCQoDIYQQCQoDIYQQCQoDIYQQCQoDIYQQCQoDIYQQCQoDIYQQCQoDIYQQCQrDTRNbx77Xvcyyiqzr2CX5VMv7mvaUQW1PfQ+OHa915Y1zF+cghNwVbRMG1z/5pmllkjLtLt2J27IPbcbSsWU07Ag+1cEtTu+WpOD1LP4Lbnh0CwjezDW+zfC0ucl7TU0X77Z/DYIDrx2r3CbZ6lYKPqTxaf5+tsfAdz+nva0FLf7jK/ezKevTK4OrFu/ZOmNotl84j2AA5oyb59+rZOXKjMHGqOCy23L1ikXRe1GBcdU+QbE8hH09IUQTeR9Ma8v2i4VjsblUgIEKspZLXrPmRDfHFNKa5aHcP4CFXUi+zWq66HhQ9/UPIIt4Ex/MKURHDGQzFYTCd6EMGnZm4YxptjSIhCNkpgsfMqJ/tSuCavp9jB4uOtcGjg83JO/qvv5F5BFBImB3kvox1rq3ZOtc2Ocsmh4kmUqL3dWxNmKgLB3adhtcdNp7MLIacBJvNH6yPWxfpoJQLKBAij7dPla45RIc+9pk2HwNiNa6GyjDcIK+W/OEuQU6UxiuiHTkCMD9kJjvxxGC6/scKKKJ9eIBzlA870E0BqiRHlT3zqQ/kc/pXyo6PTnGqcdZTdxPusntfVYiUDCIhDeqEI/pF7F5xqh+5BX38Su2tt90xhbRfaOjpN74dWtsY+6x68qmF44E32YNiQnRg1vD+BCCeyzHohi92MNyag/lobBwrTXsnOhIitGpOIaajlNdq3/N65LCpCD+y3sVoKvXbKv2FFEIXttaGCEoGI2Y46fPjbsTjuV53vvI7xwh0/v7RZD2WJOp1znQQp8bv9Ir3Iya/TJ3K0NOPUO1pn0VwdZ1G/lDrwd6vUy+wfh52/VQtAZuhGXNavt0ewh1K8DeHhDWAGgYxx6KVx7z1aEzhUGKdAaQvRAindg6ZroKWBAM5O0LZ0YGsko3E22XC2fojWiIdp8hn6ri0ppoHIvNfjs6VZCwb87YOvbFqGKpIGUaZpsWkfcGXnYfPRG4+yG3tvtGZRp2Vnqw2S9GkbZYmXaYYoR5tV/xTaAgOnJmXpelAjDx9BrrIs0j+TaLWVhsHfsn06hmCoJwXH2sy70UTB/nQScqNBlEImb1s38D5aFpefIbimN8r4XoVCAZdr2ixYnMjtSzu4bkH+1Q48MtljXieFBnkrtLknq9dpRRNcSxNn26fft51TnCste2GCitTRjI1hE8GVNIDwrbkMt1YlCYQhFhJDXTD7587hWyV5fOFAZPrTExBHfAc1VcKhGstbLYKdUhfaLW3DyK3XH07onR0BR6uwwh+pSjU3NC2rrbD5wWRkjIMuwsqTdmbTOECNOXFCb760eErWEgn7LGLVfFpd2eu0DT/T/wmo7TlR5s9o9jLmCkbGcbdmS9vOctJwn9RArFkidCF8c+pV4ZWXtR00Ukugr40FN2sEs7fY/n6wi9hp2VCC4zciDkljXM0sxd1bnN88o+29B0JLBRp6SyjblUAQ9m7Xs6jOquAeO8LP/N44GGY+o/ftb93j+AvgyQaHpdxDqvJ+gDgOWPzzATO7vi8/bq0ZHCkNTjCJWE+nBJ3Gpf5I8ArcnFpJTq1grF6PxRDxQrKltW21k3bwJhfLyZ071C03E6C2TFzDBXxaUT2VvvP+qBYpxdnT1ZpRqnFDk7CEjlpNtDTRexNnIk+YfrnxvAUBwz54uOkIe6Fc+E6WaJ9e/dbczlKi1F4DeDWZrBUNya+FcRVYDQrFAakioFKqrdSlO2vH7jV0PqGfJGkKCljGrdspwZLFZfWG1+Df3eO1AYptDbBffGj61jZsjv70wVX9j1pm+NLmgrbKN6oSD6xFWf5JOIU7YwP7hht4zjWWO4FV6cwRiK+wviizMYyjCiMcBe0LuzNYYGOBOSpiNRcz3tVL25SE5NF2tFAYAZyUMoJ1j1Yqm84E8yPAjDWQB1FzPH/YYqto6ZIbl00ypJ/dh/UkvtoQy7pGGfU369f6UoAM4YnN9NYbF2jcGKusXFcAMoZ/wzADvylyPx+k8L1h0/L9pTRJX6D3u4mGscodnrPCr+6tJeYXCiBzHytyKbiVVrMbcHB+KTEZ5y0NrIkSdtNPcPzfrVBJvFjCyW1UXku9y2JroKWLDLFinVfAri5BinJ9OoLok1fXvCE6KjoBmO3c/ZQUCJYO3EE1llxD7K2z7chRXxrqI357O+cccsf1yAYV9rq0Yus43qBYCmyk9mDRpSSc0tDy6rZunEjk5HDxcDPBWiYVycdC3K54awViBkEyvDOFi6gSfG7ODHvs7S5yGFyaUjjErndLPD5BMzEPG7F+THJlfRmwv+ZIy979qE4rbLDiTEe9Me/xt4tFtsr102CxSJNxw/uSx9KmaRV6DPjZvrieKDJVdkne3LyG6WN96dnPniu+XvtLsd5L7jVxLqODTsnEyjunRPy3bk3tCBpSRyv7Aiuo4XBULuD2+2uwHkvpPCZP+rsNpPyP2BwkBIYChi5H7AUhIhhBAJCgMhhBAJCgMhhBAJCgMhhBAJCgMhhBAJCgMhhBAJCgMhhBAJCgMhhBAJCgMhhBAJCgMhhBAJCgPpKCQ/6Ng69q/1s+l1uMpPu0Vuxsv6dUG0w+S4vGq0VRhE0/SmnNgaomGnFdvPKw+rNz2JyL+H/4p8SFroZxDUdDGAMZCG8SHREP4qzMmn6fumoZ/2a8YtXc+rjqum30f0YqPWLbHxQWXvhNsICkgg2vQjelNIP19FFAUs9L9+tng2+ty41Tf+jn8Q1PQ0QqUtTLa7IeTa1NqPXk1SN53o+qzfKVTTRXyQnsJy4ECB3BTtyRhiUYwqFWTrOjTJaagYmajpIvbT60Jk4UYVZgYSlz17pahDjkjEyD2pH2Mn7VdisP0CBmWHqOvaYsbWse/JbNR0UXLf2k9rwjh4siCxHOKXbVkuW8Gj6QD9rHfOmnOZx9pPTzn7rE0okmNfbdY0hegIkP+49tdLe4XMyz6HmY3JznjOGMXWsf98HWndek+z2t1E5FxrTekiZ7reqDbq3mPS+RpFw1NIPxfa6d3XM+7ee09qzw3dt96ymPu68XHttiSG4LowBoz8y+eilabp0NeM5zO5OdojDA2N2c1sYvTQ9d3NXkSwJtzQykTEjCwsP94Zx85xAH39GyjDQH7JNRVfdo47jeqS6zl7MPK+9MEPTQzjYMnyo0UECdta0S47GAUs2J616jV/fjk3j82SgtGI/eGbQnREQTnniqUyEUdvzjzfwi4E32kNOys92HT8czeAa3vTXtXPBudMqejLVJwPdVKP48GuZaVplW0Wdg2g1KC0oD1F9GLLJ6MaRLR7y9wvU3EsNvW5cdk3uH8Aff1CRqZEMHq+iGxJQXS2B5tLBRhKj4//dXMkdcvatd97f1mnnRi27jHxHhLGt9++nopz31p7IhoDPuyv3Tf5JILLjLuveO+p6SJmzt3PysLhMD5IT+HK6+mxyPUNPnxpfFzzMziAbAmCd3ZwK82+DASb3Kt8rMlt0RZhUB8qDbaG0KvIdeblvQrQ1etGUKUN54YpnxvBfFZjUYwqYiaxiqiioPeR+yfG7kfWxGJ6ED94GGwtwLuWEDRKX/64AIxEzX7FohiFx/xc6KdeOIJhj4EWRkjyOjazJMkvOaWir/8GP1hXnTOlOv64CWwE9hY2MY3qy3t+ja0ga09mL86amNzde8jYfda0M5wpPN7Sn+kJnU/VL3/Wv4fkLHhtQqm5b92gYBtzjwekezw06xftm8GEG5n7H9cX6/6Q/91BqdMjSGJWoqaLlpPfAPoyBqIrN7XuSJqlLWsM+ucG1ibMD/idri8YBSwENRhvAnctoUlyeRxoq2Zk+HAYOPwo+HFKG9fPWpolwDkNw4BiCVjgvlii+OFrHB2q6felNTU1XcRad7B9nfvLmlTl+9hAvpW1K003y0ESLR6rGVKqs4YgY2XMmXFTxFMqFh4WsRbWALzGN0aH0p5SUuoZ8sYgEr71zjKqxqCQZpvRpHGYDzjRlFE15EwAAJCr4lKJWGl2CzQVrQZlG3O5CkJhHYkJo+HTOMknEcAegxdnMIbijaOpptcYLOr186pzajrWRo7w4eNxZC9qx1n/3JCzPoHkkwguc60IdnOZXVP4jl8KxZIilPSCE+pWgIuq8zBCYqJR1lyHlGqWSp3rs43qhYKo1mDtpN71DJAxOJmHpiMxFPC410S8lqHuFsaI3Ahtelx1G3OPF5HvivuUYLYx93gDl056vIroRTOlCWuydRYk7dp7CpNLBUBIu5t6HC43j82SUEq57uKzTWoP5aFBhEp7teUOYbFWKs/k5jGWEft4g8/j1+tno3NqOk5nFafEsqxa108co9Qz5OEuVorfVZgZqqDYYlC4/LF4TQM+pmyXM8QFVO/4vTiDASAUlq/zsuq9b4PdQ8sfF2A413Ma1d2gj8p6HsQ4iQMZt2a/rC5K41ojZi3et1J7Y2fI7hryHyqtYMYAABPuSURBVNz458H7ubfWcu46KyYAgDfenZz54rvl77S7HfcYDTsn5mN64nqAWWrYuvty0R2T1I8xc77Y5JrEXeB/XQi5D7TpewzERk1PI2QUsHBPJ59ldaDpheHbRk0XsTahwNhdxNg9vS7kfkNhaBfO4l8F2df4S36vIi0/TEDIawJLSYQQQiT4I3qEEEIkKAyEEEIkKAyEEEIkKAyEEEIkKAyEEEIkKAyEEEIkKAyEEEIkKAyEEEIkKAyEEEIkKAyEEEIkKAz3DK+XLyGEeGmrMMim6jdl46dhJ+jv8jd1WL0lzwM1Xbw574bAmL/hf5e2iPWvpWUe7/2na6j1GvB6S3i338J1JYTU0KZfV51C+vmqZHVIXm2kn8/WdJzG1qGm5qEjhcl++berTQ+GMkxzFtmHwfShqArex9vyticakONvYRNym7QnY4hFMapUkK3rv+yJFIVIXU0XsZ9eF6JQ10HLjFpNk/roip/Dlhy9iiWVpH6MnfQ69mvOae0jun3doIObFGkH7KfZLL0m0t5PT5kZyskqogoEtzVvpB11j1uTBVljfw1HOPWhaGPpwXJs87cx1ZCYAPIf+0/8oW4Fxnm5xVYRQoLSHmF41APFOIP/R9zMJkYPFx0v2uxFBGvCRKxMRICMta3k+kMvqwOmJy4M5JdsH1vbBnEK6efTqDrvL+Jg5H1pwgxNDONgydyWRwQJDQBSmOwfQF+mYpqw2/64N+CspqaLmDl3+7lwOCx5JdfrJ2Lr2J9VnD4u7BpAybT+1OfGzfYbQDlTx8t3YtgaB7Gf18UV3bUJA9k645N8EgF2n/ma86jpaYRKW7IZfcwV60RXAR92nNMbIa8fbREG9WEjk+8QehU5olzeq8hG8qUNx26xfG64puWNiEUxqoiZxCqiioLeR+6fGLsfWZNScybzZpTe7FrJFKIjChTB43ZtQpH70kw/xfG5gsb93Mbc4wH01c3m6mEJaP8A+jJAws8LuZVsITePMUE4127K25oQUpe2rDHonxtYm+hBCLjb9QWjgIWmJ7yrad3xy0B+SY7mA5HL40CLmCK3AnScC1zqGfKx99EbA+D0bQppLQLsLvpmC0k9jlBpA5MNxkKf20LiJHz39w0h94z2lJJSz5A3BpHwrdOXUTWEsgmmkI4NwjjMB5wMyqgaciYAAMhVcalEpFJNU7w4g6GYYnYzbKN6oSCqtRABa08RvdhwSlBuuUw8dvCMR+b6awzQniKqGKjmvO/VyRZi65gZMuquLdiY/tj1SpCEkJuiTY+rbmPu8SLyXXGfEsw25h5v4NIpsawiemHWzwMfO1cRFl7tkkYKk0sFQCjd1CzoNiI3j83SIBKtLD4P+fUTWFbNGv9as2Wo1LOasfP2Zfljsa+3/Zin55HU2BkWJLGyxL3O2kLySQSKd20BkNYXTk+Osda91UKJixDSLPR8fhXRdHPydSZJd8E+uIASQog//ObzK0jt4n0IvQpw+TlFgRByfdr0BTdyHfS5jxB9voq1k2OsWe8Zu4sY4/e+CCE3AIXhlaT2G8OEEHJTsJRECCFEgsJACCFEgsJACCFEgsJACCFEgsJACCFEgsJACCFEgsJACCFEgsJACCFEgsJACCFEgsJACCFEgsJACCFEoj3CUGNk36RfgKZfz0imBZL6sa+nQtuQxlD2YrheWy2jnma8Kq6J1F6vz4XkyeC5Txpt895jzfhntHrOq3DaJI+t1xq22WPXHz/7WrYwBlJ7xf2tYwrHMs9v9sl773XM54U0RfsyBqOABccj2EB05bbNZFpHTReRgOiYNuB4MbcHDTuzQNZqS7Yku+Etq247+zIVhGJNiGgsitGLDWRLgxi/iw+zpgtju4HyUFyYRDTsrAzjYMnqy9IRRlfsSXUKac3dtrAL2Q0vpQrXawPloemA99c1ztkANV00PTQylZpt+ty4dG/1LRVgwOOA1+C44r2ZRRz7lkthUl+VnP7EbYHaK9xjff0D6FPtm76CMsLWmGgYR8Vx1XPuvaUCDFSc/dv7eSHN0hmlpJSKbEnBaMS6aT3OXW52YDmFzQ4CiuB8JkZCnn1rIhUrCmomggl1e/0PBGLr2BcjQOm1hp0THWkhIgz6wWxMCpOCQ9ryXgXo6vWdoNSHCnBRDex6pkaGcbmXwvJeBaGwZ1yfryNZpy9J/Rg7mujkFjDjSKnChJNCseRakqrpaYQEZzc1MgwFtmBtY+6x65etF47qW6/GevEg8ER73XNaY+CJzvW58cDuc8knEcDrdud732pITECwRNUwPgQoI1GomEJvl2yXurxXgdIdxJxWQ2JCQTnjtYwFbO+P4h7MMdHCwN5egGOSV4nOEAYA5XPDvWlz8xgTIpXsRQQJDTAnRDMKljIO1f1g7Kz0YFOIFDF7/ZLIsmpGsq1N7IOIjhyZbV0qABNPb7xEkwx7PbHdCXptwkBWDRquTSE6YqCYApDaQ3koLLdViSDRveVEhN6+hGbDKApZzEzTY6VhfMjAQcH8SfFQtwLj3IxFk7pp7Zkt+XtZq5FhKKU9aSJzyhorEVz6TnK1XPec1ya2jpmhOt7YNX8rCF5sHfsn06hmCpZYmZ7iTrBl2avWCyBqj1sx7wPRtlUs36b2gLCGZBgopiyf9Q7N+EnzdIwwyMgewomhgMb2WhghCL7MJ3GE4LlhrRJDc6mtJUj9izgYWW0y4zCQT1mRYq6KS297romaLiLRVcCH0kRit3cAfRkgETR6154iijOrLJBCsaacVHFFJpfHgWcyED2dl9WBJm1Gp5B+HseD3Y883s8hpJ8fY+Z8UQgAvO3WfQXQLaltALPNXLPWz+mMfWAxlvHNFoDG962m43SlB5v945h74b69rIre6e8Dh5WmskfrxG4w5nk/ez6NmXN/H2/yatMxwiBHanGESkJttNTEgUryWkBf/3ityXzLbGPucQt1+1tCTRexNnIkeD/7kHqGfMBoLhmWS3SJIcjlpFvD37O6fG5AmYijN2eLzBR6uzwWpppu1cIbZQQpZHeNQMHFzZ2zBTQdiaDZAmAFGoNIxM6wYLflUQ8UwxX3SeFzkIf7Gbv6uHXumVgvHljH1+fG6TH+mtIRwqCmi8IHwvwgOjdwbB0zQ54dXpz515NfnMGQFi99aGGNoaa9NZ7L9odoCmktggYrEn4NMrOjJp+ySurHV4sCYGYBSpD6ulnGyS+JorpRW04Sj4sj5K8tuhp2TmpFAbBq+E5Jw+6L+9pdIL1qgjZr5kE8sa9/Tv81hqsxSz2GX7YA1LlvzTUZt4xoHUMqK7r7r00YAUUnhWJJCbywTl4/2icMQmS6NnLkRjzYxlyuAsVOgVd6cLBryPvm5rFZEkpG9ocwN4+xTAWhWb+F61bxPPJ34pmQc/PYLCmIrhzj9GQVvbkNBIjJBMqoGgDqLZz6YYuluADvTBpyGe5UjCYboYURMrwTfRlVQ1wrEMZ8FsgGXExthJqeRghwr7e4cJ2bx1gG8jmdvpiTvdQmYQ1IfmxyGtWlgOXDa5yzIfajn7OD7v7ivWkJUOBswWJZdcubp16BFR83DXofOMc11/ac+2t28IoylILeR001nXQwb7w7OfPFd8vfaXc77jWBSkLtJraO/ZUebN50+YQQ0nF0RCnp3mI9WtvxokAIuVe82e4G3Gty8xi7sYVxQgi5GSgMJBgUMULuDSwlEUIIkaAwEEIIkaAwEEIIkaAwEEIIkaAwEEIIkaAwEEIIkaAwEEIIkaAwEEIIkaAwEEIIkaAwEEIIkaAwBEH0ka73M9434PNwd1g/JX7tnyQnhLyOtEkYNOycFJG2HaKsibf9k2od0xzbg7rG3rBTMSf+9o9nQDS9NZESBVu8nywkT4amjXMIub90QMZgup5dZpr1Yb4FtDAe7G4gj2FEm/VlbslLul1YFqWv9E99TyGtDePAcpxb2IXkOKami0hAsIdFPJihDiGk/cKQ1E3XKe+EKkV7nmhSTRdr3b4AM4J8vo6ksL2ZySAZVnBQSCF/CIxGgu4nOrzJUauaLta0PanLbWrUz1ZKPubYrCKqQHCyE9olunpJUbSGnRMdaWvsdjTbCc4zvjWOcf7bvH30f22dY1b2mg4W3W9j7rHr560XjgS7Vw2JCSD/sePPifEhQBmJsnRGSADaKwwRHQls1Hj9qukiZs4XnWhv4XAYH9gTi6ZjrXvL9SXOAAlxIlEiSNjblwrAxFN/z+IaNIx3mdaWeuEICDyJWNF3f62lpz63hbIiZh+mr/JBYfvqfraIPjeOvv5F5A2gnHGN4O0J1M5sFrx2qQCAQUS7t7CwayA0O43q0gbKjp+1hp2VHmwKftCYtUQjto79FTd67+vfwOXEaoBSlmVWn6kARgEL9rFVa0IXRaxByQgA1MgwlNKe6S4X68UDWD7XsXXsn0yjmin4+4QTQmpoozAoiE4M+rw/heiIInkAr00oULrNj3QyPAgMxd2JYnYQ6OoVJvEKsvbEksvjwLAnNtRMNGIUq6anEbI9bXN5HLRSTqohheyukH1oYYRKW9Yk3bifJndd8jHcKNtpJ9y2S17HcYRs0XjUA0X6e9Ok/sHDa5ZuLBGT/43L7QIco3vnugvvn670YLN/HHMvrtcUQu4TbTTqMZBf+gjQVrGfLnuyBgP5JZ8JwKLc6npESkWf737mJA0ljtOTuNuKyBSQa86c3YteOMIHWhQqthEKD6K8J+YhjfvZcZQ23Ghe5LbWdTXdFH4Jz5hpOk5ngazoRZ2r4nIlgkSsgIV+S1Qf9UAxzmqyOkJILW1eY9jG3GNv2WEb1QtFWkgUKZ8bCM3qwcpD2lNEYZaHGhKLYlSpICtGpkuFJspJDcjNY/NiGNGYhvGuArLOvNq4nyatPla6jerFDUTsIi/OYAzF/ctDL85gDE1LT5nNCCUzAG4mpOlIDPns71fmuSJjUNPFWlEwd0SxBBiHeSvTmkI6Nii8JoQ0ou2Lz0AKk0sFPJh1SzvL6iLyEBYjhYVOfW4c2ZJY0vAuMAvbZoFsgDKMVJ+2yVVxqUSQ0OCWoMRFUmeythdpzdJKdKW2Dr68ZyC6Egdyclsa9fO6LH9cAJwyldsee+F+bUJxS3JBFntz8xjLVIQFbWEMcvMYyxhW349xuhLBZcadwJc/LsCwzxU7Q9a7vpGbx6Z4TQMtPmtITCiQrveJfA8djNj9Nx9w8K5lEUL8eePdyZkvvlv+TrvbcTPE1rG/0oPNmgiSEEJIUDogYyCEENJJUBgIIYRItPGppFsgN4+xV+UJH0II6VCYMRBCCJGgMBBCCJGgMBBCCJGgMBBCCJGgMBBCCJGgMBBCCJGgMBBCCJGgMBBCCJGgMBBCCJGgMBBCCJGgMNwU1k9z39TPZreO6eHQ/nYERPSKruc70TFjS8j9oK3CkNRlP9+O/uBreguGOeRKcvMYs32fCSEdQZt+RG8K6eeriEKwXnzVqWsbSq4Nx5aQO6U9GYNtpVnXXc2ytPQpMajpIvbT65Zr2jFOTwSbz9g69p+vI63Xy0I0YT+v8xtcpzZpX2sf0b1NchkT2yo7tzltqnPOpH6MnXSjUkqr1p4utmOb97x+Yyv+fb2xTQrba8avHp4xCN6f+mOrpos1x0nqwftJCKlPe4ShoTG7mU2MHi46Pr/ZiwjWBLtHZSICZKxtpUHMiBOUEkEUG+a+mQpCMXtCmEL6+TSqS7Z38CIORt53JxtNx+msgvyS6y88mQKAFCbtUodRwILtPazaIew25h4PoK9/o7Y/sXXsrwzjwDmm198aCE3Y202bz8QNltPUdBFrI0dY6B9wbC3VdBEz5+7YLhwO4wN7/DQda91brr9yBkiINptKBAl7+1IBmHgazHvbLhcJ1zNYP+uPrT63hbIyjKgjFhrGBZ/phv0khDSkLcKgPlQabA2hV6lgU/DnXd6rAF29bsRX2rAmbaB8brhG8wCACrL2pC2azMeiGFUU15f4ZBVRRUHvI/NPk+FBGLsfOT7FN8KjHiilLeGYpkn9g4fuBOWecxvVC3mbMzEG8K32Epo9Nid5ad8pREcUKI4XtOn9bI9fMjzo+kDbWZI47uLY5vI4MBT0isJaNxuTM7XEkLefrZBCdhcYjdiiFkbIGevG/SSENKYtawz65wbWJswJ+07XF4wCFlqYZF9FyplFVGOr2E+XnWzBxEB+abyuAJYzA47oNkWDdYCkHkeotOFkWUn9GDMtnMKLXjjCB1oUKrYRCg+ivCcWixr3kxBSn/aUklLPkDcG5TKFQxlVQywPTSEdG4RxmL/ehJ6r4lKJ1C0nLO9VoDQqjYjZR1BenMEYmnbLVbF1zAjljqu5zhrDNuYee0tX26heKIhq/scrnxsIzerBykPaU0RxhPyVE+8UersA49wqBsXWMTMUsAtXkZvH5sUwojEN410FZB1hatxPQkhj2vS46jbmHi8i3xVH7WKvO6E5JZ+LDU/U2wopTC4VAKG8IC2uplQs7CpI1Ht8NjePzdKgu90RNbtMEkcIdqnKWijNzWMsY7jlq5UILjN3GcWafX4w67Z3WTXXMtZ8+qnPjSMr9rGmJCRsm0WDhwdEtjGXq7hlnZUeHOwa7ma7BCUu7jtC2GBsLZb3DERX4kBObkujfhJCGvPGu5MzX3y3/J12t4N0OrF17K/0YLNfxXK720IIuVX4zWdCCCESFAZCCCESbfrmM3nlyM1jjE/4EHIvYMZACCFEgsJACCFEgsJACCFEgsJACCFEgsJACCFEgsJACCFEgsJACCFEgsJACCFEgsJACCFE4k0AmFEn290OQgghHcKbALCp77S7HYQQQjqE/w90PujorJZbwAAAAABJRU5ErkJggg==;" vertex="1" parent="1">
                    <mxGeometry x="410" y="10" width="330" height="206.46" as="geometry"/>
                </mxCell>
                <mxCell id="26" value="" style="shape=image;verticalLabelPosition=bottom;labelBackgroundColor=default;verticalAlign=top;aspect=fixed;imageAspect=0;image=data:image/png,iVBORw0KGgoAAAANSUhEUgAAAy8AAAE5CAYAAACZPR+fAAAgAElEQVR4nOzdf1RU57nw/W/6xmWcqoE6AaoZhYkUCErUQYlaIFoNPgkIus4aH59qY5toa3xpghpL7Wldticp9UdI6kFakjQ/tMdH/lAR6tIkR6Mc9aigKRHBooNKRDFDQDFj+nrWyvvHzN7sGWaGgZkBRq/PWi6Z/eu+Zxj23te+r/u+Hxg7duw3iG5FRERw48aN/q7GfUk++74nn3n/kc++70VERADI594P5PveacmUMQx/6EH+o7oJ61f/X9DLk8++78lnHhgP/K/MHAlehBBCCCGEEAPegzeuNfV3HYQQQgghhBCiW9/q7woIIYQQQgghhC8e7O8KiMC6efMmTU1N/POf/+zvqvTI4MGDMRgMPPzww/1dFSGEEEIIMUBJy8s9JhQDF4B//vOfNDVJCqMQQgghhPBMgpd7TCgGLopQrrsQQgghhAg+CV6EEEIIIYQQIUGCFyGEEEIIIURIkOBFCCGEEEIIERIkeBFCCCGEEEKEBAlehBBCCCGEECFBghchhBBCCCFESJDgRfht2bJlVFZW8sQTT/R3VYQQQgghxD3sAZPJ9E1/Fa7X68nKyqK8vByr1cqCBQswGAxdtrtz5w47d+7EarUCEBsbS0pKCrt27cJms3V53Rdc63r37l0uXrxIfHy82+1bW1vZuXMnWVlZXLhwgbq6OubPn8+JEydoaGhgwYIFtLe3c+DAAb/qVV1d7df+ALNnz+b3v/89v/zlL/noo4982ufDDz+kubmZJUuW+FW2yWTq0fYZGRkAHDhwAL1ezw9+8APKy8vR6XQsWLCACxcuuP1MXb8zJpOJGTNmOG2j/M6036kFCxYQFRXFf/3Xf/Hkk08yZMgQp33u3r3Lvn37aGho6La+fclkMqHX6336LHqiP/72hBBCCHH/erC/K6C1c+dOn7Zra2sD4MUXX+TQoUPcunUrmNVyS1vXjIwMwsLCqKiooKKiAkC9cfYlmIiNjSUqKgqDwcD48ePV5a2trbz77ruBr3w3pk2bxtmzZz0GLh9++CETJkzosnzChAncuHHDaVlRURHr168PSj11Oh2PPPIIJ06cACA8PJxBgwYBYLVaKSoqIiMjgx//+MddghBX1dXVTr8r5aZc+fmZZ55h0KBBfPbZZ+zcuRO9Xs/YsWMpLy93Ou78+fO91rm6upr58+cTGxvrMcAJhurqahYsWEBGRobPgVNGRkaX72N3n2Ooio2NZcaMGezatUt9SKJYsGAB4Pv5SQghhBDB8+BTTz3FJ5984nblU089RXNzM//4xz8CXvCKFSvUp9ZLliyhqanJp5sDJVDYvn07JpOJpKQkTp06FfD6dUd5sj9o0CBu3rzpVHedTgfA5cuXuz3O4MGDmTx5MhcvXmTkyJFub56CRRuE7Nu3D4BnnnlGXa8NRPbt2+fUqhLMoMRXo0aNAuDq1asADB8+nC+++MLp5tr1Rt21heXFF1/s0rLnqqGhgTfffFNtNfGVXq9nwYIFXVpnALKzs51ed9diEwjl5eVkZWWh1+t9/o599tlnHDhwwCmY60+un2l3v7tAkKBFCCGEGDge3LRpE+vXr6e8vNxpRVZWFuvWrWP16tVBCV6Kioq8Pu305OrVq4wdO5aXXnqJffv28e677xIbGxvw+nXHZrOxc+dOtYUFut5YKTf73m5Mo6OjsdlsVFRUYDKZWLJkSZ8+4S4qKiImJsbptWtQ8t5773k9xhNPPMG///u/s23bNkpKSnjiiSd45513KC8vD2qAM3z4cKKionjxxRedlmtbC7SUALm6urpH6U6uLRDjx4+nqqoKvV7fpey7d+/y2Wefqa+V70lfBaTeKHXxx/z584mKiuqy/MUXX/T5AURvKYHnoUOH1Fay2NhYxo0b5/EBjBBCCCHuLQ+uX7+edevWAagBjBK4rF+/Pqg3BUajkeHDh7NgwQJqa2tJTk72uK3yBPjs2bOcPXsWk8nE97//fa5evcrw4cPVdKG+8uMf/5gRI0YAMGPGDGbMmEFVVVWXm1WdTueUSqS9udu+fbvTMZXUJZPJxIIFC/otRUfbIvPpp5/S3NzcZZuhQ4dSWVmpBix37txh2rRplJSUEBERweDBg7l27VpQ66lN9dLpdGRlZfGf//mfvQoUtKlhitbWVsDeenPgwIEu/ZJ8/dsICwvz2AIDfdPqorR0tra2curUKX7wgx90+ZvRBmJNTU20t7d3OY5rsNdXfV70ej0mk4mysjKnz6mhocHptbYvmmurjOvDBU/BltKqCqj91LS/d20wG+yATQghhBDOHlQCFiWAUX521xoTSDqdjkGDBqk3iIMHD2bTpk3qOm1ndndc+yj0tXfffVet56effsqECRPo6OhQ1ysdpCsrK7vs62lgAoVyM9uffQuKiooAmD59utv1t2/fdgpYmpubGTlyJGDvM/PPf/5T7YvSF0aNGkVUVJTbAQO0wYHrZ6/csNfX19Pa2tplEAiFXq9Hr9fz8MMPq7/b7lp4FO3t7WpL46hRo9SgRwnAgx24QGdLZ0pKChaLhbNnz6rrPAUgyk268j5bW1sxGo1MmDChzzvojxkzhrt376opgu5kZGSg0+nYunWrOghDVlaW+rtQBstQghBPfYCysrI8tlKZTCZGjhypltHTfkRCCCGE8M+D0NniogQwwQ5coLO/AkBlZSUmkwmdTud0QzR8+HCWLVvGoUOHaGho6JK+48o1haevnooOHjxY7fviK23qi5ZrS81AdvToUTW4aWxsZNy4cTzxxBPExMRw9uxZ/v73v/dZXcaPH8/Fixe5du2a0+eq9ItSbnqV74NrgOwarLg+0VdungcNGoTJZGLXrl1OT+Kh+xHE2traiIuL46WXXuJ//ud/sFqtvPnmm4H5AILEtc+LxWJh1KhRpKam9vkNu81m8xgw6fV6xowZw6FDh9Rt6urqSEhIYNSoUQwfPhzA6WHC6dOnSUlJUfuoAaSlpaHT6Ty2yCQlJVFTU6OWceHCBcaOHRuw9yiEEEII7/pttLHx48dz+fJlHnnkEdrb29m5cycmk0kdwQng1q1bXL58GaPRSENDg5q+40rpxN9f6Ru3bt3i3XffRa/Xq8u0P3vjSyvTQPP1119z7do1GhsbycrKYvbs2Vy7do3Bgwfzve99j8cee4xt27b1WX1iY2PR6XQcOXKEJ598Ug2C3d1salvLuqNtPRs7dixWq5WvvvoKq9WKyWTy6ebdZrMxZ86cLv1EBg0ahMFgYPXq1UDfdDwPlMrKSnXEtL6k0+m6PODQunv3rjoSIdg/+7t376qBi2vw09bWxqBBg9TgZciQIRgMhm5bPZU0UYXSeiyEEEKI4HsQnPu4AF36wATDl19+yeXLl0lKSgI6c9oPHTrktJ3FYmHGjBkeR0iKjY0lPj6eQYMGDaj0jbCwMLUjvzc6nY6HH35Y7b8zUKxYsQKgy03+E088wUMPPURjYyM3btzgzp07xMTE0NjYCNhHqAP6NGVs0qRJ1NXVYbVaOX/+PPPnz2fXrl1q+o9rC9fdu3dpb29n0KBBZGdnc/fuXbetREoAmpCQAMBXX30FoPZLUgIPhdIqqLSqKUM3d9dPRGkdCpUhiG02m9pfq68CmMuXL2MymRg1apTHIH/QoEGEh4c79TcbNGgQt27dYvjw4V2Cn/DwcO7evYvNZiM8PJw7d+7wj3/8g6effpq2tja355u7d+926XcjhBBCiL7zoDZw0QYrwQ5gPvnkE6fWCZPJxM2bN2loaHBK42hoaGDSpEmMGTOmy81ERkYG8fHxTv0ZlFHI+uPmwmq18u6772IymTAYDERFRXHr1q0uHfO1LUQ/+MEPuHz5MmFhYUDnjaHSaTjYrUlKkKIMlazQjjqmHW0sJSWFIUOGcOPGDf7+97879XsZP3487733HhcvXuyzlDFlUkslQFF+70uXLuX69etdPj+dToder2fChAlON6I6nY6YmBin1EOlr8zgwYM5ffo0RqNRXaftc+Upbczd0M2utEF7XwYvGRkZWK3WbvuNufZ56S9Wq5XLly/zzDPPOP19a/sR3bx5U30IYLPZSEhIYNCgQVy9epW2tjaefPJJp3S3SZMmdfn9nD17lsGDB6t/e9pzjs1m44svvnAqQwghhBB960F3gYu2D0xHR0fQhyEdM2YMY8aMYdeuXeoybQqIkleu3GgpQ6a2trby1ltvqTcRO3fuVEeNcnfj2hcWLFiAXq9Xb/gXLFjApEmTutRF6b+jTLLpOoeGNoALJtehkgGefvppj9v/y7/8i1Nwot32iSee6NOUsdjYWLX/CXR+L+7cucNf//pXfvCDH7BixQqnm1CTyYTNZmPMmDE8+GBn1qTNZut2QlBt8NIdnU5HQkJCty1QVquVkpISn4/rrxEjRqjDGvvSSjmQ5nk5cOAAVqvVaY4cZVhxQB26XAlAtUOOa4c2V4Ix5b25KycsLIwf/vCHXYJ6ZdQ5bZDrqf+aEEIIIQLvgVWrVn3TH5NUgv2pc1ZWFuXl5VitVqfhat3NdaLcnPrSEd91WNtAU0atUvoqjBkzhhkzZri9IVL65Fy4cEHNlddup7SyKEMvKzzdXHnjz03Ue++9R2Njo1OLizJpZVFREceOHeP3v/89v/zlL3nllVfU4ZS9cZ3csjtKS4ovFi1axIkTJ5g0aRIGg8Ht90I7PO5nn33Gt7/9bT777DOfBoAA50EflBYWZbZ6b0MfnzlzBr1e7xSQa8vrze/WX0p6muvfVU+HO3Ydcrg/3osQQggh7k8PmEymb/q7EiJwQv0JcE+CFyGEEEIIcX/5Vn9XQAghhBBCCCF8IcGLEEIIIYQQIiRI8CKEEEIIIYQICRK8CCGEEEIIIUKCBC9CCCGEEEKIkCDBixBCCCGEECIkSPByjxk8eHB/V6HXQrnuQgghhBAi+B7sfhMRKu4ODud/XjwMgx/u76r0yj+BxmtHiTlb3N9VEUIIIYQQA5C0vNxjHnjggf6ughBCCCGEEEHxgMlk+qa/KyGEEEIIIYQQ3XnwC2tbv1Ygxmik0WLp1zr0RsQz/0bmY/+gYssH3HBdrj/CXz74sN/qJoQQQgghxL3owf5OM3pw0KDQSnX6/q/5f58dC1zgyC+38cUDD6Ct/f8z5GG+/e0hofWehBBCCCGECAEPjIl+rF/Txr4Xn8A/6uv6swpCCCGEEEKIEPBgfzcQfOtb36K/6yCEEEIIIYQY+B78pp+76z/wAPR3HYQQQgghhBADX7/3eYEHpH+IEEIIIYQQolv9Ps9LYAOXLIpPNFCRb3811PwBqbnmAB7fvYjcckzm5KCXI4QQQgghxP3sQb+PkJjJi2kjgWaOFFdw1s0m47KWkfZoB2d37eBIi98lejZvDiY+5NWCIJYhhBBCCCGE6Bd+tbxEpS3kxYlt7DrS7HWbNJq56k9BGtnFx2gsy3e7bu2Sp+H0fsoCVFbv5FNhOUbxvH6thBBCCCGEEPccv1perh/ZwVaAxEz3G0ROZ1ZiB0eKG3lseZI/RQGwtqyBpVEf8nKKu6aVfKaNP8ee7HKX5aOJXleOIQygnvN5r3ROKmlcjSk3HZ3jpXVPFnWH7T8PNX/AxKnh6lFsx9dTXVqlvo7ILSfO2FmKTW1RKiBzlYGTmxuoiIslU1qBhBBCCCGECIgg9nmJJG12Ih1H3KeS9Yy9L8tS3iEmZYXblpXs4rlEHHib11xXGNMZ8kkWlXlZnLfEY1D7pphJyI2kKc++rjJvG+RsJMKx9nbpjxzL7etsUxeo6yJyy4ljm7r+vMWlzN0rmGJ8B5Y1cLI4y+93L4QQQgghhAhEnxcPotJmMvpKGdtr/TzQvCJObn4aDqwkZrlrq4oin6UZUL3KzXrLNrU1xdbShi7SCFRB+mT0xKMvLCdO3biNO0bAAqRvJDUnXnMgZZ2ZEcY2mraUdlPxAjKNtRSfeJ3GE3N42UPQJYQQQgghhPBNkIKXRFIShzGcbF5M7Fw6av4yxn1+lK3lPYhodq9gyu4sexBQlkhMtps8rPypJH62l8zdPaymZRuVboMQMwk58Zo0MjMJhR5S4zzKp8LyPBFegy4hhBBCCCGEr4IUvNRSVqwNUBLJXp5EW69HGytneUo5a8saaDxhcGnFyKJ43iPsL+hh55KmFmw5i0lIL1VbZlTG0ehoo7XJ/nKoORM9YH9p4U57OCOSk7lkqWKo+QPijNo+L6itRTdKYpkifV6EEEIIIYQICP+CF3WYZLu05ctI66hl1/ajXPe3Zm68lh1LbfEx3ijLp0xpgcl/gTmc4eUet7psonpPJKk55aTmOJa1H+bM+k3ctmyiyVJOXG45BgDLYZralQEHqri07TAjcteROhWwbOPM8UxN6lk+FZsnUr0qluU9rZMQQgghhBDCoweiY8Z+058VSEgcR11tb7v029PJDLtlVC8hhBBCCCHudUHrsN837OlkQgghhBBCiHtfEIdKFkIIIYQQQojAkeBFCCGEEEIIERIkeBFCCCGEEEKEBAlehBBCCCGEECFBghchhBBCCCFESPB/tDF1rpdmjhRX0DnocSLZy6czSrvt50fZWl7regQhhBBCCCGE6JZfwUtU2kLmj77CriMwP83dFh2c3bWDIy3u1gkhhBBCCCGE7/wKXq4f2cFWgMTMwNRGCCGEEEIIITwI8iSVwxg3fxnjAGmFEUIIIYQQQvgjiMFLLWXFnf1botIWMn9+Jl869YsRQgghhBBCCN/02Whj189f4VZfFSaEEEIIIYS45/RZ8DJuSiLDP2+UVhchhBBCCCFEr/iXNqYOk2yXtnwZaR217Np+lOuuQyXLMMlCCCGEEEIIPzwQHTP2m/6sQELiOOpqpT1GCCGEEEII4V2fpY0JIYQQQgghhD8keBFCCCGEEEKEBAlehBBCCCGEECFBghchhBBCCCFESJDgRQghhBBCCBESJHgRQgghhBBChISQD14icssxmZP9P5BxNabCjUT4fyQhhBBCCCFEEPg3SSVoJqps5khxBa4ztkSlLWR+4jD7C5moUgghhBBCCNFLfgUvUWkLmT/6CruOwPy0ruvHZS0j7eFadhUf5bo/BWlkFx/jjZF7ickuCNARe2FeESc3P8oeYzav9V8thBBCCCGEuK/4FbxcP7KDrQCJmW7WJvLYo80cCWDgsrasgaVRH/JyinPgYmsxklC4Dj0A9ZzPe4UbjnURueXEGZUtnddhXI0pNx0dnesBhpo/YGJCDWfWb+I2AMlEr1vHiLr1VJdWwe4VTIkro9FyDMOqaSzfHaA3KIQQQgghhPAoeH1eEmMY1dHGd7KW8eJy+79FaZG9PFgWxScaWMo7xKSsoMxlrT4nkztbsqjMy+K8JR6Dow9MRG45cWyjMs++7szxSOLWrWYoOAKXJFod+1VuOYzNcbzbpRVYw5LQK0GP8SlGhNXTVFrVWWhBNjGrzmDa3EBFfi/flhBCCCGEEMJnwe2wPyyRcEsJW4tL2Fp8lI7EmfQ4fplXxEnL65hOr/SYKmY7/kcuWew/36ipRxdpBJLRfaeNpr+VqtvdrqrBFhaJDhianITOUqHu56yUpuMwItkeBA1NToLjOztbbBS7VzDF+A4sa6CxTCIYIYQQQgghgim4wUtHLSfU/vlW2jqGEa7v4TF2r2CKcSXVk17v0wDhdlUNTF1ABMnoE6C1qqrrRvOKOGl5Hkpi+7cPjhBCCCGEEPeB4AUvtY1cHTaa7yktLZFjGT2smYu9GmysnOUpsbzF8zSeKCLb43bJRD8Vj7WmFKjC9mU4hmfN6tqIZ9PRWU5xA7jd0gLGyY6hkc0kOPV9ASybaLLEMyJ3AYYv3bTQ5JfRuHki1atiyZS4RQghhBBCiKB7IDpm7De93lsdJlmjo5Zd2x2d9J3Wd3B21w6OtDhvnpA4jrpa1wGWPXMdbcy5Qz7Yjjs61QNKR3tDmONl+2FNJ3ztvm00balgSO5kWrUd+tM3kpoTj3VPFnWHNZWQ0caEEEIIIYToc/4FLwHQ0+ClT6VvJDUH5xHKhBBCCCGEEP0iuH1eQpo9Bc3mrqO+EEIIIYQQos/5Nc/LvUpNJ7Nso7LUTUd9IYQQQgghRJ+T4MWNG1uypLVFCCGEEEKIAUbSxoQQQgghhBAhQYIXIYQQQgghREiQ4EUIIYQQQggREiR4EUIIIYQQQoQE/zvsqxNRNnOkuAJlxpaotIXMTxzmsrH7iSrvOekbSX2qxWlCTCGEEEIIIYR//ApeotIWMn/0FXYdgflpzuuuH9nB1iOaBZHTWTQ/nC/7LXDJp8Iyl6ZV01i+u7/q4Id5RZzc/Ch7jNm81t91EUIIIYQQoh/4FbxcP7KDrQCJmd1uO25KItSWqS0zfWpeESc3P82NkliXwCWZ6HXrMIQ5XrYf1rSWmEkoXIzescp2fD3VjjlfInLLGdFyGN3UdHRO+2n3iWdiYbp9Z8s2KreU2n82rsaU69gPsO7Jou4wncet2QY5yjHqOZ/3in3Y5t0rmBJXRqPlGIZQDcCEEEIIIYTwQ9/M8xI5nQmPNvNpeT80u+SX0bjsEfav8hC4fLmNyvWlLjslE70ukztbsqi0KK9/TrTxR1yy2LfQT02iaUsW1RbHcdI3UXe4lLq8Ui9pY2YSciNpylPmkTGTULiRiMOvqPPK6HMmcz4vizrswYzBnMwNZaLMgmxizhdxcnMDFXGxZBYE9JMSQgghhBBiQOuT4KW/Wl3WljWwdPw53jJO65pqZXyKEWH1nO8SuCjrwtHllmPQLLYaAEfwYjv+R0cgU4XtSxgRmQxUea9Q+mT0xKMvLCdOXdjGHaP2uDvVQMbtZJm7VzBldz4VlgYap75DTLZEMEIIIYQQ4v4Q/OAlMZO0R5s50g+tLq9lx/Jafi9TrZxSyAJIm0LWG5oUuBiJW4QQQgghxH0kyEMlR5I2cSS3ak/1T18XsKdarTqDaXMDFfma5ZZPaG2Px2BO7rqP5Qq2sHTi3K3zRVMLtrBItV+L03LjYhLSe3dY8sto3DyR6lWSMiaEEEIIIe4//rW8qMMk26UtX0ZaRy27th/lOkDiZMYNa+ZIf4+NrKZaHaP4vNICU8Wl9dsYUriO1KmO7dTWllLqtozGlKtZp+083x3LJpos5cQp6WFKa4tlE9V7IknNKSc1x7XMbswr4uQy3KfACSGEEEIIcR94IDpm7Df9WYGExHHU1fZbu4wQQgghhBAiRAQ5bUwIIYQQQgghAkOCFyGEEEIIIURIkOBFCCGEEEIIERIkeBFCCCGEEEKEhD6ZpFIMDI2WBo/rYoyxQS23p8fX7tOb/YUQQgghxL1Hgpf7jLsgwFtQ422dt2P2hrYsCVaEEEIIIYQrCV56I30jqTnx9p+VOVx8YVyNKTeSJl/niwlEmS58CUa0XIOInraCKOW5K9f1ONqWFk/H8bSvV8bVmHLT4fh6qkurfN+vv8wq5FfmBC6VzuGvH3vaaCE/LJmLdcNCDlzo7oAjKV0Tj/7MKWZajdTM1vHx9uOsbA5stQPlmdlTKZho4/0NFkb9dDKz2upJKg1wZfPLaJz3OS+nrKAMiMgtJ85oX2Xdk0XdYd8OM9T8ARMjK3r199jbMr3y5xwjhBBChAD/gxd1ospmjhRXoJ2xJSptIfMTh6mvb9WWsb2/J6wMhMOvUHlYuXEJnTL7ujXDW6DjaxDl7hg9DcD6XjLR69Yx5JMA3ZD6rYPPb4JefW3j6gANXAD2WW0UaF5b2zoCXsbaqY9TuzubMsfrG1uyuKH83gJemnv9UaYQQggR6vzqsB+VtpAXJ7ax64ibO6HI6cwafYVdxSVsLS5ha/FROhInM86fAvtJdvExGsvy+7saXuRTYTlG8TzPWzRaGrr9F0hK0OGpFcVT+pq2pca134u3fRVryxo4WZzlvNCyieq8rNBodQH4OI9Xl3lrdekdq7UDWr7CGtjDBsfNr6ijg6ttLsvnFXHSUsbabg/g5W9iXhE5489xrMDNuoEiEO8zaGUKIYQQ/cevlpfrR3awFSAxs+vKlnY6hk1nVtoFth9pISotiVEdVzjhT4H9YG1ZA0ujPuTlFF/vdMwkFC7WPOWu57w2haO9BcwfkDo1HACbUyqT8742n9OcCshcZeDk5gYq4mLJ9FBVbzf9gQ5elLKUAEYbyHiqhy8d9D2/hyyKT7zOnOvvELO8XF3qLTUnIrecES2H0U1NRwfQfpgz6zdxG3sLVxwVtCYsxhAG0EbTlh9xyULX1BzNa5v5AyY6frfklJOa47KvV5PJ+MPvSA6371PVJSVsIT8seY5o9XWbj4FIByv/fNDx8wVmbnBZPXIsBxeNVr939R8dxHwG7Olmj/D5GR2zJtrbBqxnTjHzow63+3HzCvl/vsA+l/3qP6qH2fHE08r7G/7OZq9lAmf+TpLj532lB+3bK3avYEpcGY2WYxhWTWP5bjdvd14RJzc/zY2SWLfrs5+eCAd+z2vdfm4OjrRDnfJa8z0BsLVA9Lryrt8TN/v6nB7mz/v0co6JyC1nRM02yFHOM5rzky9lCiGEEP0siEMl11JWXMaV0dm8uHwZ8x+uYev2o1wPXoEBlkXxiQaW8g4xjrx435RSl5dFpePfmeORGMzJnavD0omLrLCv33IYpi4gArCnGmVyZ4uy73paE35OtNHHYnevYIrxHVjmpuXBjb5OvVICku5S11z7yLjW032986mwvI7p9Episp0jtxtb7J9lU7v78vRTk2hVtiEdQ3rnOt3UxQz5RPk9guFZs/c3Cdwu/ZFannWP8rv0JXABOMWBX8zh1WXvc6nLOnvgQukcXl3muo39u9qlNc2n1sKRlC76Nn/bcJCkDQdJ2lAPs59glbp+BLOMX5C/4SBJ26/ARGPnuuYLzFT3O8j7baNZMlGzX/hl8s/cIX72GD7fXk89OkaN9KXMbhRkE7PqDKbNDVS4vsX8Mho3T6R6lacgPp+lGV+wR70JfgYAACAASURBVBPgdsvRcqf8TZ//0tfviZmE3Eia1H23Qc5Gx997EN+nx3OMnT5nMq3Ke7HEO5+fvJUphBBCDABB7LCfSPby6QyrLWPrEUhblM2Li8LYFQoBjOOJJgdWOj3F9409h93+FNbBYgSUFpR6ziudey2f0Nr+c3RGgKcYERaOLrccg2ZXqwHw6cYXoIBMYy3FJ16n8cQctTNyf/El8PDWwuJpe6eWmfwyGpc9Tm1JLFN6kQZkO/5HR2BRhe1LGBGZjPq7smxTn5LfrqrBtng0Q0F94t6nZk0huu0Q77lNJStneUpPv6cOEx8hnhHEr5nJc+rCO3xu78YG3OHj8gvsA2i2YeURewDSDMpAAPGaw1nbhqnH+Pi/miFxDFy6zMpmULu0d1umD3avYMrufCosDTROfYeY7AJ7K+n4c7xlnOaxVSW7eC6Jn+3FTVuxF66tqWBr8eF7kj4ZPfHoC8uJU/ds444R3/+me/U+PZxjHGXaju9UW4Lt/W66L1MIIYQYKIIXvCTGMKqjll2ODvpHth8lfHkS34s8yvWB3md/9wqm7LanITWWJfbo4j3U/HMMHOZMXmf6kc8d7F3SUXounwrL80T0KugKHG16WE867btLL+u2haggm5gC+43WyTErmdKP77v/OFLmHnFZ/JmPN56Xejea1ypzPPGafVeZZ/Ksrzv3skyVJmUqxvEWX8uO5bV8b2lPWcyZBPsLenYzHpG7GL1mhL8IlwcMXvkxMiDQy/fpJzdlCiGEEANFENPGgGHhnU8rI8MY5m3bAaec5SmxvMXzNJ4oItvHvXSR4fDlFUcAYsag9H9wJ30BBmqwWgDLFWxh6cRpUzh6Yl4RJy3PQ0ms2xt4bQChDRK664fSG76kh3naT8v3YZkLyDSupHrS60EbWCHi2XSo+0QTWEY6WsySiV6s6Q8BKK04ushe/i7duXSd9vAJjBsL9r4x2r4v9u+q8rmr/3wJXFq+whodT+nE7jd1NoxR4ZqRwEaO5dlo73v4X6aDt5Qpr6lWLzDn+t4e3uwno/sO2FoczRbG1Ri8pHI6fU+aWrAZF5OQ7nl7r3r7PrW05xh/yxRCCCEGAP9aXtRhku3Sli8jraPWnhpWW8GuEQuZv3wZaY71V4+UEGojJb+WHUtt8THeKMunzHEzOFTbKZvFpBYuVp+w3vjbYQy5jmW00XS8HpxaXuKJU9NI6jmfp7S0lFK3ZTSm3HWkTlW27exM661MyKfCccPh7cbMNVBxHckrWEMp97Z/Tc867dtTp+yjjdU6AjiXFD5HB3qfO00bld8j9s9aGTzBsokmSzlxjifw1j3bsOZMdtrV/j1Qfpe+dth37pAfvWY/yWrH/T+wp3IHS9bsJxm4VPprqmav9OFNdKP5AjM/+jY1s2dSM9uxTO14700HK0+2UjN7MjUTAVr5+MwdJgS1TOxB+jK8poZ1pj0do/i80jKRRfE8+/DIXXn7nlRx6ZN6DDnK77KepuNtjNDu7uV7Ur0nklR14AY0ravdfDd7/T7B8zmmG76UKYQQQvSzB6Jjxn7TnxVISBxHXe3Z7jcUveZrcOLa0tGToMNbalhP13mqR1/OU+PP5INiAHKZlFIIIYQQoUmCFyHckOBFCCGEEGLgCW6fFyGEEEIIIYQIkCAOlSxE6Lpd+iMq+7sSQgghhBDCibS8CCGEEEIIIUKCtLzcR7x1wA92Z3jfhz1232G/LzvrCyGEEEKIgUmCl/uMp9G9PPFlxDFfRgzr6XrX40sAI4QQQgghJHjpjfSNpObE23/uyQzaxtWYciNpcszd0idluujpnCu9nziya1m+lO3p+H0euBhXY8p1TD6pzs0xAIz9BSvWzIDKX1O07ZTHzZLX7CflmvdtFKvMM3ku/Ar5f7axZE08+jOnmPlRh/NGI8dycNFocLfOjWdmT6Ug/DJJpc29L7MPJa/ZT8ZY+8+XSufw148Dc1z/3qeOVW8kkM41fvtyM1WBqVJAykz+WSK/0V9j7r992e0Rzf9q4llrHc/9yRbYqoaUkZQqv3+rkZrZOj7efpyV7v88eimL4hOvY9jt/wSjEbnlxDkmY/V5XqwBYm1ZAznNK93M9eXrfFt2EbnlGFrWU13a07+83pfplT/3D0LcY/wPXtSJKps5UlyBdtDjqLSFzE8c5njVdX3IOvwKlYeV4XRDp8y+DAD8Lau7QCfo78Wyieq8Tfag8akAHzt9I6lPtQyYgKiu7Q6Ed762WoMfRAStzFmF/Gr2dd77xR+42oPdqjbMoYrJZPzhd+gDUxOgfz7b/mEPeiIPVrNmb1+VGU32kTwm6eH2x4Vs/Pklx/IZvHAuB4Pr5mf3sM7cqO7jxPrfvJ22g6ag1bWDz2+i+W7ZuBrQwAWYNwcTH/Kqn4ELwI0tWdxw3IQP8f9wGmYSCjO5E6gb+i7ymTb+HHuyyx2vq7i0PotLjnL7Rn+UKcT9xa/gJSptIfNHX2HXEZif5rIyMZP5iR0cKd5hD1gSM3lx0XSs249y3Z9C+0F28THeGLmXmOwAXBWCIp8Ky1yaVmln2XbW2/Sv3upNedp9elsX56du96ALf6Bo2R8Cf9w2G/voYNZNeNTd+uYLzNxwoW/LvFf0+n3a2PxyNZuDVK2BU2Zv2AMU/lLI6bl5fM9p3SHefvyQ05JppW8y/XojcImytJecJio1/PF3vBB1PYiBSyertQNavsLKt52W+3re8nYtWrvkaTi9MmQnYfX5OjuviJObH2WPMZvXuhxjLomf7WVAhwxe6u+s++t64MsUIjT4FbxcP7KDrQCJXU8VUSOGcav2YGdLS20jV9Ni0ENIBS9ryxpYGvUhL6f4GriYSShcrHnCVs95bTNvewuYPyB1qv1xrO24tlnaeV/ndd4UkLnKwMnNDVTEeU4Z6K4PSqC566uivHZXnutydylkntPW7CkTc66/Q4z2BkCb/gVdUu606RE9Sg9zOa5raoXTcdXvgPb3G8/EwnS3dfKku9Qm7XqA9mu+vBHY99Fx9jl+Xvnng5o1w3j9p5OZ9XDnkvqPDmI+42H9zSvk//mCeixrG7z+05mO9Xec0mQ8l9kde+tIstqaUceBZXlUsZAfljxHNAAJLCmZYV994X1e3bDD/tlg/9nOvj0+pog5fbZth3xu2fH0PpN/lkgubbSkfJf4m9fYXh/OopSHaDvhSK+a+xh754XZN77Y6JSe5bQvAO1s//FFuvsGmf/VRHKNS8vIhJG8vwS2vNxMlZcylXJ/k/JQ54KLbpbPM7F3HsDXHH6zls2fKhuHseHdBHt9b7qmpDn+dvmQl1NW+HjzrQQo0WTP7WbTuQuZPu4SR82X3KycQcYsOJ1/SN32ldVw9NPHyZg1HNC06qzOY/1Pomn6y0u8vcm+7wvncgh3avWxp4fFX6p3SZns0Pz+LzBzg3MtXsteieHE6zSWJXq8efd+LXJtcbBzPg+5pDB1cw7zxut50+W4ynXMaZ/cckfLWOf1sWz5NBLLGmg8YfD8Pcgvo3HZI+xfNc3NTXgWcybB/gLfHzIONX/AxKmdTaOu11xbi5GEwnWOc7bztdx5X5frvDe7VzAlroxGyzEMngKTeUWc3Pw0N0pindd7uX+IyC1nRM02yFnctb6+lClECAlan5frrR0MnziWKFq4DkSlJTEKaIsEWoJVaiBpboZ9DlwASqnL67yNGGr+gDhzMjeUE2JYOnGR26jMK3Wc5BcQUVrlaKLP5M6WLCotYM+b/TnRRh+b13evYMrufCosDZwc0/0TvL7qAK8NYIJXZj4VlueJOLDSOXABIp5Nx7Yni2o3F+Wh5g8wtKynckuV+jrOnOxDwGgmITeSprwsx8XKTELhRiIO2y8UEbnlxH3nMGfyXAMhx3ejl2lj3lKb1JvzZTvU1ymOdWvLGlg63mWHL3y5UexwuuFeZZ6pHlMJXCZYTpHk6MOxyjyTArONfY6bNv3EeB796CBJZxx9YL4/Ejz0gfHZrP9Dcuv7vPqLHS4rdvDXZTs8po1V7TpEypopJLPDftM8awrRbYd4z4fAZdTiHaRc+zWvbjilvs5ZPJmibaf8+GwhPCWcmjcb4aUYFukb+e2J7/Ib/UOADfZeZO5epW+Ju32/S8vuaubudfQp+ZmO0m76lFisX/PsSB3wEBveDafqxxcpHT2EcGub/TPxUmbyzxL5TXwbv/2xPejQblP1p1rm/sl72pj9vVaz5lP7dua5zVT1UXrZtEVPwseFHHOzzvDHmRjOHuRtbV30T5IRtYd1jx+yBzMF85hGIcc2FbKOPNb/JI9pmwqh1DVw8Uc5y1PKWev25r37a1F28VwiDvze+YbeuBqD2/MQdHcO88bredMRuLg759pT0bynjb2WHUtt8THesJSR6NJKkF18jDcyvuAto7vABch/gTnX9xLTgxvz26U/olK9XJtJKFSux3b6nEyaHNfkiNxyDMq1PH0jEyMr7NdxsJ/Tc83c8LUvakE2MeeL3D9wVAO02K5Bhsf7B6W+kzmfl0UdLvXtrkwhQkzwOuzXVnDEuIz5yxMBuFVby1XC+TIUAhfHUw/c3Ax3T9tZz8FiBPU5Yz3nlROc5RNa23+OzgjwFCPCwtGpT6TsrAbA59zgAjKNtRSfeJ3GE3N68BQzuHobuPi0X34Zjcsep7YkliluTsa2ljbicspJTXJt3UhGnxCOLmwdqVM1i51+Vx6kT0ZPPPrCcuLUhW3cMQIWMyOMbTRt6cv+LAuJG9tG1QbXG3q717Jjg5AqMIxHH27lb5rO55sbWnluio5nlAWX6tVWmn21X7A6y75un+uheuLSddrNz/GrkimOFhcfXfgDJy7sJ24WVH0MyZMSuPRRng+tJ5MZNy6csPDf8atU7fHGAqf8+2wvXmPzp7CBrzlc8SU8+d0e7NuoBgkW69eEK0EPXVtI6nfbA4qq5q8JT3oIJjxEy0VInguWkQ/RZv26m8J0pMc/RP3B3g8a0Hai0dEKY6PJCkkjdWp9lRv3oOhJq4vqEgfMjmV7j/OP1c/zyFxgL7CpkLdH/44Xzr1p70PTJXBpxryh9wF65837MeasmsZyfLkW5bM0A6pXuay3XMEWtpiJhUldO417PYd5q6H38+bQ5CR0lm1uHxb5qmz5NMryy2i0NDCtJJbMAk3LnNHTNS2L4nmPU7s7u2eFaQfCAVw/A9vxP6qf242aeuKS7O8zIikejPGkFi7u3LW9haHg+3lf88Cxceo7xGQXOB6GnPMcoHm6f1Dru1MNZOzBYvdlChGKgjra2Nnyks60scjpLBrdhjWYBQbK7hVM2W0/YXprxndnqPnnGOh82tWjDvZ+j2rluQWiPwWq5cXt/gXZxBR4bnFSn6ylb7RfaJw+Yz9GgvFjxLe+5k/rwICj9vlZyA9L9pNBG1UbFnLAh+44VafryJj9C0Z9fIW4sXWc39D9PnaeyxiIn629JcTNiit3aEuC5CeHQEUbZH4HIw/RUnOvjgIWTfZqz60u00pzMJzd49zq4qPb1lsMjYrCAAHtK6Omhqk36T5ci/Kn2vt5dGlxULIAkoleV05qmEtqWK/PYQEcQcuNzhYW5cGAPbjN9tAiA/RysAIzCTnxms+kZx3s/R6FTZMaFuOo92vZsbyWH8T0LjdlChGKvtU3xSSSPT+RjjOh1Fm/nOUpsbzF8zSeKMLX5zm6yHD48orj5tiMQZNP20X6AgzUYLXgeEqWTpw5uXfVnVfEScvzUBLrNmXMU78TpY9JsFLItAGHp74u/isg07iS6kmv01iW736Tw69QmbcNa1ikIxe7CtuX4RgWr2ZoT4trasFmXExCuruVpbRawjE8a/a+v1qPQLiAtS2csVMnA/a0Jm3fl9eyY4kxuvzz++a6g89vjuDZ2cpogsN4fcoIrJYWty0rq74/Gjys650d/HXZHA5cCEcfrVl86Trt4VG4bcP4+D+oYgJPrZlLWOV/+NiKcIrW1nCSl/6CUW7WBuezDZJPv6ZFH45Zf4fDjp+T+ZqWK93taG8tiU/6jv3l3Mec+75otokc2ZtvdRbFJxp6dJ71yep5TNJf4qi7tK65C5k+7hant7u2urg5Buc4rQQ4q/N4YcI5/m/arzlw/Un+9x+jXXYYxus/nUnNT8d2tkD6xP4ZLOUdN98fb9eiLIrnPcL+97zdidpHvzpzvA1dpOP64vUc5o338+btqhpsxkyijW5WAmDhTns4Q7oMBWe3tqyBNyad4WU3AUrZ8mnElMBSyzGK57nst+Rpbuzu4d+dcTQ62rjjiD6HmjO9jDSYTPRT8Vhr7MGeraUNfc5GInpSnlZ+GY2bJ1K9yk36VkE2MavOYNrcQIWHyxngfP/gb5lChBj/Wl7UYZLt0pYvI62jll3bj3KdRLKXT3dc8Ds4u6uEI6GQMuZCbcYvy6fM8dTLuaPeYvsTfcdTrBt/O4wh17GMNpqO14NTy0s8cWpTfT3n1XzkUuq2jMaUq22O7+xw561MyKfCcVLy9qTGNVBR/g9mAON6zN6kjoEvfXQ6c8ZPFte6GePfzronS9Osvh7dunWdHefRPE1zSidwdK5XWm0sm6jeE0lqTjmpOY5NNC06ynE7UwpcOnNaNtFkKe/8Hvj0BNSlo7p5P78yKx33T3HgrUOMXeNIbbrwPu9VziXH2+H81sHKP9dTumYyNRMdiy7Vq/1fAIiOp2ZNvPt1vTRq8Q6WpGoeCFx4n1e1/VYc6WEZJfvJUNar6XSnOHsWlqRC1S7t/DfePluo2vBrRvzhd52DABDYuWDccU79imHvuzFuO9H32MNhxFvbqMIG9Q/xm5Svqfq0+zJL/62R5Hcdy25e47e74TdJzocurbjGsy8lsDcFunbYD7Ro5yGPZ+Wx/hyazvTRZM+N5ranVpdFTzL07B7K3La6RJNx7k3794dLHHjcMYTy6jzW/+Q7nM4vpAloMu/h8XN5rC/dwzolzYwOrrYB0Y8wa+QF9vmYQba27HVMp723mLu7FpH/AnM4w8vuzvuuKVHthzmz3hGyez2HuZw3Hdso50av503LJqr3bCRVk/7s3Am+ikuf1GvK7Tw3ZhcfcwRvXu6s1X4bZazd7Qhw5hWRM/4ce9xGvi4D6OSWY1BbjhznYaWulsM0tTt/qXVTO6/HtuPr1XS426U/4nyk5hzu9D69lWmv78lleEkNQ5PedYzi89oWGE/3D93wpUwhQsgD0TFjv+nPCiQkjqOu9p6Y/WXA8jU4cTcymK96Mpmlt/p4G43MW3ki2Owd9B89qR1tLPSMWryDJeM+7fE8MOI+MXchrxREcfRx90GPL56ZPZUC4xdOI+8FR+AmpQxl9/zw+EKILoLa50UMDL7e6PvbSuLrvr6sk+BkgBkZyYSH7/BpCLaedlrIU6nhXCqVwEUEg2OYZFp5f0OwAxcI6kAHISQ4A5IIIQYyCV6EEO6NHMvBRaPV9If6jw6q87SEls60sPbKX1MUxHQvcT/zb6QxIYQQvpG0MSGEEEIIIURI6KPRxoQQQgghhBDCP5I2dh/x1gk+mH1M/J3fRQghhBBCCJDg5b7jaYQvT3wZcSyQgUlflyeEEEIIIUKHBC+9oR0/vyezFBtXY8qNpEk750ewy3TR00kiezIEciD4MpxznzCuxpSbbp9IUjOHS78b+wtWrJkBlb+maNspj5slr9lPyjXv2yhWmWfyXPgV8v9sY8maePRnTjEzAHOyDLQyvUles1+d2DOQc7j49z51rHojgXSu8duXm32cVNNfvpWZ/LNEfqO/5tO8M+Z/NfGstY7n/mQLbFVDin0kMv2ZU8y0GqmZrePj7ccDPABG4IZOjsgtJ84x0aTfM8n3Meehk7Vz1mjmWvFBRG45hhbtHDW+6n2ZXvlz/yDEPcbv4GVc1jLSHnW8+PwoW8trO1dGTmfR/ESGA/aJKneE5ESVXRx+hcrDjokjI7vffKCUOdBbLAbU3C6WTVTnbbIHjU8F+NjpG0l9qmXABER1bXdAM++j1Rr8ICJoZc4q5Fezr/d4HpeqDXOocoxK5nmW7Z7rj8+2f9iDnsiD1axxO/FjMHROVHn740I2/vySY/kMXjiXQ5dJ3M/uYZ250XlyS4X1v3k7zTEZZVB08PlNNN8tG1cDPTDZvDmY+JBXAzDny40tWdxw3IQP8f9wGmYSCjO5E6gb+i7ymTb+HHuylSGkq7i0PotLjnL7Rn+UKcT9xb/gJTGTNI6ytbgWSCR7+XSyE2spq8X+ev5oruwqsQcskdNZND+TccUVhNrYYtnFx3hj5F5isgfqTGD5VFjm0rRKOxOvs/5Ox3JXfiDnlVHc8xOWXfgDRcv+EPjjttnYRwezbsKj3W8dumX2h16/TxubX65mc5CqNXDK7A17gMJfCjk9N4/vOa07xNuPH3JaMq30TaZfbwQuUZb2EmWadYY//o4Xoq4HMXDpZLV2QMtXWPm203Jfz1verkVrlzwNp1c6vbdQ4vN1dl4RJzc/yh5jdpf5XbKL55L42V4GdMjgpf7Our+uB75MIUKDf8FLbQVb1YaWWi5+Pp0JIyKBFqLSkhj1eQ1ljpaWqLjRDGcYjyXC2VoPxxuA1pY1sDTqQ15O8TVwMZNQuFjzhK2e89pm3vYWMH9A6lT741jbcW2ztPO+zuu8KSBzlYGTmxuoiPOcMuAtOAh2OpavgYmnenS/vz1lYs71d4jR3gBo07+gS8qdNj2iR+lhLsd1Ta1wOq76HdD+fuOZWJjutk6edJfapF0P0H7NlzcC+z46rk6ot/LPB9Xlz8yeymq+wDpxNPE3r/C+5RGemzgEq5r6NIzXfzqZWQ9rj9bK+xv+zuaRYzmYBX9z7ANo9vNcZvc652yxq+PAsjyqWMgPS54jGoAElpTMsK++8D6vbthh/2yw/2xn3x4fU8ScPtu2Qz637Hh6n8k/SySXNlpSvkv8zWtsrw9nUcpDtJ1wpFfNfYy988LsG19sdErPctoXgHa2//gi3X2DzP9qIrnGpWVkwkjeXwJbXm6mykuZSrm/SXmoc8FFN8vnmdg7D+BrDr9Zy+ZPlY3D2PBugr2+N11T0hx/u3zIyykrfLz5VgKUaLLndrPp3IVMH3eJo+ZLblbOIGMWnM4/pG77ymo4+unjZMyy5wyorTqr81j/k2ia/vISb2+y7/vCuRzCnVp9HBNVXqonqVTbtNKh+f1fYOYG51q8lr0Sw4nXaSxL9Hjz7v1a5NriYOd8HnJJYermHOaN1/Omy3GV65jTPrnljpaxzutj2fJpJJY10HjC4Pl7kF9G47JH2L9qmpub8CzmTIL9Bb4/ZBxq/oCJUzubRl2vubYWIwmF6xznbOdrufO+Ltd5b3avYEpcGY2WYxg8BSbziji5+WlulMQ6r/dy/xCRW86Imm2Qs7hrfX0pU4gQEsA+L4k89mgHV07aoxX9w8O4ddMKOFLLOMoRTXAz8Gluhn0OXABKqcvrvI0Yav6AOHMyN5QTYlg6cZHbqMwrdZzkFxBRWuVoos/kzpYsKi1gz5v9OdFGH5vXd69gyu58KiwNnBzT/RO8gTwCmLt+Nt7lU2F5nogDK50DFyDi2XRse7KodnNRHmr+AEPLeiq3VKmv48zJPgSMZhJyI2nKy3JcrMwkFG4k4rD9QhGRW07cdw5zJs81EHJ8N3qZNuYttUm9OV+2Q32d4li3tqyBpeNddvjCtxtF/cRH+HR7PSyK57nwevLPjKEgfBjQwSrzZGa11ZP052bsN21j+Hz73zuf2j88mmc5RdKGDseEl0ZWffR3/57qz/o/JLe+z6u/2OGyYgd/XbbDY9pY1a5DpKyZQjI77DfNs6YQ3XaI93wIXEYt3kHKtV/z6oZT6uucxZMp2nbKr882PCWcmjcb4aUYFukb+e2J7/Ib/UOADfZeZO5epW+Ju32/S8vuaubudfQp+ZmO0m76lFisX/PsSB3wEBveDafqxxcpHT2EcGub/TPxUmbyzxL5TXwbv/2xPejQblP1p1rm/sl72pj9vVaz5lP7dua5zVT1UXrZtEVPwseFHHOzzvDHmRjOHuRtbV30T5IRtYd1jx+yBzMF85hGIcc2FbKOPNb/JI9pmwqh1DVw8Uc5y1PKWev25r37a1F28VwiDvze+YbeuBqD2/MQdHcO88bredMRuLg759pT0bynjb2WHUtt8THesJSR6NJKkF18jDcyvuAto7vABch/gTnX9xLTgxvz26U/olK9XJtJKFSux3b6nEyaHNfkiNxyDMq1PH0jEyMr7NdxsJ/Tc83c8LUvakE2MeeL3D9wVAO02K5Bhsf7B6W+kzmfl0UdLvXtrkwhQkyAgpdI0hZNZ1htmdrSYqcnbVE2o6+UsfVIC+OypgemuGBzPPXAzc1w97Sd9RwsRlCfM9ZzXjnBWT6htf3n6IwATzEiLByd+kTKzmoAfM4NLiDTWEvxiddpPDGnB08xQ1h+GY3LHqe2JJYpbk7GtpY24nLKSU1ybd1IRp8Qji5sHalTNYudflcepE9GTzz6wnLi1IVt3DECFjMjjG00benL/iwLiRvbRtUG1xt6u9eyY3ufKnDpMiuboZQ7fPxfzZA4xsvGQ3g0ElAfOLfyN6VzenPXp829q8912s3P8auSKY4WFx9d+AMnLuwnbhZUfQzJkxK49FGeD60nkxk3Lpyw8N/xq1Tt8cYCp/z7bC9eY/OnsIGvOVzxJTz53R7s26gGCRbr14QrQQ9dW0jqd9sDiqrmrwlPeggmPETLRUieC5aRD9Fm/bqbwnSkxz9E/cHeDxrQdqLR0Qpjo8kKSSN1an2VG/eg6Emri+oSB8yOZXuP84/Vz/PIXGAvsKmQt0f/jhfOvWnvQ9MlcGnGvKH3nVk6b96PMWfVNJbjy7Uon6UZUL3KZb3lCrawxUwsTOraadzrOcxbDb2fN4cmJ6GzbHP7sMhXZcunUZZfRqOlgWklsWQWaFrmjJ6uaVkUz3uckD3/hwAAIABJREFU2t3ZPStMOxAO4PoZ2I7/Uf3cbtTUE5dkf58RSfFgjCe1cHHnru0tDAXfz/uaB46NU98hJrvA8TDknOcAzdP9g1rfnWogYw8Wuy9TiFAUgOAlUg1Qtmt641tvdjA8cTrhR0rYXmvf7jsPQ4clBFpddq9gym77CdNbM747Q80/x0Dn064edbD3e1Qrzy0Q96yCbGIKPLc4qU/W0jfaLzROn7EfI8H4MeJbX/OndcCbzQ2tPDc7npo19ou/9cwpZp7x44C+UPv8LOSHJfvJoI2qDQs5cKH7XatO15Ex+xeM+vgKcWPrOO9zMOW5jGB9tv6wt4S4WXHlDm1JkPzkEKhog8zvYOQhWmru1VHAosle7bnVZVppDoaze5xbXXx023qLoVFRGCCgfWXU1DD1Jt2Ha1H+VHs/jy4tDkoWQDLR68pJDXNJDev1OSyAI2i50dnCojwYsAe32R5aZIBeDlZgJiEnXvOZ9KyDvd+jsGlSw2Ic9X4tO5bX8oOY3uWmTCFC0bf82z2R7OVdAxeA6+evcItmLir9WxInM26Y5vWAV87ylFje4nkaTxTh6/McXWQ4fHnFcXNsxqDJp+0ifQEGarBacDwlSyfOnNy76s4r4qTleSiJdZsypk3FUlLGGi0NakrWQEohU+qlrZ93BWQaV1I96XUay/Ldb3L4FSrztmENi3TkYldh+zIcw+LVDO1pBZtasBkXk5DubmUprZZwDM+ave+v1iMQLmBtC2fs1MmAPa1J2/fltexYYowu//y+uR7G61N0fLz9IEkb7P/6dqjjHfx12RwOXAhHH61ZfOk67eFRuG3D+Pg/qGICT62ZS1jlf/jYinCK1tZwkpf+glFu1gbnsw2ST7+mRR+OWX+Hw46fk/malivd7WhvLYlP+o795dzHnPu+aLaJHNmbb3UWxScaenSe9cnqeUzSX+Kou7SuuQuZPu4Wp7e7trq4OQbnOK0EOKvzeGHCOf5v2q85cP1J/vcfo112GMbrP51JzU/H8kyPKmv/DJbyjpvvj7drURbF8x5h/3ve7kTto1+dOd6GLtJxffF6DvPG+3nzdlUNNmMm0UY3KwGwcKc9nCFdhoKzW1vWwBuTzvCymwClbPk0YkpgqeUYxfNc9lvyNDd29/DvzjgaHW3ccUSfQ82ZXkYaTCb6qXisNfZgz9bShj5nIxE9KU8rv4zGzROpXuUmfasgm5hVZzBtbqDCw+UMcL5/8LdMIUKMXy0vUWlJ9gt6YjYvJipLmzlSXMHZlqNsP5LJi8uXkaZd7ld1+57ajF+WT5njqZdzR73F9if6jqdYN/52GEOuYxltNB2vB6eWl3ji1Kb6es6r+cil1G0ZjSlX2xzf2eHOW5mQT4XjpOTtSY1roKL8P9ACmN7VozNn/GRxrZsx/u2se7I0zerr0a1b19lxHs3TNKd0AkfneqXVxrKJ6j2RpOaUk5rj2ETToqMctzOlwKUzp2UTTZbyzu+BT09AXTqqm/fzK7PScf8UB946xNg1jtSmC+/zXuVccrwdzm8drDxpo2bRTGo0S61Bnq9l1OIdLEnVPBC48D6vavutONLDMkr2k6GsV9PpTnH2LCxJhapd2vlvvH22ULXh14z4w+86BwEgsHPBuOOc+hXD3ndj3Hai77GHw4i3tlGFDeof4jcpX1P1afdllv5bI8nvOpbdvMZvd8NvkpwPXVpxjWdfSmBvCnTtsB9o0c5DHs/KY/05NJ3po8meG81tT60ui55k6Nk9lLltdYkm49yb9u8PlzjwuGMI5dV5rP/JdzidX0gT0GTew+Pn8lhfuod1SpoZHVxtA6IfYdbIC+zzMYNsbdnrmE57bzF3dy0i/wXmcIaX3Z33XVOi2g9zZr0jZPd6DnM5bzq2Uc6NXs+blk1U79lIqib92bkTfBWXPqnXlNt5bswuPuYI3rzcWav9NspYu9sR4MwrImf8Ofa4jXxdBtDJLcegthw5zsNKXS2HaWp3/lLrpnZej23H16vpcLdLf8T5SM053Ol9eivTXt+Ty/CSGoYmvesYxee1LTCe7h+64UuZQoSQB6Jjxn7TnxVISBxHXW2ohTShxdfgxLUTf09GIAvEft7q1ZPtRV+wjzT26MmDmJVUsYlPUDMb+2hj/Vo3z0Yt3sGScZ/2eB4YcZ+Yu5BXCqI4+rj7oMcXz8yeSoHxC/L/fEEdaS44AjcpZSi754fHF0J0EcDRxsRA5esNf6DmXQl0gCEBy0A0jEcfdl7yjF4HN7+grn8q5IOFPJUazqVSCVxEMDiGSaaV9zcEO3CBoA50EEL8GjRDCBGSJHgRQvRCM+aPHqFm9kxqZivL+uqmrac608LaK39NURDTvcT9zL+RxoQQQvhG0saEEEIIIYQQIUFaXu4jPe2Y3/vZ7n07trvjaJd76zsjqWRCCCGEEPcfCV7uI9qgwJebf2U4Zdf93AUV3jrs9yTQ0Jbpab+eDAgghBBCCCHuHX7O83KfSt9IamG5/V+ul/k8XBlXYyrs5djwvS3TDU8BSE+P4S3A8LbOl2MHlHE1psJyTL2dQ+c+9szsqdSseYJVyvwV5pEet11lnsnB2cOCW6GRYzm4ZialE7V164FZhfyqZD8/nOVto4X8sMR5rhwvFaJ0jeN9T3yCmjVTeV35iEaO5WB39XO8n6B9br7UIQBWmZW5TTSfR39y/J5/VbKfX61ZGLDD9uTvwR3zv5rY++5j+HcG7xmfypwwkvd9rJf5X028/7PAzVIVmrz83QeQfej/LMcrx2SjheWkFn7gZS6driJye3v9632Z3gw1f+D3fYy4v/nd8jIuaxlpjzpefH6UreXaWSgTyV4+nVHA1SMllIXMBJXdOPwKlYcdc69Edr95yJbpEIiWDnfHcNcC5K11B0IlXcw+T8KQT3ozA/NCflgyF6uPs8YH2z6rDe0orNa2QM3hMpLSNWP4fPtxVvakj3OzDav29c2v+nl0sw4+v4lmcjsbV0O4z/Yzs6dSEH6ZpNKevYm6tjugmX7Hag3U96SXfw8f5/Hqx46hsd3OWNo7wft7GGh0rHojgciD1axxOxdOMHTO3XP740I2qpOLzuCFczl0mdfy7B7WmRud5/tRWP+bt9Mc8/MERV/83eczbfw59mQrI8rZJxu9hJmEwsxAF+ZBf5QpRPf8C14SM0njKFuLa1EClezEWnuQEjmdRfNHc2XXUZg/PSCV7S/Zxcd4Y+ReYrIH6mD6+VRY5tK0aprXSSoV2gDB1/QxZb/e8hSk9HSf7rgd89+yieq8Tb5XVji7+RV1dEAbTOjvugBwh89bYB82Cnr6JNBxUxtoVmsHtHyFlW/3bMfmC8zcMACi1EBos7GPDmbdhEe73zp0+fH3UPpv1XQ3HW2g9UeZPWcPUPhLIafn5vE9p3WHePvxQ05LppW+yfTrjcAlytJeokyzzvDH3/FC1PUgBi6dPP3d+3zPMK+Ik5sfZY8xu8twz9nFc0n8bC8DOWQIxPsMWpninuZf8FJbwVa1NaWWi59PZ8KISKAFWo6yvfgokIjbiW9DxNqyBpZGfcjL3mb9deIyu67r7OrtLWD+gNT/n713i4riyhf/P/MWGT2RiLYhtoEO/IHgEImoQQ9gXBpZCrbkoTNOIDqTxDmOi0QFCcucjPHkJIeoiBmXYUImZ7xlnOmHaAtxQXSpyFEHxJAwEvAHaRhQFNOmMZg2b/N/qOru6qYv1RcUdH/WcknVrn2pqt5V+1vfW7r0mdI1+7BrXdcyX5SRU6SlqbyTmoTRkbDs7vulSAnbsq9/4pKlekphNQnyAteRBVpRNmmgnoj0LCJAkWFa0nAlUMPNpAI507QiQ7KumFmFGvrs91WxbTPsJ1W+tziySCvq+iCtpNZhqhRTUouk5G+nbs0Grg1LriiF/4279BZ7DlwgraSWhC/3gWEVMYp69l+Pa2Z61zKftHxNipyE8pjx5LDkk0WGhayKcW5brPa/7Dkv7Nx0JK9U1knMX0irW7l7XUvLBRYet3/hVoSj7XeOzT/OcMlgpXnYl/yVvFhlv3bSMRbUMMTGj07Kf3excNvwIx5bnE5r6jgAOo47k3oqr4NyPyCZosR/xz4SPR6zdHE6ZXKbrtcOyVQsf7riGXTT8ZdrPcW1damTSGtJomu5nz6PHT/vCJHtvB7qUP7ulfcmlPngj7DPh5nR7FsNrZZHyXriJ+oPW0nJe5TIW9f4r/X9NM+MZt/rj0rKKfs+j3WlXR2HVWg8lj/B0RQry//7e8XOCIp2xcLeNsrx0ae9X3s5AIMApP1HMr+f+5C0K28WR/MAfqL+gzbKv7IfO5Ftf06S5uiwtuVnMV+wfu46F8HCO3YBJQb9cn/nvZL5M3o4a+jxUPgsSxbBl6WnHMduKoazXz3JkkX/Bii0OsUb2PqbGPr+93X+tEOq+8o3K4h00frIz6KeDjdtpO95b1o7j2RTJ92NWu/XoNRE95rJ1BZ5ynqfS/bTUFum/mU+XvnuYfj6wTagI6liizzHXdclrnXd1iw+COU8bQMQs6V6+PuVNGK2vAanW5m0Yvi7WVWfgvueMDrsJ/PEtCF6mwbC1+Q9RbEYVi24ABhp3+D8zjXesJ8EQxo37A+RiVkkaA7QsMEoL3pfYIqxmRukEbMlhzu7c2lQTOAYnf9FLwCH1zHncCk15k6aHg9vtmFvJl++8KStUavpUduHk1JqzC8zpW6ji+ACcGN3rnxttzDOQ82o9BT6dudy0Swdo83a4RBwItILsB3JdZrrLTPQs9v3N8zbxpdoMAZnNta8LZtmb2YyB47SU7WcGXFwtQuIW0hcZDuNioVajGE5zduy+VRe+M0tmE3zgQuwqILVjx7l3TWHpAMXVfBmyUqatx2SXyxPuo3kO2pVaPGKDAtZRQcpsjBRZFjIMkepa86LpYvTKV48gfLjQ5QbT1Lu1WxsAjt/+zhXDp7E0G/fnsHO6ADNy4Zxgbo3sqmTr68rkuCCMVvWyiiPkZ8Dk92q/OMTlV/+JrEoUr5GqU/ROieOpS1SLhzpOkxg529ne9ZUxCQy9/hJUoy41k19SjLtsl/f1KdoNURTbuyXhZDJfHXwpHS9ouM4me/8Knzs+HmOHbdvRWMs0VF0/GvKZQ2QV7MxX32GQtwbzJ10ir1rhicODXU+eGWE5gMPP0pKRzsHSSI/bxwHP7jGstfHoQOav+pn1a/7JYFjoee6WZZulv/6e/mYaNKO9vsWqHrvYF34EGmA7j9nkdZ6kZKjD6F5+CeavwLw0efMaPa9HknrBxclgWRmNPtel56QzX9sY/kffZuNRc6V6pZ8JR1nWN5P810yL5uX/wycqOCchzLtHxaivXSSPynHEvUMS6YeYcuTpyRhpiyPeVRwbkcFW9jA1t9sYN6OCjC6Cy6h8Z4+nrbKc+wym0h20zjoK8+xa8l3fKzzJLgApa+Qff0osSosKexI7x77loGkCvvaQiJqRQ598vpiSmE1Wvu6JGs7qZoaaU0Ckn9toYEbft51oZ6n7/drJNoF0LIhl9sMfzf76lPwYBAm4UVDZv58JrSZMN0PskveHprKnwMPi2H/yBNtomKXWQeO11AHl+0T1Hyam4OvEaEDWMCkiZFEFFa72PZatIAa4QWAMnJ0bVQ27qS7MdvjVwmlAKHWdMxdEAnFET8QAUaV2Zi82GirimdOEBon2/k/yMJhM7bvYZImDce9Mh9wPCxvN7diK5jOeOB24N2EgUOcbljOivTZ1HVd4LH0mdCw02VxM9iw07HAa/6ynSVPxwEXSHs6CeKSeLNqlfNg63XJF61MT2xQmrpo5sbc4cRBb4tXaVG+6GHFrp4JgB8fgWgNMx8eR5RDIyPRoQFGypdk0RxirKfY69GcLNQs5jfZZ1/gD/yI5eGfkwTqEnne6mWvXRuj+OJfFD8JYiY5tCPSsT+yFCB5MlE9//Qu6KU+ReviSYodd7gSjd9r66vPkJKSdvUyGLmK1VUzPWjDfOF/PnhjZOYDwCCf/9EG/wnWxmsYmagQ5v3XPWjXoPTewfqwLPSAJHzkOV8o1sZ2Vv3RBl/9xMDDkeiIQGsZhJRHoPchNLfu+H1lpD0TSeS31xSalMCwNnbLdW30WSAlOgKwyaWhzhkfBKJ1cdBDnUHed/Q8/6/4ZSYvB44COyr40/R3eOWbDyQfmmGCS2iJR01r52EqNdFt7mReVTw5ZQqtlM6b1iCXyrwnaTscoM1K1nYyVijmJ1bu6HCsH5zvOrjR2kFCivQLm5KSCLpEMioKnFUHBwJ61wV1nn7er5bTO+S/Jb8b/32qHKzgviAMwouGzHw903tNHDxzP0guyFoMafJ1m5IDsq0cb3gNLfW0bHCaH6l2sFeoRoPDuwYiXASqPRlxyvTElo2Mxmm0cfX8V1DyK9IOwKQZ0PWxiq/MMj3GbD71tDgP5UuzD5YunsEieindJmkZpC/6Kivf6qX0o67QFsVhI1TNy8gwzMxMZqnPWtEYF09S1JW0X6H2GRqH+HTNISSzr1rejPTxW3VjLM2HkDj6Lcs9ajV+YuAWMHMiGq7RzKMYpkOkxarOBG7MEYO+2LvWZZ5xBdpLR1y1Liq5bfmB8VOnooWw+so4NQ/xsnZAEuz0vrQGednM4gveDejxYiBpRaLCNDowB3t3k+pACeo8Q2R4n4IHiRBDJSejX3ufCS4Oqlk7N56PeZnuxj2q/XYiNJHwfa8sgBjQpvtYsWW9gJZWLGbA3IttYhYJwYbzzdtDk/llqIr3uoD3JHj4iuxl399t7hymdVGWeavrLx+MP+xteGvLSRk5uo1cfHon3aZS1e0HwpRlWdB+WiFYamSNWRoxBbJdrgNJixOhCeZedmGxRhIV46nofRq7kkgo+RVpN4/6+Eo9myWLk+j5UjKLuXbNSoyhAo+jKdO7hL2W/qlZqA1x5dY4ZiZLIXGXLk538X1JihwnO3ADRLM61d1oT6o/zV2w77dheXg6xXcz1G7PdQYjZzIjDqRFtNL3RXoODLtG91BwabfeIXGx5/DHxyw2iJksl0VjVPq+REcQJQc7AFi6+HESPdWPjBgmBPnqMzxIZn17G6xMfHS2Yn845oMrIzMf7gU2+iwPkZYzjoG/2zBbHiItBayWn/zWbO7/CZ6IlEMjP8I2F98Xe9ugiQ4mJHIulY2dAb03VVGcx9NRPZz1ZNa1fCXzZ/zAlwfdtS4e2uAbvrQLOMUbeGXmN/w18y3qrj/DL//g/kOTQ2L/Ns7Ph4HhbDZ1suvpFtZ7WLib1s4jtgpeNZ+jMs+t3urnuHE4QF8O3XQisHJHlrzGG3JwD8DmJI2YBYlYWiULENuAlagVQaZwIPjzVDL8/Rp8n4IHg5A0L1MzU3gMIFnP75Lte/s5U1nDJUWYZAAy1/C7zCEufXaIsSTnOGwrTaWY5AWLq3NbgaRuNR+gYbeRG5/Xoy2U92Gl73wHuCzQEkmoqCYBkBzj7JoWI+27pzOrcAsZ6fZjnY5zvvqEUmrKU7lYFO/1JetLY+LNnEuN2Za/usE67geu3ZG+9Ehx8dtkAc7NhE92oFf9lUlX4FSlmw/QYPdbMu+gz1xNgmziZzlyAMuK2S5Vpd+B/V6qc9iXuEDd8XbeNNTypgHcnYmbv2xniSGJHuOGYTUnZrzDmxnS34MNb7FH/rJ89cBK6h6tZUlVLUtQlKvxD/DKEBurezmZP5vWVKCng9KWxymWS8v/r5dl+XbH7zucaLlJYqRb/aabtC5eSOticDqA92M4GOFsF2VZKLg65EsO4Hbn8Pc50nCI1bJTeI/xLZoXbwypN/+4mdXJ10GNduPY8fMkRS5kVclC7IZPDsf6lq/ZF28vu8OJgx2QL6uN+rv4vGc6q+wmeT29nLjlplJqMXNizmzKSqZTpmjXZ5+hsKiCNw1Jzm3rKfa+ofxdBjcfXB3yV0kmYl37eHfboRGaD35wMf2ayO///KhnJ/qAeYjEJyQfl2asFL7+KAOt3/rv8+i3HEyZRf6fZ5HPT9R/0A2vu4ovxpprLHs9iaNzYbjDfriJcQ15vGgDW79B4Uwfg355DLe9aV3yn2H8pSOYPGpdYljyzQfyve6h7kk5hHLxBrb+5hG+LK2gD+gzHOHJbzaw1XiELXYzM4a4agViJrMouotjKi3I9JXneBU//rJlemIv76Gp3MTmw/IiPG8PK37xDUc8Sn1uwYAKq9E63i2u7yTM9fQNprjUjkh3ri1s57dy0W6yZXyJy5pqxbpE6ezvq88QzhO8v1/9oKpPwX3Pz2Ji4/51LweQlDyD9rZL93II9z1qTb38HectxHIgpmRKYcZTHV9t+asbTiRzvxpZOBxFLKrgTQPDoiOlldQy99oIL8AEgtGGl/kgEACyg/5Uzj7pWehRw9LF6ZTpvrsrpqweQ/0LBIJhhDHamGC0EqyDvLdyfxqacPQRTN37H8kcbLDhLbFQEwjEfBCMKPaQ7TfZt+3u+OC9pxf+GwKBGoTwIhCMARw5L7r28a7QrggecMR8EIw8oUUaEwgEI4cwGxMIBAKBQCAQCARjghCjjQkEAoFAIBAIBALB3UGYjT1A+Ir8NVr8SUIJBiAQCAQCgUAguL8RwssDhrcIX95QE+o40DZ91fMWzUxNXYFAIBAIBALB/Y0QXoIhazsZK+T0bo5cKyrQFTOrUEOfnLvlrvTpRqB5VzzlelEjOARbT1lXWcf974DQFTOrMAscsetHOXLuC9+ZxlfyYtVyLNtWqkjOJ0XNiWq5wEKLjtbFEZw4eJ6Nofqipj5F6+JJ0t89HaQYlQ2OUJ8u5FLZuBPt4XhyynDc5wiAwXpatu5QmfRMykZ9R3UuHgVB9+mbKYXVaAfGyO9VIBAIBIK7SMjCy4zcNWROkzeunOXD6jZnYXIOv8uMljfsySvvA+o30VBvzwUydvocK9oKu6DiLri47x+9SMkxx51WmQxzxBniyi0UGZdtXA2HENHyNSktch6ESPfCEepTSV42s/iCd+25ysw7uLhhhyToLwhzX964F30KBAKBQPAAE5rDfnIOmZzlw8oqPqw8y9Vp89EnOwrRZ8KZyio+rKzizJVoMnOTfbU2atFXnqPbVHqvh+GDUmrM56jM835Et7nT7797jX0cSqFFuW0XYHyNdbOpk6bKXNed5h1c3JA7dr5in9jAu2t8aV2Cw2IZgoEfsYS32aD69HifPOBr7m1e/Rx8WYspDOMcKcJxniPVp0AgEAgEY5HQNC9tNXzoULS08e2V+cycpAEGgDZMlU4tzCVzP5mpE5kKXA+p07vLZlMnr079gvVzy/wfDEgmKAWKL84dXFaaiQ0OgGE/GenSp2qbiymTa12bajOnMnKKtDSVd1KTIJvQeMCXxmI0CC9qkl96PwfJhCj7+ifEKrITTymsJkEn/W054qoJmVJYzaSBeiLSh5v9jDfsJ4EabiYVoJ0IYKXPblbkbv6n2LYZ9pMq31tWVJOxwq2uT2az5P13SIuU6jQPMwlbyYtVq4hxbFtVCiJDbPzopPx3Fwu3uRUrzb8AS8sFFh4fAmStSuo4j2Wh9PmefiPaxp10m5KJ1Xv+wfqee6XM+8U3HNGrz0St/C2A++9hAJt2OxmFnk0zXeoGYB4WynnaBnQkVWyRnweK54iumFkF0NeeQoKH54iaPgUCgUAgGKuE0eclmSemDdHbNOCxdIYumh96L4whwUWxGFYtuAAYad/gXPSMN+wnwZDGDbsQMjGLBM0BGjYY5UXvC0wxNnODNGK25HBndy4NZpBMj14jRqfSDv/wOuYcLqXG3EnT4xuZs9b3om60RvEKztG/lBrzy0yp2+giuADc2J0rX9stjGM4Uekp9O3O5aJZOkabtcOxoI1IL8B2JNdprrfMQI8fX6PbxpdoMAZrNnaBujeyqZP9WVyRBBeM2bx7wr5tP0b+rU52q/KPT1QsXiewc04EJw6e9OiPcuz4eY4dt29FYyzRUXT8a8oDOS2PVLN2bjWbTZ10N2pZP3edQoPif+7pK5czpe5/AspGLf0WZHTFzCooZny9XQhJJGFBPS0bNnFb9oGJ0RnpMUv3XjuwlYbd0hy2z2l1HxaCP8+oFTn0yc+DKYXVaN2eI1q20rCh2e054q9PgUAgEAjGNmESXjRk5s9nQpsJkwfZZWrmSjIfbuOzas+Czagjbw9N5c+Bh8Wwf+RF8ETFLrMOsC90OrhsXwCbT3Nz8DUidAALmDQxkojCarSKqhYtoNqJuIwcXRuVjTvpbswes4sWX6GShwk3pSa61zxJW1U8c4L4yGw7/wdZOGzG9j1M0qThuFfmAw7h43ZzK7aC6YyHsDhkB8yiOcRYT7HXoymZtFgNjiGuWsexKn8hJz1pVdy0MnCHK9FAmPxX3tPH01Z5jl3mc2QXzWMtauZeKa8ugYtFgZ3zeKVWDIAOIrDfTyt9B+yCjJGb5gImaQFzGlFJkURM3EJGuqKqy5z2TzDn6fxtwo3WDhJSXJ8jfXZBxryDixtU9HlY9XAFAoFAIBi1hEF40ZCZr2d6r4mDZ4YLJ1MzV/L89F4+O3h27GhdDq9jzmHpq2igphfjDa+hpZ6WDU7zI9UO9iFHK/KugbhvKdMTW6Ze43R/EormBcqNJylHMhFrLRmniBwWjXHxJDqOn8TQgrRd8nhYR+4wmdLZBW0Vc680neR/HCUnkMW4rpiEdOjbneti+qcOtWZ/3gnqPENkeJ8CgUAgEIx9QnPYJxn9Wu+Cy4zcNWNPcHFQzdq58XzMy3Q37kGvslaEJhK+75UFEAPa9GFhmJxkvYCWVixmwNyLbWIWCYa04Iabt4cm88tQFe9xAe9Jm6F0fh8tJmTBjbOMHN1GLj69c8QCK0xZlgXtpxWCpUbWmKURUyD7zDiQtDgRmiDvpSd6rjMYOZMZcSD5xih9X6Tfqj0Sm+NfgAviY8fPk3KwF0tkBEsBoiOI4g5X5Km9dPHjJIYKI93mAAAgAElEQVTrfMilsrGTV/mE2GEaQl9zL5fKvMnU7g1wsa/VEMEANlkAmbLM/Z4p0BWj1XVwsx6kexmJtqCY8YH16BxvUOepJI2YBYlYWtWGR/fVp0AgEAgEY5ufxcTG/SvYylMzV/J88gS3vXJIZM188p9P5t/cSq+eqcKkiKaclDyD9rbRHUBZX3mOXdFHHYvB4eYnOB18lXkfsNJ3fgCt5oKHMhjmzO+j3GeflFJjXk6fH9MQbwJAIAJMsL4ygdQLZZybTZ2s6LdrYDyY8OF01HbPpaHcHna9fThwW44cgBWzuen1Xqr9cu/ukC/VtTvuP1ZwiNUZ0ph6jG9hWbwRPlaT58UXUj4Wp1ByxyUfS5FhIavsA+rp5UTkZKiWyt2d+aVj3PO9eMb1PnnHfe5RaqI774pnk0hlLiQ7Dm2m62/Bdr4eW7pGvmfuQTbc79fw35HD2d9nn8Gfp3twAZfgHX7yRantUyAQCASCsUhIwks4GAvCy1hHrXCiJrO9N8JZL9BxjgSSuV9N0MlABSOBW1JKgUAgEAgEDxxhjDYmGK0Emtk+0HrB9hdsvdFi4ia424QSmEAgEAgEAsH9QIg+LwKBQCAQCAQCgUBwdxCaF4HAA7eNL9FwrwchEAgEAoFAIHBBaF4EAoFAIBAIBALBmEBoXh4gfDnSj5QfiacgAIH0dTec8wUCgUAgEAgEYwMhvDxgeBIEfAk1aiKHeQpp7EvgULbp7zh7nhchwAgEAoFAIBAIhPASDMrcDm75P3ziJz/DiPTpRiBhjCFwwcRex9NxgYRiVh4bsgAj51xBmStjNLOogjcNSfQYs/n0hLeDVvJi1XIs29TkeZFyuUS1XGChRUfr4giXXC73giLDQlZF9lL6kY3V9rEdHwprH95z/qjNuyPhng9IPcH36QsRxlsgEAgEDzIhCy8zcteQOU3euHKWD6vtGSg1ZObrmeHIYTnEpc8OcWYg1B5HAfWbaKi3LyLGTp93U3vhTXBRo03xVDa2NDDSonXcaTmR4T1niCu3UCRhtHHVRXCZwM7fzmbRw/ZtRaLK6DhO5k931LU4hAyFQHR8yNkGvZR+NMCi385mkdWZsFJKdnmTfdu+phxot94BRQ5QiyW8gguUMu8X33BEbw+t3EzP1lx6MJBUkRPmvrxxL/oUCAQCgeD+JjThJTmHTM7yYWUbkIx+7Xz0yW2Y2gAGOHOwijPyoVMzV/L8nGTOOISbscOwLN+jjlJqzMvpK5rH2sOejwjG/CsU3AUNNVoUZZJKT+NV7vc2Vo/Zxc07uLhhR9Dnctc5sYF3vWpcgsdiGYKBH7Hwc8VeSQhJ7Okg5SN3VUw0xvzpWI6fZGGL/djZGC0nMbQAt25iidSwlCGORWuYZr2JxSGQ3KSDyRTRTznRzOUmHe4Dsto4xhCLbsE0xW7V8y1vD03l0zii0/OeW5G+cjnJ/zjKaBYZwnGeI9anQCAQCASjlNCEl7YaPnTIIm18e2U+MydpgOHqlaiHJ/DDLUtI3d0LNps6eXXqF6yfq/ZlbyCpokDxlbuDy0ozscEBMOwnI11a5dlcTJlc69pUmzmVkVOkpam8k5oE79nH1fqhhEqgWhU7noQdb0LQcKTs69nXPyFWIbhMKawmQSf9bTniqgmZUljNpIF6ItKziAAYrKdl6w5uI2m4EqjhZlLBcLMfd/M/xbbNsJ9U+d6yopqMFW51fTKbJe+/Q1qkVKd5mEnYSl6sWkWMY9uKuhk1xMaPTsp/d7Fwm6IodTKJt3opNQ63IVu6+HFJqGmx7+lnb8vjlMVHw0AEUfzI59afsygaSP45Vzp/JGoOwASmPQyNTTA3FWAydH4HMZMdbR87fp5j8t/OsUmY1s4j2dRJd6OW9XPXYfJ0SqUmutdMprZonocFfS7ZT0NtmfoF+njlfWP43LMN6Eiq2CLPTdc57VrXbb77IJTztA1AzJZqDyZpacRseQ1OtzJpxfDftao+BQKBQCAYxYQxVHIyT0wboveyQnDRzCd/7Rp+t3YNmQ+3cWJM2YzlUtnYyat8QmxAL3kj7RtyaZD/tZzXoDWkOYsnZpGgqZHKd9dD+gtMAaRFRw53dtvrbuVm0mvE6FR2e3gdc3SfwJpOmipz/R4eTmHFnWAEl9Aopca8k1lfbhz2RfnGbula9g16rhmVnsJN+zFkoc1ylkWkFzDutP0+gnaZwe9IbhtfcvRnOWK/l2p9HS5Q90Y2767ZR8+wMklwwZjNu2vcj5F+q91mt3+mUr89Lo2KkDUgw0mKHIfF6mrOdcxig8gIlsrb7W0/Mi05mkWRP3KixYbl4Z+TZD+45TuIj6YoHhpbhrhyK4LHotVcB3hPH8/6L1PZZTax2a1MX3mO7jXwsc6LprH0FbKvH/WqhfSEdN/s9+sANse8lIha4Zybl82JzjmdtV3yP7HXPQIJhf5/J6Gep+/fZiTaBXB5g+ffta8+BQKBQCAY7YTJYV9DZv58JrSZMCnlk4GzHKw8C8hmY/nw2cGzXA9PpyNH3h6ayp+Duo0uX/HVoXTSlTHrAPtX3A4u2x1tzae5OfgaETqABUyaGElEYTVaRVWLFlDt5FtGjq6NysaddDdmj4ovq940KN7wJFS573Npp9RE95onaauKZ04QljC283+QBYtmbN/DJE0ajntlPuDQ1NxubsVWMJ3xwO3AuwmdRXOIsZ5ir0dzsmrWzg30dyqRFDkupGHR30Xjvy9kbudJjhHNatdC9lrTKeYSC4GdATZtWjsPU6mJbnMn86riySmTtWt8wXqdt992LpV5T9J2WB9YZ8qAGABYuaPDMfecvxO40dpBQoo0p6ekJIIukYyKAmfVwYGAfidBnaef36bl9A75b8nvxn+fKgcrEAgEAsE9JgzCi+SYP73XxEEfmpXrZ1q5ujaWKBj9wsvhdcw5LC0guk3JAdmHjze8hpZ6WjY4zY9UO9grzDuCo5Qa88tMCUroCh/etDre/Fh8bfsVesr0xJaVUmPupOlxN1+XBwZ5sTvZbfc/PvH722233gGdpElx1760W++wKnIC4NS+SJqa7zimmUyZ9TuOAceMrmZfREcQdetH2lGah00gUPSV59i15Ds+1sXLJlOSkKavPMcus4lkTz4gednM4gveDWgxbiBpRaLCrDAwB3t3c8RACeo8Q2R4nwKBQCAQjA1CNBtLRr/Wv+ACMDUzhceG1NrojwaqWTs3no95me7GPaj9jhuhiYTve2UBxIBWYUc/jKwX0NKKxQyYe7FNzCJBaWIWCHl7aDK/DFXxHhfwnhJF2s2L3MtDJVYX7/JP2b6nMncCEX4kysjRbeTi0ztVmUoFw5RlWdB+WiFYamSNWRoxBbJvgQNJixOhCfJeeqLnOoORM5kRB5JvjNL3Rfqtul9bNUL3seP/pOPh6RQvHi5cHGv7DkvM4+y0m3pFx1GcCif+b+RjLG82dbLr6RbWe1i4m9bOI7YKXjWfozLPrd7q57hxOECNo246EVi50ydtjjfkKHzW3EkjZkEillZJe2obsBK1YruLiVkgBHueSob/NoPvUyAQCASC0c7PYmLj/hVs5amZK3k+2X3R08+ZyhouaeaT/3wy/2bf7RJG2UlS8gza2y4FO4S7gnuEHnfnXsCZe0XOKSItZq30nR9Aq7ngoQyGOff6KPfZp4poY4BXQSUQASYQvxVP7artK5DQykq85/ZwYv9S7p6/Q7k97Hq75dZxDQRwAFbM5qbXe6nWYd/dIV+qa3fcf6zgEKszpDH1GN/CsngjfKwmz4s/5Ihjjm1FqOTUp2hdPMlR0nFcjjSW+hSt8d85QiE723mcK7XfMTMddnzUpdDmSKGUpzXJ9X0QdBQun1G53ANpgPK+KO8n5nr6HkmBAx7KGO7M773cd5/Bnqfv36bvMN0i2phAIBAIxjohCS/hYCwIL2OdQAUG93pqCFRA8SXYBNrfSCASAY49PIbJFggEAoFAcF8hhBeBwANCeBEIBAKBQCAYfYQxVLJAIBAIBAKBQCAQjBxhCpUsENxf3Da+RMO9HoRAIBAIBAKBwAWheREIBAKBQCAQCARjAqF5eQDxFLnLXyQyf/gKexyIc73yeF99j7TDvkAgEAgEAoFg9CGElwcEpSDgSTjwJQyoiVLma59SMHI/1lOSSrsAE2geGIFAIBAIBALB/Y0QXoIhazsZK+SsGG75P3yiK2ZWoYY+ZT6Qke5TgSdhQG1ul3D05V7mrd1RoVVR5mkZrKdl6w7VSQBHlLg3WFfyLDS8xZ4DF7wellZSy9xrvo+xU2RYyKrIXko/srG6JJGolgssPD7k4Ug5j4s9B8yoQ8pXE9VygYUWHa2LI5z5au4Js1ny/jukRYIyX0/ohHieM6PZ9/qj0NjOqj/awjEgFURQtCuJLK7xX+v7afZyVNp/JPP7qGss/+/v/bT3CNv+/CgDH7RR/lW4xzqGiI7jZP50LMdPsjcqnbJUG/u2fU15OPvwmT8pEJR5t9Tmvhot5FLZuBPt4Xhyygjh/WAgqSKHO0Gd+8hcPxFZUzAWCVl4mZG7hsxp8oaXRJTSMUNc+uwQZwZC7XEUUL+Jhnr7pL+P+5TxZEoWTM6YcCfBHFHMO7i4YYckNC4Ic9tZ28lYMDBqBKJ26x1Q5Dy0WDwJLuFmJAShIa7cQpEU0sbVMLX9WMEhVj96lHe3HQqg1gXq3simjpW8WLU8PAMBRvI8Rx/3Qkh5lle+WYEW6Pvf1/nTDnl38Qa2/iZm2NHSMc46Llw6whbDqZEbar8Ni3L71o+0h7kL/XOpUPc/IQouAM30bM2lR17Ah5WRfqbmZTOLL3jXntt1JN8PXhnB6ycQjDFCc9hPziGTs3xYWcWHlWe5Om0++mTXQ6ZmriSTfq6G1NG9RV95jm5T6b0ehg9KqTGfozLP91Hd5k7HP0/7fGlY3I/xV0dpIubNx2YkhJTNpk6aKnPD3u6ooet99qzJVqVRCQirjWPyonisY7EMwcCProu6+5Cgz/Orflb9+uJd1LoA2Chff5HlPrQuo4LlK9n0zUK+Kz1Cn3vZjgq2PPm64t8R+viB7/4fwCn+5FL2OnWX4Pb17rsw6DtcGYBjFvf7qe69AL6em6W8ugQufjF2E7+qfSf4es9vXv0cfFmLKdyDCyOq1yl5e2gym9h8N/sUCMJMaJqXtho+dCha2vj2ynxmTtIAsnpFM59FyUOcqezmibUpIXV1r9hs6uTVqV+wfm6Z/4MBSS1coPgq2sFlpZnY4AAY9pORLn3qtp3fykVjs8e6rmW+KCOnSEtTeSc1CbJa2wO+fF3UCBOejlXr7zLyfiqSWj/7+ifEKjOsK9X7MMzkbkphNQk6eSMQ9b9bu5YjubTXO4td2nX8BpT3N5HUiiyPY/JGWkktS+Kkv3uM2Xx6wns5wOA1NScCx46f55j898aPTrqVSiZKiY7tO1xRlBYZFrLK/jH6Vi+lH3VxDFi6OJ1i/slXukQWPSzVs5s2Kesk5i+kFYCbsrlLNMaSyVxpiWBR6jgALC5mbBPY+dvZcpuufcKQYvxdLNym7vwBhzneRPt21z5Jy+KyfxVvVq0CYLDhLfYciOPFqlWgvBeLKnjTAHVrNqhYpK/kxapV2C/foB9TQCfez9Pwn7NIs1xDM/dRIr/t5iCx5D8BHYcvUnJUKs9/QjrWvs9jXYBbvk28JCIo2hULe900I8uf4GiKVTL/Wv4ER/PkK/tt9zCTsLT/SOb3cx9y7vjWOR77WBNfn4U0WwY5+OtvccyWZ57g6OtS29ZhZnCl1JhfJvkfnxCrV/n8PnqI7UcBnuUVP1W0f1iI9tJJ/nTUQ+Hylcyf0cNZQ4987Dv8kpP8v5kreDoK4Ae+LH0L01Gp7JVFOLZZvpJNZc9gVWp9Up+idfEkOo6fxNCi7KgfwzZZ7db/NSkuZWreC16em3ZK00n+x1FyDit3Ks2XwP0dN96wn9T0SI9lvvHz/lOaTmN/5vp/pr6n34i2cSfdpmSvvwPf7/lS5v3iG47o1Qtwrs9/9/fDADbtdjIKPZuBB3v9TGvnkWzqpLtRy/q56zwLWqUmutdMprZonosmzTYAMVuqPZikpRGz5TU43cqkFcPN5FT1KRCMAGH0eUnmiWlD9DbZ7cI0ZC5OZuhMFZdI5onwdXSXUDzUVQsuAEbaN7g+iBIMadywP4QnZpGgOUDDBqO8AH6BKcZmbpBGzJYc7uzOpUHx0IjRqbRrPbyOOYdLqTF30vT4RuZ4ehGFiCehxBO+hCB35/3waF+kRcqUuo3DXsBTlmVhO5LLxfrhtcYb9qMd2ErD7mbHdoIhTYXAaCCpUEPfhlz5pWIgqWI7U+qll8yUwmoSHqmnZYO7ICT/NoI0cWjelk2z7EcR5VaWVlLLEvbx7ppDju25ctlmUyev/sKtwndfqHjZSIILx0/KiyLJ1MvO0sXpLLNeIMU45NguXjzAMVnQiEpNZJpcd+nidMr+PRqM/ZQbT8pCijezsUks0vVSuq2LY9FxnMzXUXT8a8plwWWm+QIpch9FhoWUGWwcM4ZmN5X2/LMMGrPZ4yYQSpqu972YjV3gdMNyVj+9Ek7I1/3pJAYb3lIhuMxmyfvLsWzL5tMu+/ZGlsStpK5LfvZMdquichGeOHccBz+4xrLXY1nW2M5BklgWHQHYMP73RYyy/4kn69PEuZHUf3CR8q+kYwzL+2n2tDh3YKPP8hBp0wGi2bcadq/vh+iHsFp+kg45+i3Lj9r9WVxrp/1HMr9PtPJfv5aEJOUx0lh9mY09RFailf/69bc0y348hj8qBJsR5VmWLIIvSz2bhM3LfwZOVHBOsW/8ohVM/t/X2bJDFljyn8V09BR9r73Fn/7wDq8Ur+TLo+d5uthNcAkFn+8F789NiVwq8yZTW+b2m8t6Ae33B2jY6uFKZ22X/Cfs78Cs7WQUGrjh9+OMn/df1nYyVmjo253r9j5U80ytZu3cajZ7XGT7f8/rK5czJUCzuRu7c50Ch66YWQXFjK+3jy2RhAX1tGzYxG3ZBCxGZ3ScZ3DXT+I9fTxtlefYZTaR7OajpK88x64l3/Gxbt6wc4lIL8B2JNdpmr7MQI+jz0i0C6BlQy637YJr1g6HMOarT4FgpAiT8KIhM38+E9pMmGTZZWrmQqb3mjg43AVm9JO3h6by58DrQ90X7l+lALMOHMuZDi7bHwrm09wcfI0IHcACJk2MJKKw2sVu2qIFVDvllZGja6OycSfdjdnDFqehaD8C9V/x1NeI+LKUmuhe8yRtVfHM8fDusQ1YSVhRTUaKu3YjjaikSCImbiEjXbHb5V55IWs2USQSVVFNgmOnlTs6wGxgks5K3+676c+ykoQ4K81e/DHe08cH90JJnUzirV5KWzwVTmCRbhxRD8+mNVWxu2cCIGtJejocX4mPtX1HcW4ES8Gh5fHOHU5Uy9qUfhsWJvNYNNA/gWkP3+RzRTCB8s6brJqjtl3vXLtmZYmhljef3heQX8vVA0fpqZpDGodoZiUJce00blOhPYlbSFxkJBNLaklT7O6JAbqkxVawWBuvYWQiyxjk8z/a4D8DqdstCwk2+iyQIgs9Dod7u8ZLoQExW36ShSMYsIwjayb0RT3EQKs/s7QIshIfouNksKZkP1G/V6771U8MEIl2JuAQcsrI0QXy4Uk9gWhdHFw64hBI+k58w+3iqZJfDdD32lvUGT/glW+e4faJCra7Cy4t7lqVQPDwXvDz3ASg9BWyaWH9Ybf9fQPYVhSQUTF7mFZgSkoi6BLJqChw7hwcYDz4fh7qfL//pqQkYju/NSQHdeci+xzZRfNYi5r3vGw2VxTYfHTVngB0EIH9GljpO2B/Pxi5aS5gkuI8g7p+Ckxr50n319zJvKp4cspkAY0vWK/z8sHKfMAhjNxubsVWMN2lT8tp+3glvxv/faocrEAQJGEQXjRk5uslQcXhjZ/M3OQJ/Bt6fqfwgXns+TXM8OLUP6o4vI45h6UJ70vV7InxhtfQ4vzqHpCDfchRrXx/SVOTP8UT/kzDlG172zdiZmNlemLLvGucbhtfosGI9AWrosDtGocQsSXIiG/3guA1L/64c4+jeYWPqwdW8u4BJLOvqlVgPcXeN95X4at3iMtdq5hbMJvma3OI6WriU7Wdeu0jNM3LyCD5rHiKYtXc/xNEgyFlHM01d0h75hGI+omB3rs+yLvD8pX80qvWJQZ98XCti1puW35g/NRYoMfvserx8F7w89wE2Jz+JG2H9cOfEXZndQwkVVST4PYcdTehVc0IR3V0mIY5FvAq3vMezeb8oCsmIR2nlkiOMqqWoK+fjFPDYv9oJX0M0Y+gdmR4nwLByBKawz7J6Ne6Cy4AbZgqq2RHftmZnyEufVY1+gUXB9WsnRvPx7xMd+Me9CprRWgi4fte+QFsQOvy9cWNrBfQ0orFDJh7sU3MIsGQ5v14X+Ttocn8MlTF+zUZC0YDYs+7Yq/r/n8g2B39w6eJKSNHt5GLT+/07jxYv4mGDQewTNTIfirN2L6PRFtQzPhAu+sbwKYrICnLU6GRm+ZItMsMvus7xhEOurBYI4lLnw1IkbGUvi/v6eNd7l+sLp5YNYLLwI9YHp7MomiQfE2Uvi9DXLWOY1FuHEtVjLDo36eDeUChHRniyq1xTAsoct4QV25NYtniCfL2BHbOmYTFpd0QObGBd9fsoydyKo8qdl+9dh0mTecxD1WaPzsFM37Fi4un0vyZSq1NVy+Dkc+yomC2h0Lp2TPsnt0zwcUPvXcg6lHSsGL86idIjETDT/T5jQ4maXcSUx6RNpc/4er7AsBPDNx6CM30YAYmLc7D7VA8L/8Zxl86KfmnuFOcx9NRPZx9zbfwMS//GfjqvCMogPYP77CEI2zP/IQvp67glWK3CtFxnCxZyEnHb18lPt8LPp6beXtYMfULPvb5kzPSviGXy+ZIxsnqEtuAlagV25kS2Cj9vv9utHYQkf6C93Z9PlNzqWzs5FU+8fDc8/Wel83m9gY477QaIhjAJgtzU5ZleX/W64rR6jq4KQsrQV8/mc2mTnY93cJ6DwKKae08YqvgVT9BHKYsy4L206qFSF99CgQjRUial6mZKdLLPFmpYennTGUNl0Id2SjBoWo2lWKSFw+uKuEC6Yu+/CX+xuf1aAvlfVjpO9+Bq3F5IgkOc6MOLm9wqo/bd09nVqHSjMnprOerTyilpjyVi0XxrFX5hSgY4UGtz4u/Y0YmFLLTrrmpsk1+UQ834bMccdoi39i9lYgtW5xOnii+erk4h8qOoPYvg+YdXDyiIWNFNRkr5EMUXw3t7TpV/25Ol+Yd9Jmrnb8DVVocZc4QwFDLmwa74/4F6j4+RVzJO7yZAXTtY2/Dclb4ak4N/V3saJlMmexU33H8AifmzHAUlxsv8NhvZ1NWMh37693FoTgmkdYS+Rr2dDj8VCSG2Nh0k9bFC2ldDE6HfV8MsfGjDowlClO1Ye0Gg9u1RbquLqZMJ/5C8+J3WF31LODmXN91ki7eIY1TnHbJ4+LqkB9TUkuaI9/LIT7dNp119nsGQLtKR/9gcTP9ypvF0bzhjvtB8cRENI3XABvNlljyo645fE9cHfJjOfrnWIfjvvG/u0n7s7zv1jX+6zD83iW2i43yk4Mclcc6zGE/7LiFPP7NB2z9zQ8uzvTzZ/zgXeuyPIbb3rQuM1aw9Rt5Vl46wpbXnM78ryz6nronpTZNO/7OprIP2DS9gu12IUgOiZyo07CUIZXCupr3gqfnpj261kaPHziGmUSZD9BgNzkyvsRljeLZhtLx3i2YTWE1WofWxvf7j/pNtGj2k6po10VD4eOZutm0k1lf+jYB9/Se92o2B77fD/V/o2/BFsdYbOfrseiUi4BItA7zOOn87e+G4K+fpP2QBDQfwlaZntjLe2gqN7H5sELY0BU431fmAzSoChSksk+BYAT4WUxs3L/u5QCSkmfQ3na/iDqjEzU5V3zt8yXoKB3w1fTpT2hS05en/gSji6WL0ymL/CcpITrSjw0k4SfuktpoYYIHDe0f3uGVqSdDyPniDFbhOYFsGAlbUsqxjFtSSoFAMKoIY7QxwWjFfaHvzz/FfZ8vQcFbmbc+1YZjDrRMILhnLPoVaZHt1AnBRTASyGGSw6NlVMHhdcwJxMfjviS0oBkCgWBkEcKLQCAQBIMjB4xkCjaqky8Kxi4hRRoTCASC+w9hNiYQCAQCgUAgEAjGBCFGGxMIBAKBQCAQCASCu4MwGxMIBKpRBlQIJhFpeENkCwQCgUAgeNAQmheBQBA07vl/1Bw/YglLBQKBQCAQ3PcI4SUIphRWMyvYZJIPBLNZ8n4tb1bV8maVa8JEB3FvsK6qlnUek/R5YyUvemvPH3KSN2OqFMa3teQpioJoxpUX2FV7kNJngm9h5a7PqastZ2WQ9YsM7onrJrDzt+nsjPZ0dDRGe6K71KdoLfF2nHrsCUe9CSTKcuVx3vYHjpSArkbOsTfesJ+MQh8JQgUCgUAgEIxpQjYbm5G7hsxp8saVs3xY3SZvJKNfO981I7VL+YOKgaSKHO7IiaVckZIqjjutSL41JrlA3RvZ1LGSF6uW3+vBSMhJ3hzc+pH2ezUWVbzArtpcrr+dT9nfPR+xdHE6qyJ7KTW6JX+s/o6T+U9RNCzp4xBXbuFMcoaNqyrTsHhLUOqey8edETcRy8tmFl/wblhyMfief+MN+0nV1KhIKCoQCAQCgWCkCE3zkpxDJmf5sLKKDyvPcnXafPTJygOGuPRZlVxeNWYFF33lObpNpfd6GPcXXe+zZ032XU7qd4crA3DMYruLffrm0PplLMku4lCgFaPjKE61se+jruHZtvu72NESwSqDZ7WKxTIEAz+6CnMgZ9nO9VhHaRqm/DsQzYn7MWq1Lb7mn5QJvNZjJvCxgHi2CAQCgUAQGKFpXtpq+NAhj7Tx7ZX5zJykAQZCHdeoYb5cIpgAACAASURBVLOpk1enfsH6ua6fdm0DOpIqtshfsTu4vGETNxj+dVa5PaWwmgSd3EBhNVpFXZthP6npkVLZimoyVgBY6XNoaKSvwtqJcv3Belq27uC23EcCrdjSs4aNxy+OXBVysw3OLOFpJbUkXDvFxAy53HqKvW+8z1UVdX2RVlLrMP3qMWbz6Qn1Y/LUjsc2htGPYZusZugfnjdh5a7PWZ1o37Jyyq7xeGYTf317Kia7gOG+zQD/1JVT97ZcuWM/S9b/TTrudfhqYAHPJlo5tf9rZr60gEjrad5auZ2mZzbx17cXEAlg3+dhLElvf86zUsPsVQg5Rf8+HVouuGlWnBw7/k9WlzzOzuh+Njq0K0Ns/Oik/HcXC7e51nlPvxFt4066TcnE6v2rMgLRqnhy1Lf7v/hqx9v8kyhl3i++4YjeNZmcbQBitlTLc0Uxh3TFzCrU0GefG4ptn/OPYmYVZhEBQAEZFQVSP+e3ctEoZXdxmdvK+acrZlYB3Pw+C61cbjni1OyY1s4j2dRJd6OW9XPXjVkhTCAQCASCu0UYo40l88S0IXqblILLBGY8v4YZgKSFOcSZMSPX5FLZuJPs658Q62HhFLUih77duTSYpYWL1pDGDaPvNHU3dudyw5vZmPElGozezFak/ZPat9KgWCylFvY6hKSI9CxsR3JpqFc/HklImEnXtmzqukDyKXmHF685hYGYjJk0b8umrms2S95/hwWL3pfKZAFj0JjNHr+CgyvN27JpRmovyr1QZbtpJbUsYR/vrpGX83l7aCp/jslux7VVxZPjbx3+zCb0mtO8le0UINSTyOrc07yVXUSTbOpV+szfKAOIXMDMr99mL2+z+qWp7H37NPq3p/IE0PT37fwyezv8qpw6N2XHofXLOOTTbGwCj0Xe4av/85Vtu5/GnkSWJU+AfrVZuaWs0pv9LKbtAoc3zYm7MKI83t3MzLsA43v+AegrlzOl7n94z21/RHqBYy6MN+wndZmBHj+mXrd9zr8dXNyww6vZ2JTCahI4QMMGxQeLLcXY5I8LTMxC+71cnrWdjAXFjK+Xy4D39PG0VZ5jl9lEsk4/7HwEAoFAIBA4CZPDvobM/PlMaDupEE7aMFU6TcY+a4MZz+fIgswoJ28PTeadzPpyo9cv0Lbzf3AIHzdaO4jQ6DweFx50jJvYQZ9CGLnR2gGPTGe8fYf5gGPBZRuwqhtPzFQmdh2VBReAQ1zugomPOp3oBxt2yuUXuHnTWfZY+kwmdu1TofEIDP/tRpJWUsvca2/x7jaFsdXhdcxRRL6y//MruAD8vZfrkQt4JyjneyunPrALPX+jsSOSqYov8KYySWNkPf3XwE3DvDKBaQ/791dpt94JqvX39PGs/zKVXeZzVOZJ+5SmYZ7Mx3xFHVMeo3TYV+53QcX8g1JeXQIXv6geXqSYC7ebW7Ep50nYSSPiESt9nzsFmtvNrdgmamRNDUAHl+0CT9+AW5mEae08YqvgVbMz+IBAIBAIBILhhEF40ZCZr2d6r4mDPtQq1y/38kPond0dDq9jjm4jF5/eKezRRx1WmrftYzDjHV5cpNidt4cmDxGs1C0E/8b67GUsyf4AXv+cutrP2fWrERr+GGCzqZNdT7ewXjePtYelfZ4EE3cnfjU+LGpMxVTNv9J0kv9x1DG+sY6+8hzda+BjtQK3QCAQCAQPKCEKL8no1/oXXABmzEnm3650cym0Du8i1aydG8/HvEx34x70Xo9LI2ZBIpZWhSmJ/UuvrpgEux29AzN3BiMZp/XUVjO27yFC4x6G2cydwUS0jvDMUp+29tMO05Og6LnOYNxyZ+jhuDeYG2el67x/v5Wr579yrRsm1LV7iE+3nWKiQRE2ORTNi4MLlK1cxlunrUydrgzhrOHxZwBmU/q67KfiiWc2oU/soPEvgfTpDTPXrUotjpIhrtyK4DE/YY6TIsdJzvmqkcIOv8onxAbof6E214s/kzMnvuZfLpV5k6nd6//mTlmWBS7zREOEDiCNmIIsNw2It/kncXtgwFXb6agTiXaZMzzzlGVZRJgvqPM5QyksCpMxgUAgEAj8EZLPy9TMFCkUcrKe3zmijPVzprKGS+6hksdomGSHPbqpFJPChCUifQsZ6dLftvNbuWg3UzHWYKkoILUiC+jg8pEOElKULTbTc7qDDIdTsKtz/Y3P69EW2tu2Oxs307P1AOMqnH1iPuDwfwmarvfZY6zgzZJa7Mu1HmO2wowssLpOx/qVvFi1ihh5f0xJLWlYad620uE7k2aXAAy1vGlQON37bNdz/3EqAwV45Vfl1L2U6Ny2nuatlXJ7f9+OqeNzVsuO8+3799P+0hxF5UiedTjVS47+qszDXPpM5J3aBW6O+xcoq+6g7qXPqXsJXB32h7hqHefHnyWauTF3uPJ/qq4AAJtNsqnWWg+mWCHiyeTMfZ8nPM6/0lfIpoX13rQuOqdTvcs8Me+gz1xNghwsw3LkAJYVrnmGPM8/ubD+b/Qt2CLPbafD/o3dW4nYssXZ52A9LVvVhVPWV56ThUWhbhEIBAKBQA0/i4mN+9e9HEBS8gza28aOPkYgGBVEx3Ey/+d8PiyXi8TSxemURf6TFKPKRC4qUAobvjQonnK/+BJQ1BzjRHLk1x4W5lUCgUAgEDyICOFFIBijLF2cTpnuO0rdc734EWwEAoFAIBAIxiphijYmEAjuNseOn2efdTqrU5V7J7AzdzJfHRSCi0AgEAgEgvsPoXkRCAQCgUAgEAgEYwKheREIBAKBQCAQCARjAiG8CAQPGL7CFCtz5AgEAoFAIBCMNkIKlSwQCMYevqKFqYkKpqZ9gUAgEAgEgpFAaF6CYEphNbMMnhPZCQBms+T9Wt6squXNqkOeE07GvcG6qlrWFcz2UOiNlbzorT1/RMdxsmQhxlQpSldryVMUyUVzSg9St+uFIBr1jep2o+M4qRgPAKlP0WrwnIXSOf4J7PztQq/H+UIpYCiTeqqp5+tf0JSaFMkoDSRV7CfGY4JOgUAgEAgEDzIha15m5K4hc5q84SER5dTMlTyfPMFr+YOHgaSKHO4ok985SCNmyxbGnc6lvf5ejC1cXKDujWzqWMmLVcvv9WAk+m1YlNu3fqT9Xo3FhWiM+dOxHD/pGh2s5Wv2xS/k5OIhFh53TUR5zGJDmeLEYvWWqFId3jQqd1ODsjn9SdoO6zGFo7Gs7WQsGKBl6w5uDyv0Nf8EAoFAIBCMdkITXpJzyOQsH1a2Acno185Hn9yGSZZPZuSuIfPhNj6rPMv10Md6z9BXnmNX9FFi9SIrXtjoep89a96/y53e4coAHMNG2Sj5ql9kSCSq5QILW4aXlRs7mFsyg51t59nonmvy1o+0MwRWmKncn7eHpvJpHNHpec9Df0pBRZnt3tdxngjE3EyilBrzcvqK5rH2sFtR3h5W/OIbjuj9NDFq8XFuAoFAIBAIwkpowktbDR86FCltfHtlPjMnaYABIJknpvVzZowLLptNnbw69QvWz3UVXGwDOpIqthAFQAeXN2ziBjDesJ9UTQ0Nu43gtj2lsJoE+6K5sBqtoq7NsJ/U9EipbEU1GSsArPQ5vhBLWhntRLn+YL3jy/J4w34SaMWWnjVsPH6Je4N1Jc/iaLbhLfYcuABAWkktCddOMTFDLreeYu8b73NVRV1fpJXUOky/eozZfHpC/Zg8teOxjWH0Y9gmSwD9X5PiJixYr0Ppoc95NhLAyqm38yn7u1S2ctfnrE50Htu+fxnr/+Lcdi3vYG92EYfcu39mE399ewGR1tO8tXI7TQDRcSyLucnnRm+ak372tjxO2b9Hg1EhvbQ4x3/M6KaxObyOOQkmus3n0HpYTNuFDHfhw+4DEwje2hpG3h6ayp/jRlW8x8W9/rlUqPsfN2FrAJt2OxmF8oU1H3DMqSmF1WgHtnLR2Oy2rSOpokCeA4mkVmS51PU1/24A6IqZVZhFhHyI7bxrH5MG6olIl8sV8w/KyCnS0lTeSU1CPDniG4dAIBAIBCNGGB32k3li2hC9TQPyZiyPDVmx5q7hd7JZ2Q9tJg6eGQhflyNKLpWNO8m+/gmxc4evRqJW5NC3O5cGs7x4MqRxQ17oeOPG7lxueDNbMb5Eg9Gb2Zi0f1L7VhoUi6nUwl7Hgi4iPQvbkVwa6tWPRxISZtK1LZu6LpB8St7hxWtOYSAmYybN27Kp65rNkvffYcGi96UyWcAYNGazx6/g4ErztmyakdqL8jgm/+2mldSyhH28u0YWE+QF8mS349qq1C0mIxe8xNT9y1jyF8lX5Z1fvkDZ3/8GwKH1y5zCyDOb+Ovrm5jzF0kAWbnrc1ZrTvNWtiyQeOKZTfz17af46u1lDoEIAM3Pier5zmcyyWNt31GcP5ki+tUnnSzTE3t5T0CLaXcn/rCZjJWa6F4zmdoiz4ILlPLqku84oqt2259IwoJ6WjZs4rY8Z2J0Rj+mXkbaNxi9mo35nH+6YmYVpnBzdy4XzSCZl20hacA5F6PSU+jbnctFs/whIWuHc54eXsecw6XUmDtpenwjc9a6n49AIBAIBIJwECaHfQ2Z+fOZ0HYSF9lkQjKR5io+rKziw8qzDCUvJFMTnh5HlLw9NJl3MuvLjV5NxWzn/+BY/Nxo7SBCM5J2SDrGTeygTyGM3GjtgEemM96+w3zAsZCyDVjVjSdmKhO7jsqCC8AhLnfBxEedTvSDDTvl8gvcvOkseyx9JhO79qnQeASG/3YjSSupZe61t3h3m0K/cXgdczw4kKv+Ct6x36FNaTr9NVbNdObIRXNKD1JX+7n07+0FREZO5QkAXmBuopVTH/gQXBJfou7tqZiy810FF2BpVIR/fxV3Xx21HF7HHN0nsKaTblOpqiqBCi7+QipvNnXSvQY+1nk3p9JXLif5H+c9mLhZ6TtgFz6M3DRHMk6raljBodUQYa5RCDRGbpohQuMMzOGc883YvnctkygjR7eRi0/vVAQfEAgEAoFAEE7CILxoyMzXM73Xg1ZlqI1Gh1mZBevQBCKHfWofhRxexxz7IkTlwk9wt7DSvG0fgxnv8OIixe68PTQpcpTY/9WEevue2cTGBXDq7WUsyV7GkrdPYw2kfsd+3jqtYfWhTQ5h6K6Qt4cm88tQFa/aV8tb+GRPqIky9p4+ntgqeNV8jso8T0fkkv001O69X+ysSqmxf/SYuy48wQcEAoFAIBC4EKLwkox+rRfBpa2bqxOm8//ZNS2aOKZP6OfbMRNsrJq1c+P5mJf9fEVNI2ZBIpZWo3OXXSOiKybB7sfiwMydQW9fkb190TVzZzARrSM8s9Snrf20h2hKAdBzncG45c7Qw3FvMDfOStd5/34rV89/5Vo3TKhr9xCfbjvFRIMibHKomhcFK3+5AL4+LWlTdFOJZIB//t1Z5ryjf6OxI5Jnf+k7HHJTWT57BxbwjlvY5GMWG1GRE3wPJjqCqEAjo5Wa6C5P5WKR7/NXalmUf6sVYFRRpie2qIVZ5R4EydJXyL5+1L+Tu64Yra6DmwpTSodmMWu704/FTt8Atokah++KK17mX98ANl2OMzyzrhitzsrNZj+ml3YUwqIwGRMIBAKBYOQIyedlamYKjwEk6/ldsn1vP2cqa7hEG6Yzsfzu+TXMAGCIS58d4lJIw737vKePp63yHLtMpZgUX7Aj0reQkS79bTu/lYvywuq2sQZLRYHsLNzB5SMdJKQoW2ym53QHGQ6nfFfn+huf16MttLdtd9hvpmfrAcZVOPvEfMDh/xI0Xe+zx1jBmyW12MWiHmO2wowssLpOx/qVvFi1ihh5f0xJLWlYad620uE7k2aXAAy1vGlQON37bNdz/3EqAwX4JPEl6mpfkv7u2M+SMrm9v/yVU7lvs7r2c1YD1tOnaU+c6qh2aP3bPH7obWddLw77zuPmOMsHfsSy2Lc/y9LkyURZ/8kxteeRt4cm2VTLU7Qx8KxhcdeeeNOmBCXUOPxBzlF52W5ClktlnhQe2TORaB1O9dI8cJ0jBWRUFMBgPZfPa3CRRcw76DNXk1BRTQK4OPt7nX/mHVw8sp0MR59gOZKrMpxyKTWysCiijQkEAoFAMLL8LCY27l/3cgBJyTNobxtrIo1AEB6KDAtZZr0wLJeLRDTGkse5ctBDqOQgcfdp8SWMuAswavxhVPvMlJrozrvCemFeJRAIBAKBIACE8CIQ3FOiMZYkwvGTGNzCN/sWbAQCgUAgEAgePMIUbUwgEARHP4aDvUTNiWOpcnfqU6yiQwguAoFAIBAIBAqE5kUgEAgEAoFAIBCMCYTmRSAQCAQCgUAgEIwJhPAiEAgEAoFAIBAIxgRCeLFTahJZsQUCgUAgEAgEglFMSHleAGbkriFzmrxx5SwfVktZKKdmruT5ZPcEfFKuF/d8lqOBzelSzomRD9tqIKkihzu7X1KZQ0IgEAgEAoFAIBBAqMJLcg6ZnOXDyjYgGf3a+eiT2zC1wfUzh/jwjOJYzXzyn4/k+3smuJRSY15OX9G84Ynk8vaw4hffcGTMql18nJtAIBAIBAKBQHCfEJrw0lbDh22ODb69Mp+ZkzTAcAllxpxkaDNxT+KK5e2hqfw5blR5zoCtfy4V6v5nWEbyKYXVJOjsW3Imbk9lg/W0bN3BbWC8YT8JtGJLzyLKrZ5LHUcmb2W7BpIqCuR6YDu/lYvGZmkjazsZKRe4TIGjDcuRXNrrAcrIKdLSVN5JTUI8OWXBXSaBQCAQCAQCgWA0E7LZmJNknpg2RG+TB9WKZj4zp/XzVfU9ULuUmuheM5naIs+CC5Ty6pLvOKKrdtk7pbCahEfqadkgCSVKxhv2ox3YSsPuZsd2giHNIWhEpGdhO5JLQ73UjtaQxg1jMzd253LDq9lYGjFbcrizO5cGs337NWJ0iuN0BUw6kkvDbiRhZkEx4+vl8R1ex5zDpdSYO2l6fCNz1rqej0AgEAgEAoFAMNYJk/CiITN/PhPaTJg8yCf3Suuy2dTJq7/4ho9184ZpVezoK5eT/I+j5LjsNTBJZ6Vv93DBBdKISookYuIWMtIVu806QNaSmA/IGhGwDViJ0CjKvKFbwKSJkUQ4NDISFi1gF14G6+mT26V+Ew31uFFGjq6NysaddDdms37uurvgwyMQCAQCgUAgENwdwiC8aMjM1zO918RBT574yTlkTuvnzD3Qurynj+e9UhPd5nNoPfqD5JL9NNSWBWpnZaVvJBzuFeZnwVFKjfllptRtJFZoXgQCgUAgEAgE9xkhhkpORr/Wh+CChszUaH5ou3BvfF0AyvTEFrUwq7yTmlK3stJXyL5+1INQY+T/b+9+YqI+8ziOf0z2omFUCssQdQhQ3Up+LCkFZS1h8NDsNinTAQ40TXCzidFkNDZiNSFeiIdtTKRiSmQSuiYbMWmXgzodTNRsGhiCBhYkYZ1FQzoYQOMQrH8w9Oge5i8wWpkZpCPv14nn9/z+wYlPvs/3+T3ypcvySV2MGw5q7ud0WfYcVVpcL+TTL0/Stday8PCE5jZW6r260rjuqpqzGvDtldq3sWQMAAAAb6WEKi/Z1iJtliTDrgNG6OgDeZxdgbBi7FCh6YE8K703crgf5Iacd0MVGJucNYHtkWOZbj2hdU1NqmjZEzwSaawPzRW3VIbPjzTP/5pB3eu+o4pqtyqqo+/bqdHWHJUcil6ONn+TgJdrVNfXxRp6aV8PAAAAkPrW5OZtfbGSL1BgFGrUuwJ1mUaXxmum6AsBAAAAUkQSdxtLMSftymNLYQAAACBlJNjzAgAAAABvBuEFAAAAQEogvAAAAABICYQXAAAAACmB8AIAAAAgJRBeAAAAAKSEhLdKLrTtl3VLcDDVpza3NzyXbf1ctYYpPH7mdenCSn+wEgAAAEBKSiy8GFWyqk9tTq8kQ3ZHueyGVy6vJHO5PsqZ0EVnnx4GTpbdsUOFni6twCcpAQAAAKS4xJaNebuiKi1e/TQlmTLMgaH/iWZNhj6yBsbZ1iJtnn2smYQeCAAAAGC1SnjZWIShd7fMamIgtCzMK5dzRtZ6uw44FFhSdsH7qhsAAAAAwEslqWHfLGt9uUzeHxVpaTFkd9iVM+FSm9Ol2xvKdaC+XNnJeSAAAACAVSYJ4cUsa30gpMxrxjfytHnWq397/JL88lzo031Tjv5gTvyJAAAAAFafBMNLpLoScxcxU7oyQz+bN8q0+AwAAAAAeC1rcvO2voj34oVbIQc8kMcZ2FFs4fx9T3tgJ7IoBUahRr3sPwYAAADg1RIKL8lAeAEAAADwOpLUsA8AAAAAy4vwAgAAACAlEF4AAAAApATCCwAAAICUQHgBAAAAkBIILwAAAABSwlsWXmxy9o+pqzEwSqs7r4pDdUm4b50KWs4rNz8JtwIAAAAQl98leoNC235ZtwQHU31qc0e+Qjn/I5WRj1cum5qPVaLr+vvJ5XwIAAAAgJWQWOXFqJJVfWpztqvN2af7W8plNyJztcasPM72wLxHstaXKzvBF7Y7b2jc1Rhz7vjf/izduipXgs9ITKO6fDfkrFnRlwAAAADeOolVXrxdagsXWrz6aapc72eYJfmVnWHSM++PkUqLd1z3rXnKlPQwzscdd41pX/Z1HS6LVVpp1Id//J8u293zjs75pdwmtywbJemxJlv/qnu+4GTlKVVUbw+fO3PZptGe0KhOBS17lBmefaxJSco/qpJDRXoUdZ+0uvMqLhjR8IlmPddJVX1p0cDXY+p6b5uqqAIBAAAASZHEnhdD726Z1cRdvyTp4aNZrc/ZGq60ZFuLtFkmvWOO596BXpZ9Oqe8soMxKyt256fKuvYPfbXg+Lpde7S226beBpuGb0qWT4I9MJWnVFEt3W0IzPW29mhddaivJRBcdDk419ChmdANfc2a9KUro7Q0eKBUmQXpmulu1vPQOZcOamf+OWn/mAactnh+YQAAAAALJCm8mGWtL5fJ+6M8/uAhb5c8Tw3VOvbrgGO/PtKE7mtWP/tfeaPFas5qwHdaJbeOKM/+sjJGo/b9RRq67l485esIV1OeD45o7p0cpUlKM5s1d/Nfmg6f161HT9K11iKpcocyn/Rosmfx7SRp+kqPVLBbaZKUv1sZinXuSVXlH9HQB6c13n9W9iX90gAAAAAWSrhhPxBc7MqZcOmCZ34yue1ujywbM5erPudxpILxui4d1M5LNjn7T2vcZcQOMI27ZPz3B1VdiuP14+Hr1iM1yVLZrElzkTT6TaTqEnkpdfn2KuvaEeU5YoQqAAAAAEuSYOXFkN0RO7gsOq/W0OxwX5z9Lm45yrbpW+2NUcWwyVnze1395683l2R9UimNduu5pOd+v9bt+kxZocnKz2TZeEePeiRN+jW3sUiZ+ZJUqtym6N4XSRrUve47yiw6JcsuvyY7B+c/qOasBnx7pfZt2klwAQAAAJJiTW7e1hfxXjx/K+SQ0JbIhuyOcm2WJM3q9sXvFCvfFBiFGvW+/gbKducNndn0Q6QC0+jSeM2UDsfohUmrO6/iXemRA74O9bZ2vmR+fjN/9NzM5RP6ZfcXUkdUs3+ooX/BPQMVl081+eWHcrypShAAAACwCiQUXpJhqeFlvsByMsulldjVK9LUP/qS3hgAAAAAyZOEnpeV5JajbGWWZaXVVSnzSY+GCS4AAADAG5Hi4WUFhL8Nc0d3G5pjNOoDAAAAWA6El6XqOaZeqi0AAADAG5fEj1QCAAAAwPIhvAAAAABICYQXAAAAACmB8PIq+UdV0uJWSV3pSr8JAAAAsOol1rBvLld9raH1ofGsVxcv9OlhzPmXf6jyrVN5ShW7/Ro+wW5kAAAAQLIkFl78fbrg7AsOzLLW21Vm9MnllSRD9tocTVxsDwQWc7nqa6tU6OxSvJ+klCS784bObPpBefY38FVKX7OGGpqTesvjrjFVPziinY6V+T4NAAAAkKqSuFVyptJNs3o8ExhlW4u0eWpErmClJfu9HK2XSe8a0m1vfE847hrTvuzrOlwWHVxKldvUJMvG0PiO7jYc03RomH9UJYcqtS44nLt5QkOdg8HrvpC6R5RRHZx/0hOulmQdcuu9/MA1M5dtGo3aHjnrkFsZIx1S9R5lzntmnQpaQse2q7ilMnCBr0O9rZ2SpK/sR2TpP61xl/FmAhgAAADwlkg4vGRbP1etYZIkPfO6wmElc4NJz54Gkkyhbb+s6pNnqlzvZ5glLXXtmE3O/tP6+OE55ZUt+Ie/8jNZfu5Q74nOxZcFg8vcZZuGYn6bJV2W3dJwg03PQyGoslmjPdJ0q03TwWNrY1yZWV2lyVaben2BMGOpK9V0Z6dGGzp/ZdmYW44yt467xjTeb9HhsoNyLfGvAQAAAKxGCTfsP/R8pzZnu9qcLk3k2FVvNUfNZspav1/vP3WpzR1nuaXmrAZ8p1Vy60jsSsWkX3P5e1TRckpZC6bSSou0ztcxr2qy0Ex3KGAM6t4J2yvPjTZ38xvd8wV+nh65o3Xm/Ne7MOgr+zYdvlWsM74bctYs6VIAAABgVUribmN+eYYfaP2GwKKpmaezWm+UK324XRcCTS96Z4M0+2iJVZdLB7Uz/4iGPjitcVfj4nlfs4YabOpt+I8yWtyqaDmv3KXliBVx3DWmMx8M63D+h3JcWum3AQAAAH77khhezLIWbwovFXt4d0LP9EA/hQouxg4VmqLGS+KWo2ybvtVejfeflT3mOZ0abbDpri9day2BI88HRzSXX7XMYaZUubu3a2YkatnapF9zG83hPpv5bHL2j2mfzimPJWMAAADAa1uTm7f1RbwXR/e7SNJ9T3twp7Ego0oHrJuCgwfyxNhprMAo1Kj39fcfW7jbWFrdeRXvSo+cENUcLynQf1K9PTyc37DfpLXdsZaKLdwEICDUuB/dzD//nhHzzol6J3YbAwAAAOKTUHhJhqWGl9+CrENuWfyLAwsAAACA5ZPEZWMAAAAAsHwILwAAAABSQhI/Url6XTnMmAAAAFxJREFUBL4BAwAAAOBNovICAAAAICUQXgAAAACkBMILAAAAgJTwdoeXPx3T91ev6NrVK7r23THtXKbHfH7mir5v3LF4ouasBnwuHY8+1ujSuKtxmd4EAAAAeHv9H29S6y1zd7XgAAAAAElFTkSuQmCC;" vertex="1" parent="1">
                    <mxGeometry x="342.5" y="240" width="477.5" height="183.38" as="geometry"/>
                </mxCell>
            </root>
        </mxGraphModel>
    </diagram>
</mxfile>